<?xml version="1.0" standalone="no"?>
<!DOCTYPE svg PUBLIC "-//W3C//DTD SVG 1.1//EN" "http://www.w3.org/Graphics/SVG/1.1/DTD/svg11.dtd" >
<svg xmlns="http://www.w3.org/2000/svg" xmlns:xlink="http://www.w3.org/1999/xlink" version="1.1">
<metadata>
Created by FontForge 20181214 at Fri Jun  4 20:11:21 2021
 By convertio
Copyright 2017-2019 Apple Inc. All rights reserved.
</metadata>
<defs>
<font id="NewYorkExtraLarge-Medium" horiz-adv-x="0" >
  <font-face 
    font-family="New York Extra Large"
    font-weight="500"
    font-stretch="normal"
    units-per-em="2048"
    panose-1="2 2 5 2 6 4 0 0 0 4"
    ascent="1638"
    descent="-410"
    x-height="977"
    cap-height="1444"
    bbox="-460 -522 3225 1967"
    underline-thickness="56"
    underline-position="-231"
    stemh="70"
    stemv="115"
    unicode-range="U+0020-1F16B"
  />
<missing-glyph horiz-adv-x="2048" 
d="M160 -494v2444h90v-2444h-90zM570 -494v2444h90v-2444h-90zM979 -494v2444h90v-2444h-90zM1389 -494v2444h90v-2444h-90zM1799 -494v2444h90v-2444h-90z" />
    <glyph glyph-name=".notdef" horiz-adv-x="2048" 
d="M160 -494v2444h90v-2444h-90zM570 -494v2444h90v-2444h-90zM979 -494v2444h90v-2444h-90zM1389 -494v2444h90v-2444h-90zM1799 -494v2444h90v-2444h-90z" />
    <glyph glyph-name="space" unicode=" " horiz-adv-x="455" 
 />
    <glyph glyph-name="exclam" unicode="!" horiz-adv-x="644" 
d="M322 1461c84 0 139 -65 139 -162c0 -101 -21 -241 -54 -436l-70 -433h-31l-68 433c-33 197 -54 335 -54 436c0 97 54 162 138 162zM322 -17c-74 0 -136 60 -136 135s62 134 136 134c75 0 135 -59 135 -134s-60 -135 -135 -135z" />
    <glyph glyph-name="quotedbl" unicode="&#x22;" horiz-adv-x="911" 
d="M264 1475c71 0 119 -53 119 -125c0 -50 -8 -85 -36 -206l-67 -278h-34l-65 278c-28 122 -37 156 -37 206c1 72 49 125 120 125zM647 1475c71 0 119 -53 120 -125c0 -50 -8 -85 -37 -206l-66 -278h-34l-66 278c-28 122 -37 156 -36 206c0 72 48 125 119 125z" />
    <glyph glyph-name="numbersign" unicode="#" horiz-adv-x="1206" 
d="M285 0l30 427h-242l6 70h241l32 450h-242l5 70h242l29 427h73l-30 -427h386l30 427h73l-30 -427h244l-5 -70h-244l-32 -450h245l-5 -70h-245l-29 -427h-73l30 427h-386l-30 -427h-73zM393 497h385l32 450h-386z" />
    <glyph glyph-name="dollar" unicode="$" horiz-adv-x="1094" 
d="M521 -189v202c-166 0 -317 38 -414 101l-14 300h37c60 -249 215 -347 391 -347v554l-91 37c-221 90 -328 218 -328 395c0 231 176 362 419 377v202h39v-201h8c163 0 295 -40 359 -79l12 -286h-36c-46 202 -164 311 -340 311h-3v-494l109 -46c231 -95 344 -220 344 -408
c0 -243 -195 -401 -453 -415v-203h-39zM306 1157c0 -117 72 -192 215 -257v475c-140 -14 -215 -102 -215 -218zM809 324c0 129 -71 205 -249 281v-537c152 14 249 113 249 256z" />
    <glyph glyph-name="percent" unicode="%" horiz-adv-x="1748" 
d="M387 698c-173 0 -315 141 -315 379c0 242 141 379 316 379c173 0 315 -141 315 -378c0 -243 -141 -380 -316 -380zM415 0l842 1444h75l-841 -1444h-76zM390 738c83 0 128 87 128 329c0 243 -48 350 -133 350c-83 0 -127 -87 -127 -328c0 -244 48 -351 132 -351zM1359 -12
c-172 0 -314 141 -314 378c0 243 140 380 316 380c172 0 314 -141 314 -379c0 -242 -140 -379 -316 -379zM1363 27c83 0 128 88 128 329c0 244 -48 350 -133 350c-83 0 -127 -86 -127 -328c0 -244 47 -351 132 -351z" />
    <glyph glyph-name="ampersand" unicode="&#x26;" horiz-adv-x="1595" 
d="M503 -20c-249 0 -424 164 -424 385c0 181 126 325 366 408c-125 139 -177 237 -177 359c0 186 161 334 402 334c250 0 389 -130 389 -290c0 -150 -127 -258 -335 -336c14 -14 28 -29 44 -44l326 -327l113 174c100 153 70 202 -62 219v39l403 1v-39
c-103 -13 -151 -53 -280 -228l-143 -197l184 -185c143 -140 215 -193 288 -216v-37h-382l-240 239c-143 -169 -283 -259 -472 -259zM484 1222c0 -110 60 -197 210 -352c113 72 167 177 167 300c0 134 -70 241 -191 241c-108 0 -186 -67 -186 -189zM302 476
c1 -215 162 -362 352 -362c102 0 199 46 295 151l-372 371c-38 38 -72 73 -103 105c-118 -64 -172 -157 -172 -265z" />
    <glyph glyph-name="quotesingle" unicode="'" horiz-adv-x="528" 
d="M264 1475c71 0 119 -53 119 -125c0 -50 -8 -85 -36 -206l-67 -278h-34l-65 278c-28 122 -37 156 -37 206c1 72 49 125 120 125z" />
    <glyph glyph-name="parenleft" unicode="(" horiz-adv-x="680" 
d="M318 650c0 -390 130 -731 327 -930h-47c-283 159 -509 518 -509 930s226 770 509 930h47c-197 -199 -327 -540 -327 -930z" />
    <glyph glyph-name="parenright" unicode=")" horiz-adv-x="680" 
d="M361 650c0 390 -129 731 -327 930h47c284 -159 509 -518 509 -930s-225 -770 -509 -930h-47c198 199 327 540 327 930z" />
    <glyph glyph-name="asterisk" unicode="*" horiz-adv-x="726" 
d="M353 1147l-59 200c-25 73 19 119 69 119c48 0 94 -46 69 -119l-59 -200h-20zM381 1144l137 151c50 59 112 43 137 -1c25 -41 8 -103 -68 -119l-198 -48zM336 1127l-197 48c-76 16 -93 76 -69 119c25 44 88 59 138 1l137 -151zM345 1102l-137 -151
c-49 -59 -112 -43 -138 1c-24 41 -6 103 69 119l197 48zM390 1119l198 -48c75 -16 93 -76 67 -119c-25 -44 -87 -59 -137 -1l-137 152zM373 1097l59 -200c26 -73 -19 -119 -69 -119c-49 0 -94 47 -69 119l60 200h19z" />
    <glyph glyph-name="plus" unicode="+" horiz-adv-x="1154" 
d="M116 532v79h421v423h79v-423h423v-79h-423v-422h-79v422h-421z" />
    <glyph glyph-name="comma" unicode="," horiz-adv-x="480" 
d="M93 -257l-9 35c85 19 158 85 158 175c0 75 -61 131 -148 137c0 96 54 178 144 178c91 0 152 -84 152 -197c0 -173 -146 -306 -297 -328z" />
    <glyph glyph-name="hyphen" unicode="&#x2011;" horiz-adv-x="676" 
d="M595 529h-513v87h513v-87z" />
    <glyph glyph-name="hyphen" unicode="&#x2010;" horiz-adv-x="676" 
d="M595 529h-513v87h513v-87z" />
    <glyph glyph-name="hyphen" unicode="-" horiz-adv-x="676" 
d="M595 529h-513v87h513v-87z" />
    <glyph glyph-name="period" unicode="." horiz-adv-x="480" 
d="M240 -16c-78 0 -142 64 -142 142c0 79 64 142 142 142c79 0 142 -63 142 -142c0 -78 -63 -142 -142 -142z" />
    <glyph glyph-name="slash" unicode="/" horiz-adv-x="680" 
d="M46 -280l498 1860h90l-498 -1860h-90z" />
    <glyph glyph-name="zero" unicode="0" horiz-adv-x="1295" 
d="M647 -22c-293 0 -547 259 -547 743c0 497 252 745 549 745c293 0 546 -259 546 -743c0 -497 -250 -745 -548 -745zM653 33c173 0 265 191 265 658c0 475 -98 720 -276 720c-172 0 -266 -191 -266 -658c0 -475 101 -720 277 -720z" />
    <glyph glyph-name="one" unicode="1" horiz-adv-x="776" 
d="M520 1447l-4 -1250c0 -107 36 -136 192 -158v-39h-619v39c153 21 188 51 188 158v1074l-198 -63v35c114 65 216 133 302 204h139z" />
    <glyph glyph-name="two" unicode="2" horiz-adv-x="992" 
d="M901 0h-841v168l149 162c321 316 425 476 425 678c0 178 -109 293 -272 293c-156 0 -259 -83 -305 -201v43c36 192 192 323 436 323c233 0 396 -153 396 -381c0 -235 -149 -412 -509 -698l-228 -185h760z" />
    <glyph glyph-name="three" unicode="3" horiz-adv-x="1062" 
d="M171 406c65 0 117 -50 117 -116c0 -65 -51 -115 -113 -115c-13 0 -24 2 -36 6c47 -72 139 -118 247 -118c184 0 323 117 323 314c0 210 -154 357 -431 358v40c282 45 400 156 400 303c0 136 -102 223 -258 223c-160 0 -275 -75 -332 -192v39c41 180 204 318 444 318
c230 0 388 -130 388 -327c0 -169 -132 -286 -317 -318c216 -24 365 -192 365 -410c0 -284 -254 -433 -499 -433c-241 0 -415 139 -415 307c0 70 53 121 117 121z" />
    <glyph glyph-name="four" unicode="4" horiz-adv-x="1163" 
d="M686 0v349h-640v106l691 992h171v-919h216l-7 -179h-209v-349h-222zM687 528v759l-492 -759h492z" />
    <glyph glyph-name="five" unicode="5" horiz-adv-x="1069" 
d="M188 402c65 0 117 -50 117 -116c0 -65 -51 -114 -113 -114c-12 0 -23 2 -34 5c46 -68 136 -114 252 -114c173 0 316 125 316 353c0 213 -138 350 -306 350c-122 0 -208 -50 -251 -115l-43 1l144 792h658l-11 -206h-617l-112 -509c58 88 188 165 368 165
c230 0 427 -167 427 -436c0 -292 -244 -480 -505 -480c-254 0 -407 151 -407 299c0 72 52 125 117 125z" />
    <glyph glyph-name="six" unicode="6" horiz-adv-x="1208" 
d="M99 587c1 501 386 875 956 866v-38c-443 -40 -680 -354 -701 -823c44 173 177 284 376 284c237 0 394 -169 394 -419c0 -309 -243 -479 -504 -479c-307 0 -521 220 -521 609zM359 459c0 -267 101 -426 261 -426c149 0 248 143 248 358c0 225 -97 364 -253 364
c-150 0 -256 -118 -256 -296z" />
    <glyph glyph-name="seven" unicode="7" horiz-adv-x="974" 
d="M440 0h-269v7c224 502 444 893 679 1231h-800l11 206h845v-204c-169 -348 -320 -752 -466 -1240z" />
    <glyph glyph-name="eight" unicode="8" horiz-adv-x="1213" 
d="M1114 376c0 -249 -230 -398 -506 -398c-298 0 -508 119 -508 347c-1 196 145 324 370 377l-14 8c-189 99 -309 212 -309 390c0 235 196 365 464 365c284 0 458 -130 458 -316c0 -164 -136 -268 -338 -317l25 -13c240 -126 358 -245 358 -443zM597 904l101 -54
c99 56 155 154 155 277c0 157 -86 283 -244 283c-155 0 -247 -88 -247 -216c0 -125 74 -205 235 -290zM316 350c0 -183 117 -316 295 -316c174 0 286 98 286 248c0 141 -75 232 -283 344l-111 58c-123 -63 -188 -180 -187 -334z" />
    <glyph glyph-name="nine" unicode="9" horiz-adv-x="1208" 
d="M1109 857c-1 -502 -387 -875 -956 -866l-1 38c443 40 681 353 702 823c-44 -173 -178 -284 -377 -284c-237 0 -394 169 -394 419c0 309 243 479 504 479c308 0 522 -220 522 -609zM593 689c150 0 256 118 256 296c0 267 -101 426 -262 426c-149 0 -247 -143 -247 -358
c0 -225 97 -364 253 -364z" />
    <glyph glyph-name="colon" unicode=":" horiz-adv-x="491" 
d="M245 678c-76 0 -139 63 -139 140s63 139 139 139c77 0 140 -62 140 -139s-63 -140 -140 -140zM245 -13c-76 0 -139 63 -139 139c0 78 63 140 139 140c77 0 140 -62 140 -140c0 -76 -63 -139 -140 -139z" />
    <glyph glyph-name="semicolon" unicode=";" horiz-adv-x="480" 
d="M241 674c-77 0 -140 64 -140 140c0 77 63 139 140 139c76 0 139 -62 139 -139c0 -76 -63 -140 -139 -140zM93 -257l-9 35c85 19 158 85 158 175c0 75 -61 131 -148 137c0 96 54 178 144 178c91 0 152 -84 152 -197c0 -173 -146 -306 -297 -328z" />
    <glyph glyph-name="less" unicode="&#x3c;" horiz-adv-x="1150" 
d="M1068 152v-84l-981 487v38l981 486v-79l-865 -423z" />
    <glyph glyph-name="equal" unicode="=" horiz-adv-x="1154" 
d="M116 740v79h923v-79h-923zM116 325v78h923v-78h-923z" />
    <glyph glyph-name="greater" unicode="&#x3e;" horiz-adv-x="1150" 
d="M82 995v84l981 -487v-38l-981 -486v79l863 423z" />
    <glyph glyph-name="question" unicode="?" horiz-adv-x="721" 
d="M263 1462c205 1 372 -169 372 -439c0 -252 -142 -412 -341 -459l8 -127h-35l-65 371c249 8 372 80 370 208c-3 162 -188 242 -479 242c-6 16 -9 36 -9 54c0 83 62 150 179 150zM300 -17c-74 0 -136 60 -136 134c0 75 62 134 136 134s135 -59 135 -134
c0 -74 -61 -134 -135 -134z" />
    <glyph glyph-name="at" unicode="@" horiz-adv-x="1973" 
d="M557 364c0 301 182 612 450 612c108 0 174 -55 206 -144l149 128h82l-154 -719c-27 -131 28 -169 94 -169c180 0 440 204 440 594c0 426 -333 683 -758 683c-466 0 -921 -357 -921 -938c0 -479 339 -782 747 -782c154 0 302 23 433 105l-1 -42
c-112 -84 -285 -119 -444 -119c-432 0 -798 330 -798 832c0 620 483 1000 983 1000c462 0 823 -288 823 -734c0 -404 -275 -666 -558 -666c-185 0 -264 95 -242 247c0 3 10 54 11 57c-62 -174 -192 -272 -318 -272c-147 0 -224 133 -224 327zM777 345
c0 -121 26 -210 103 -210c107 0 206 140 234 270l78 368c-12 82 -57 133 -128 133c-178 0 -287 -320 -287 -561z" />
    <glyph glyph-name="A" unicode="A" horiz-adv-x="1374" 
d="M1194 248c56 -155 91 -192 192 -209v-39h-575v39c129 17 153 62 102 213l-89 257h-472l-74 -222c-61 -183 -45 -227 97 -248v-39h-387v39c105 17 139 54 210 253l419 1152h151zM371 566h434l-220 641z" />
    <glyph glyph-name="B" unicode="B" horiz-adv-x="1347" 
d="M1265 414c0 -286 -314 -414 -650 -414h-560v39c120 19 139 42 139 130v1106c0 88 -19 111 -139 130v39h560c360 0 584 -116 584 -343c0 -201 -200 -306 -426 -321c292 -13 492 -137 492 -366zM928 1082c0 177 -102 305 -364 313l-105 3v-611l164 1c195 1 305 102 305 294
zM983 399c0 200 -127 337 -360 340l-164 2v-695l105 3c268 8 419 131 419 350z" />
    <glyph glyph-name="C" unicode="&#x216d;" horiz-adv-x="1405" 
d="M91 731c0 473 339 735 756 735c230 0 380 -45 457 -99l13 -350h-37c-52 242 -195 392 -420 392c-296 0 -474 -262 -474 -662c0 -380 169 -712 479 -712c208 0 362 132 419 399h37l-12 -350c-72 -53 -250 -106 -456 -106c-433 0 -762 287 -762 753z" />
    <glyph glyph-name="C" unicode="C" horiz-adv-x="1405" 
d="M91 731c0 473 339 735 756 735c230 0 380 -45 457 -99l13 -350h-37c-52 242 -195 392 -420 392c-296 0 -474 -262 -474 -662c0 -380 169 -712 479 -712c208 0 362 132 419 399h37l-12 -350c-72 -53 -250 -106 -456 -106c-433 0 -762 287 -762 753z" />
    <glyph glyph-name="D" unicode="&#x216e;" horiz-adv-x="1540" 
d="M1458 747c0 -484 -400 -747 -873 -747h-530v39c120 19 139 42 139 130v1106c0 88 -19 111 -139 130v39h527c520 0 876 -246 876 -697zM1165 726c1 395 -222 657 -615 669l-91 3v-1352l91 3c387 12 615 264 615 677z" />
    <glyph glyph-name="D" unicode="D" horiz-adv-x="1540" 
d="M1458 747c0 -484 -400 -747 -873 -747h-530v39c120 19 139 42 139 130v1106c0 88 -19 111 -139 130v39h527c520 0 876 -246 876 -697zM1165 726c1 395 -222 657 -615 669l-91 3v-1352l91 3c387 12 615 264 615 677z" />
    <glyph glyph-name="E" unicode="E" horiz-adv-x="1229" 
d="M1105 1444l15 -359h-37c-55 231 -144 293 -423 305l-201 8v-635l254 5c124 5 150 52 181 204h34v-465h-34c-29 151 -56 199 -181 204l-254 6v-671l237 9c295 14 380 73 436 342h38l-18 -397h-1097v39c120 19 139 42 139 130v1106c0 88 -19 111 -139 130v39h1050z" />
    <glyph glyph-name="F" unicode="F" horiz-adv-x="1125" 
d="M1070 1444l14 -359h-37c-53 232 -139 292 -408 305l-180 8v-646l218 6c122 5 148 51 178 203h35v-464h-35c-28 151 -54 199 -178 204l-218 5v-523c0 -97 20 -126 151 -144v-39h-555v39c120 19 139 42 139 130v1106c0 88 -19 111 -139 130v39h1015z" />
    <glyph glyph-name="G" unicode="G" horiz-adv-x="1530" 
d="M91 729c0 478 341 737 761 737c234 0 387 -45 464 -99l12 -349h-36c-54 241 -199 391 -428 391c-300 0 -478 -262 -478 -662c0 -381 167 -712 479 -712c114 0 210 30 263 75v409c0 94 -18 114 -143 127v40h520v-40c-116 -13 -136 -33 -136 -127v-395
c-115 -88 -317 -146 -517 -146c-441 0 -761 295 -761 751z" />
    <glyph glyph-name="H" unicode="H" horiz-adv-x="1589" 
d="M459 163c0 -85 21 -105 133 -124v-39h-537v39c120 19 139 42 139 130v1106c0 88 -19 111 -139 130v39h537v-40c-112 -18 -133 -38 -133 -123v-516h670v516c0 86 -19 106 -132 124v39h537v-39c-118 -19 -140 -40 -140 -130v-1106c0 -89 22 -111 140 -130v-39h-537v39
c113 18 132 38 132 124v550h-670v-550z" />
    <glyph glyph-name="I" unicode="&#xa7ae;" horiz-adv-x="654" 
d="M459 169c0 -88 21 -111 140 -130v-39h-544v39c120 19 139 42 139 130v1106c0 88 -19 111 -139 130v39h544v-39c-119 -19 -140 -42 -140 -130v-1106z" />
    <glyph glyph-name="I" unicode="&#x2160;" horiz-adv-x="654" 
d="M459 169c0 -88 21 -111 140 -130v-39h-544v39c120 19 139 42 139 130v1106c0 88 -19 111 -139 130v39h544v-39c-119 -19 -140 -42 -140 -130v-1106z" />
    <glyph glyph-name="I" unicode="I" horiz-adv-x="654" 
d="M459 169c0 -88 21 -111 140 -130v-39h-544v39c120 19 139 42 139 130v1106c0 88 -19 111 -139 130v39h544v-39c-119 -19 -140 -42 -140 -130v-1106z" />
    <glyph glyph-name="J" unicode="J" horiz-adv-x="654" 
d="M459 259c0 -354 -178 -510 -517 -668l-19 33c203 139 271 301 271 649v1002c0 88 -19 111 -139 130v39h544v-39c-119 -19 -140 -42 -140 -130v-1016z" />
    <glyph glyph-name="K" unicode="&#x212a;" horiz-adv-x="1370" 
d="M459 163c0 -85 21 -105 133 -124v-39h-537v39c120 19 139 42 139 130v1106c0 88 -19 111 -139 130v39h537v-40c-112 -18 -133 -38 -133 -123v-510l129 1l341 406c138 163 136 211 1 227v39h413v-39c-109 -26 -191 -86 -342 -243c-83 -85 -162 -172 -232 -249l359 -595
c125 -206 176 -258 246 -281v-37h-349l-436 722l-130 1v-560z" />
    <glyph glyph-name="K" unicode="K" horiz-adv-x="1370" 
d="M459 163c0 -85 21 -105 133 -124v-39h-537v39c120 19 139 42 139 130v1106c0 88 -19 111 -139 130v39h537v-40c-112 -18 -133 -38 -133 -123v-510l129 1l341 406c138 163 136 211 1 227v39h413v-39c-109 -26 -191 -86 -342 -243c-83 -85 -162 -172 -232 -249l359 -595
c125 -206 176 -258 246 -281v-37h-349l-436 722l-130 1v-560z" />
    <glyph glyph-name="L" unicode="&#x216c;" horiz-adv-x="1137" 
d="M1080 0h-1025v39c120 19 139 42 139 130v1106c0 88 -19 111 -139 130v39h555v-39c-131 -18 -151 -46 -151 -143v-1216l172 7c273 12 365 79 429 361h37z" />
    <glyph glyph-name="L" unicode="L" horiz-adv-x="1137" 
d="M1080 0h-1025v39c120 19 139 42 139 130v1106c0 88 -19 111 -139 130v39h555v-39c-131 -18 -151 -46 -151 -143v-1216l172 7c273 12 365 79 429 361h37z" />
    <glyph glyph-name="M" unicode="&#x216f;" horiz-adv-x="1797" 
d="M479 1444l433 -1171l391 1171h414v-39c-114 -18 -136 -42 -134 -130l36 -1106c3 -91 21 -113 140 -130v-39h-538v39c114 16 137 38 134 128l-34 1112l-353 -973l-107 -306h-114l-485 1292l-10 -1038c-3 -159 15 -196 142 -215v-39h-375v39c124 18 145 56 152 213l38 992
c4 105 -25 142 -131 161v39h401z" />
    <glyph glyph-name="M" unicode="M" horiz-adv-x="1797" 
d="M479 1444l433 -1171l391 1171h414v-39c-114 -18 -136 -42 -134 -130l36 -1106c3 -91 21 -113 140 -130v-39h-538v39c114 16 137 38 134 128l-34 1112l-353 -973l-107 -306h-114l-485 1292l-10 -1038c-3 -159 15 -196 142 -215v-39h-375v39c124 18 145 56 152 213l38 992
c4 105 -25 142 -131 161v39h401z" />
    <glyph glyph-name="N" unicode="N" horiz-adv-x="1456" 
d="M451 1444l775 -1164l-20 902c-3 168 -21 206 -151 223v39h379v-39c-125 -19 -143 -57 -146 -223l-11 -1182h-193l-855 1283l18 -1021c2 -168 22 -206 151 -223v-39h-379v39c125 19 144 57 146 223l11 981c0 106 -29 139 -134 162v39h409z" />
    <glyph glyph-name="O" unicode="O" horiz-adv-x="1651" 
d="M91 721c0 414 290 745 732 745c388 0 737 -285 737 -742c0 -414 -291 -746 -733 -746c-387 0 -736 286 -736 743zM386 736c0 -404 171 -701 449 -701c306 0 430 285 430 674c0 404 -172 700 -448 700c-307 0 -431 -284 -431 -673z" />
    <glyph glyph-name="P" unicode="P" horiz-adv-x="1290" 
d="M1218 1029c0 -296 -276 -442 -621 -442h-138v-404c0 -97 20 -126 151 -144v-39h-555v39c120 19 139 42 139 130v1106c0 88 -19 111 -139 130v39h542c395 0 621 -146 621 -415zM936 1016c0 216 -121 368 -391 379l-86 3v-765l86 3c266 11 391 161 391 380z" />
    <glyph glyph-name="Q" unicode="Q" horiz-adv-x="1651" 
d="M91 721c0 414 290 745 733 745c387 0 736 -285 736 -742c0 -340 -197 -625 -512 -715l109 -87c167 -132 280 -169 397 -150v-36c-71 -57 -166 -93 -266 -93c-124 0 -217 45 -390 196l-167 145c-347 43 -640 318 -640 737zM386 736c0 -404 172 -701 449 -701
c305 0 429 285 430 674c1 404 -172 700 -450 700c-305 0 -429 -284 -429 -673z" />
    <glyph glyph-name="R" unicode="R" horiz-adv-x="1348" 
d="M1199 1060c0 -174 -123 -298 -293 -339l208 -415c112 -214 156 -251 215 -269v-37h-331l-334 667h-205v-504c0 -83 21 -104 133 -124v-39h-537v39c120 22 139 43 139 130v1106c0 91 -19 112 -139 130v39h554c392 0 590 -149 590 -384zM931 1044c0 196 -107 341 -375 351
l-97 3v-686l121 5c215 7 351 119 351 327z" />
    <glyph glyph-name="S" unicode="S" horiz-adv-x="1172" 
d="M562 -22c-204 0 -363 48 -454 106l-14 348h36c58 -263 230 -397 433 -397c176 0 296 104 296 264c0 143 -88 231 -282 303l-111 39c-235 85 -363 222 -363 424c0 258 218 401 513 401c180 0 314 -42 382 -91l12 -321h-37c-52 227 -178 355 -359 355
c-185 0 -285 -97 -285 -238c0 -143 100 -223 284 -290l108 -40c241 -89 365 -229 365 -434c0 -263 -236 -429 -524 -429z" />
    <glyph glyph-name="T" unicode="T" horiz-adv-x="1307" 
d="M1251 1444l15 -359h-37c-49 232 -132 292 -390 310l-53 3v-1215c0 -97 20 -126 151 -144v-39h-566v39c130 18 150 47 150 144v1215l-54 -3c-256 -18 -340 -76 -389 -310h-37l14 359h1196z" />
    <glyph glyph-name="U" unicode="U" horiz-adv-x="1468" 
d="M164 1281c0 85 -21 105 -132 124v39h537v-39c-120 -19 -140 -42 -140 -130v-712c0 -338 168 -492 404 -492c245 0 408 182 404 488l-9 624c-3 165 -22 202 -152 222v39h372v-40c-119 -17 -138 -56 -141 -220l-9 -637c-5 -342 -196 -569 -556 -569
c-304 0 -578 167 -578 583v720z" />
    <glyph glyph-name="V" unicode="&#x2164;" horiz-adv-x="1374" 
d="M180 1196c-56 155 -91 192 -192 209v39h575v-39c-128 -17 -152 -62 -101 -213l328 -953l306 918c61 183 46 227 -97 248v39h387v-39c-105 -17 -138 -54 -210 -253l-419 -1152h-151z" />
    <glyph glyph-name="V" unicode="V" horiz-adv-x="1374" 
d="M180 1196c-56 155 -91 192 -192 209v39h575v-39c-128 -17 -152 -62 -101 -213l328 -953l306 918c61 183 46 227 -97 248v39h387v-39c-105 -17 -138 -54 -210 -253l-419 -1152h-151z" />
    <glyph glyph-name="W" unicode="W" horiz-adv-x="2139" 
d="M176 1196c-51 163 -92 194 -187 209v39h573v-39c-131 -17 -148 -61 -106 -209l276 -934l261 924c48 168 31 197 -101 219v39h539v-39c-123 -18 -134 -48 -88 -207l268 -938l257 898c52 183 40 227 -101 247v39h385v-39c-105 -17 -139 -54 -203 -252l-369 -1153h-149
l-359 1187l-369 -1187h-148z" />
    <glyph glyph-name="X" unicode="&#x2169;" horiz-adv-x="1364" 
d="M283 294l273 399l-330 524c-79 127 -117 163 -207 188v39h563v-39c-134 -21 -138 -56 -62 -179l258 -410l218 352c107 175 105 216 -37 237v39h388v-39c-101 -17 -147 -55 -277 -246l-265 -387l343 -546c80 -128 124 -162 215 -187v-39h-571v39c130 22 133 66 62 179
l-270 430l-229 -367c-109 -180 -107 -221 35 -242v-39h-389v39c102 17 147 55 282 255z" />
    <glyph glyph-name="X" unicode="X" horiz-adv-x="1364" 
d="M283 294l273 399l-330 524c-79 127 -117 163 -207 188v39h563v-39c-134 -21 -138 -56 -62 -179l258 -410l218 352c107 175 105 216 -37 237v39h388v-39c-101 -17 -147 -55 -277 -246l-265 -387l343 -546c80 -128 124 -162 215 -187v-39h-571v39c130 22 133 66 62 179
l-270 430l-229 -367c-109 -180 -107 -221 35 -242v-39h-389v39c102 17 147 55 282 255z" />
    <glyph glyph-name="Y" unicode="Y" horiz-adv-x="1331" 
d="M216 1200c-96 161 -131 189 -222 205v39h567v-39c-122 -18 -142 -61 -58 -208l271 -471l238 438c96 178 86 222 -51 241v39h376v-39c-96 -18 -135 -54 -250 -246l-289 -481v-495c0 -97 20 -126 151 -144v-39h-566v39c130 18 151 47 151 144v479z" />
    <glyph glyph-name="Z" unicode="Z" horiz-adv-x="1261" 
d="M1170 0h-1094v37l798 1361l-265 -9c-347 -12 -423 -74 -478 -304h-36l18 359h1055v-37l-798 -1361l291 10c334 14 428 67 489 341h37z" />
    <glyph glyph-name="bracketleft" unicode="[" horiz-adv-x="680" 
d="M185 -285v1870l422 -5v-41l-213 -9v-1760l213 -9v-41z" />
    <glyph glyph-name="backslash" unicode="\" horiz-adv-x="680" 
d="M544 -280l-498 1860h90l498 -1860h-90z" />
    <glyph glyph-name="bracketright" unicode="]" horiz-adv-x="680" 
d="M494 1585v-1870l-421 5v41l212 9v1760l-212 9v41z" />
    <glyph glyph-name="asciicircum" unicode="^" horiz-adv-x="1150" 
d="M555 1444h39l419 -572l-56 -50l-383 524l-384 -523l-53 49z" />
    <glyph glyph-name="underscore" unicode="_" horiz-adv-x="1024" 
d="M26 -321v82h972v-82h-972z" />
    <glyph glyph-name="grave" unicode="`" horiz-adv-x="1024" 
d="M574 1093l-351 353v7h261l140 -360h-50z" />
    <glyph glyph-name="a" unicode="a" horiz-adv-x="1066" 
d="M362 -19c-165 0 -284 97 -284 241c0 149 111 243 395 303l200 42v105c0 188 -94 258 -246 258c-70 0 -135 -17 -184 -48c59 -3 108 -52 108 -116c0 -65 -53 -115 -120 -115c-65 0 -119 49 -119 115c0 129 165 229 402 229c241 0 397 -96 397 -312v-499
c0 -87 43 -123 102 -123c16 0 31 3 42 6v-36c-34 -24 -97 -45 -170 -45c-106 0 -189 52 -208 151c-42 -90 -164 -156 -315 -156zM321 262c0 -116 75 -182 173 -182c81 0 143 32 179 93v347l-94 -21c-196 -44 -258 -119 -258 -237z" />
    <glyph glyph-name="b" unicode="b" horiz-adv-x="1193" 
d="M1111 497c0 -317 -210 -515 -468 -515c-132 0 -235 60 -278 142l-111 -124h-111v1303c0 57 -6 69 -61 88l-57 17v36l362 42v-675c52 112 177 184 321 184c216 0 403 -180 403 -498zM859 471c0 258 -112 415 -269 415c-94 0 -163 -40 -203 -111v-616
c30 -59 103 -106 189 -106c170 0 283 161 283 418z" />
    <glyph glyph-name="c" unicode="c" horiz-adv-x="999" 
d="M573 -19c-279 0 -491 201 -491 507c0 293 218 507 515 507c223 0 340 -109 340 -233c0 -71 -54 -123 -119 -123c-67 0 -119 53 -119 119s51 118 114 118c5 0 10 0 14 -1c-41 34 -100 54 -170 54c-197 0 -322 -158 -322 -393c0 -280 162 -444 365 -444
c106 0 191 38 245 93v-41c-66 -96 -203 -163 -372 -163z" />
    <glyph glyph-name="d" unicode="d" horiz-adv-x="1209" 
d="M82 480c0 316 208 515 464 515c120 0 215 -49 259 -123v431c0 57 -7 69 -62 88l-56 17v36l362 42v-1314c0 -58 7 -70 63 -89l56 -16v-36l-360 -41v178c-52 -113 -177 -187 -323 -187c-216 0 -403 181 -403 499zM334 505c0 -256 112 -415 268 -415c95 0 164 42 203 113
v616c-28 60 -104 105 -190 105c-168 0 -281 -161 -281 -419z" />
    <glyph glyph-name="e" unicode="e" horiz-adv-x="1045" 
d="M82 488c0 294 186 507 476 507c260 0 413 -166 413 -406c0 -21 -3 -44 -5 -58h-638c14 -268 163 -441 379 -441c108 0 192 40 245 95l1 -39c-66 -99 -204 -165 -376 -165c-283 0 -495 200 -495 507zM557 941c-144 0 -230 -133 -230 -364l418 4c1 15 2 32 2 53
c0 179 -62 307 -190 307z" />
    <glyph glyph-name="f" unicode="f" horiz-adv-x="674" 
d="M411 152c0 -77 15 -96 131 -113v-39h-493v39c104 16 119 34 119 102v760h-119v31l119 44v169c0 229 132 350 324 350c150 0 225 -75 225 -167c0 -56 -44 -99 -98 -99c-56 0 -100 43 -100 99c0 52 36 90 81 97c-15 6 -33 10 -52 10c-88 0 -137 -63 -137 -208v-262l249 12
v-76l-249 13v-762z" />
    <glyph glyph-name="g" unicode="g" horiz-adv-x="1085" 
d="M92 666c0 200 193 329 432 329c80 0 152 -15 210 -37l331 20v-75l-276 17c103 -43 168 -134 168 -248c0 -201 -199 -323 -429 -323c-37 0 -73 4 -115 11c-79 -17 -124 -55 -124 -111c0 -64 59 -97 174 -97h171c255 0 391 -101 391 -283c-1 -217 -230 -358 -499 -358
c-285 0 -473 95 -473 241c0 109 106 190 333 208c-167 0 -285 73 -284 191c0 115 104 194 272 220c-162 32 -282 134 -282 295zM332 676c0 -167 76 -278 196 -278c118 0 190 104 190 269c0 164 -71 279 -196 279c-122 0 -190 -106 -190 -270zM257 -230
c0 -118 102 -205 274 -205c176 0 299 83 299 216c0 107 -69 169 -229 169h-172c-115 -15 -172 -83 -172 -180z" />
    <glyph glyph-name="h" unicode="h" horiz-adv-x="1225" 
d="M410 1486v-671c54 107 173 180 326 180c197 0 334 -100 334 -308v-543c0 -70 14 -88 118 -105v-39h-471v39c96 15 109 32 109 99v516c0 156 -76 232 -209 232c-96 0 -169 -44 -207 -109v-639c0 -67 13 -83 109 -99v-39h-471v39c102 17 119 35 119 105v1159
c0 57 -7 69 -63 88l-56 17v36z" />
    <glyph glyph-name="i" unicode="i" horiz-adv-x="569" 
d="M270 1149c-75 0 -135 57 -135 129c0 74 60 130 135 130s135 -56 135 -130c0 -72 -60 -129 -135 -129zM410 988v-844c0 -70 18 -88 119 -105v-39h-481v39c102 17 119 35 119 105v661c0 57 -7 70 -63 88l-56 17v36z" />
    <glyph glyph-name="j" unicode="j" horiz-adv-x="547" 
d="M260 1149c-74 0 -135 57 -135 129c0 74 61 130 135 130c75 0 136 -56 136 -130c0 -72 -61 -129 -136 -129zM401 988v-811c0 -319 -87 -434 -354 -610l-62 -42l-24 33c157 137 197 274 197 577v670c0 57 -8 70 -63 88l-56 17v36z" />
    <glyph glyph-name="k" unicode="k" horiz-adv-x="1118" 
d="M808 0l-291 496l-107 2v-360c0 -67 13 -83 109 -99v-39h-471v39c102 17 119 35 119 105v1159c0 57 -7 69 -63 88l-56 17v36l362 42v-940l106 3l220 241c82 88 74 127 -40 147v40h382v-40c-105 -23 -157 -53 -297 -179l-96 -89l254 -434c83 -145 128 -183 190 -198v-37
h-321z" />
    <glyph glyph-name="l" unicode="l" horiz-adv-x="571" 
d="M410 1486v-1342c0 -70 18 -88 119 -105v-39h-481v39c102 17 119 35 119 105v1159c0 57 -7 69 -63 88l-56 17v36z" />
    <glyph glyph-name="m" unicode="m" horiz-adv-x="1844" 
d="M408 988v-172c59 110 175 179 326 179s259 -63 298 -186c59 117 184 186 333 186c192 0 324 -101 324 -309v-542c0 -70 17 -88 119 -105v-39h-471v39c96 16 109 32 109 99v516c0 155 -72 232 -200 232c-91 0 -162 -36 -206 -104c6 -27 10 -57 10 -89v-555
c0 -67 12 -83 109 -99v-39h-462v39c97 16 109 32 109 99v516c0 155 -70 232 -196 232c-91 0 -156 -37 -200 -107v-641c0 -67 13 -84 109 -99v-39h-471v39c102 17 119 35 119 105v661c0 57 -7 70 -63 88l-56 17v36z" />
    <glyph glyph-name="n" unicode="n" horiz-adv-x="1225" 
d="M408 988v-175c53 107 174 182 328 182c197 0 334 -100 334 -308v-543c0 -70 14 -88 118 -105v-39h-471v39c96 15 109 32 109 99v516c0 156 -76 232 -209 232c-96 0 -169 -44 -207 -109v-639c0 -67 13 -83 109 -99v-39h-471v39c102 17 119 35 119 105v661
c0 57 -7 70 -63 88l-56 17v36z" />
    <glyph glyph-name="o" unicode="o" horiz-adv-x="1199" 
d="M597 -19c-290 0 -515 198 -515 505c0 301 227 509 521 509c289 0 515 -198 515 -504c0 -300 -228 -510 -521 -510zM603 36c160 0 252 173 252 444c0 280 -103 461 -259 461c-160 0 -252 -173 -252 -444c0 -280 103 -461 259 -461z" />
    <glyph glyph-name="p" unicode="p" horiz-adv-x="1206" 
d="M1125 497c0 -315 -210 -516 -466 -516c-120 0 -215 51 -258 124v-413c0 -77 15 -96 131 -113v-39h-493v39c104 16 119 34 119 102v1124c0 57 -8 70 -63 88l-56 17v36l360 42v-180c50 112 174 187 321 187c217 0 405 -183 405 -498zM873 471c0 254 -112 415 -270 415
c-94 0 -162 -40 -202 -112v-616c29 -60 105 -105 190 -105c169 0 282 165 282 418z" />
    <glyph glyph-name="q" unicode="q" horiz-adv-x="1193" 
d="M82 480c0 317 210 516 467 516c133 0 234 -61 278 -142l111 123h111v-1296c0 -68 15 -86 119 -102v-39h-493v39c115 17 130 36 130 113l3 477c-52 -114 -177 -187 -323 -187c-216 0 -403 181 -403 498zM334 506c0 -257 112 -415 268 -415c95 0 164 41 203 112v616
c-29 58 -102 105 -188 105c-170 0 -283 -161 -283 -418z" />
    <glyph glyph-name="r" unicode="r" horiz-adv-x="833" 
d="M408 988v-237c108 163 190 240 279 240c77 0 111 -55 111 -120c0 -34 -10 -67 -21 -84c-22 7 -68 14 -114 14c-100 0 -204 -31 -253 -80v-569c0 -77 15 -96 131 -113v-39h-493v39c104 16 119 34 119 102v664c0 57 -8 70 -63 88l-56 17v36z" />
    <glyph glyph-name="s" unicode="s" horiz-adv-x="917" 
d="M89 701c0 187 164 294 398 294c140 0 247 -30 297 -60l5 -253h-38c-33 167 -133 258 -262 258c-123 0 -194 -62 -194 -151c0 -88 67 -132 186 -171l78 -25c179 -57 279 -152 279 -312c0 -189 -189 -298 -402 -298c-144 0 -275 33 -343 78l-11 272h37
c40 -188 175 -296 314 -296c122 0 199 68 199 160c0 90 -55 142 -181 182l-78 26c-178 57 -284 145 -284 296z" />
    <glyph glyph-name="t" unicode="t" horiz-adv-x="678" 
d="M158 272v629h-121v31l339 257h24v-225l255 13v-76l-255 13v-642c0 -138 63 -189 150 -189c47 0 91 17 119 43v-39c-36 -55 -129 -106 -244 -106c-152 0 -267 85 -267 291z" />
    <glyph glyph-name="u" unicode="u" horiz-adv-x="1199" 
d="M390 988v-662c0 -158 73 -236 206 -236c92 0 163 45 200 109v606c0 57 -7 70 -62 88l-57 17v36l362 42v-816c0 -58 8 -70 63 -89l56 -16v-36l-360 -41v174c-54 -108 -171 -183 -325 -183c-193 0 -327 101 -327 312v512c0 57 -8 70 -62 88l-56 17v36z" />
    <glyph glyph-name="v" unicode="v" horiz-adv-x="1022" 
d="M151 777c-46 118 -73 144 -155 160v40h515v-40c-119 -17 -136 -45 -89 -183l183 -528l182 523c48 142 29 171 -87 188v40h326v-40c-83 -16 -109 -43 -170 -197l-288 -740h-116z" />
    <glyph glyph-name="w" unicode="w" horiz-adv-x="1620" 
d="M153 777c-42 120 -75 143 -157 160v40h498v-40c-107 -15 -118 -46 -78 -183l157 -512l167 513c43 136 29 167 -72 182v40h468v-40c-102 -14 -116 -46 -74 -183l163 -512l162 507c44 142 27 172 -78 188v40h314v-40c-81 -15 -111 -41 -167 -196l-266 -741h-114l-265 753
l-273 -753h-114z" />
    <glyph glyph-name="x" unicode="x" horiz-adv-x="1021" 
d="M161 811c-59 86 -93 114 -158 126v40h495v-40c-117 -10 -129 -43 -62 -145l152 -223l149 225c66 104 50 127 -61 143v40h335v-40c-89 -20 -123 -47 -205 -160l-187 -253l243 -355c60 -88 95 -116 162 -130v-39h-499v39c117 11 130 43 61 149l-156 229l-150 -228
c-68 -108 -46 -134 57 -150v-39h-338v39c93 23 128 51 214 168l187 254z" />
    <glyph glyph-name="y" unicode="y" horiz-adv-x="1019" 
d="M153 777c-49 120 -76 144 -157 160v40h510v-40c-117 -16 -133 -45 -85 -177l182 -498l178 492c49 137 31 166 -86 183v40h328v-40c-83 -16 -111 -42 -172 -193l-208 -512l-102 -249l-155 -443h-191v3c90 101 212 292 286 440z" />
    <glyph glyph-name="z" unicode="z" horiz-adv-x="909" 
d="M73 977h778v-37l-530 -895l211 8c184 8 250 59 288 271h37l-7 -324h-798v36l528 896l-174 -7c-202 -12 -263 -61 -305 -244h-37z" />
    <glyph glyph-name="braceleft" unicode="{" horiz-adv-x="680" 
d="M432 989c0 -209 -96 -313 -319 -337c220 -26 319 -129 319 -337v-274c0 -169 30 -281 197 -281v-40h-40c-241 0 -364 122 -364 356v338c0 157 -83 220 -196 220v35c113 0 196 64 196 218v337c0 234 123 356 364 356h40v-40c-167 0 -197 -112 -197 -280v-271z" />
    <glyph glyph-name="bar" unicode="|" horiz-adv-x="680" 
d="M295 -280v1860h90v-1860h-90z" />
    <glyph glyph-name="braceright" unicode="}" horiz-adv-x="680" 
d="M246 989v271c0 168 -28 280 -195 280v40h39c242 0 365 -122 365 -356v-337c0 -154 83 -218 195 -218v-35c-112 0 -195 -63 -195 -220v-338c0 -234 -123 -356 -365 -356h-39v40c167 0 195 112 195 281v274c0 208 101 311 320 337c-222 24 -320 128 -320 337z" />
    <glyph glyph-name="asciitilde" unicode="&#x223c;" horiz-adv-x="1150" 
d="M843 486c99 0 170 76 172 253h69c0 -226 -99 -331 -244 -331c-186 0 -346 253 -508 253c-98 0 -169 -75 -171 -253h-69c0 226 98 331 244 331c186 0 346 -253 507 -253z" />
    <glyph glyph-name="asciitilde" unicode="~" horiz-adv-x="1150" 
d="M843 486c99 0 170 76 172 253h69c0 -226 -99 -331 -244 -331c-186 0 -346 253 -508 253c-98 0 -169 -75 -171 -253h-69c0 226 98 331 244 331c186 0 346 -253 507 -253z" />
    <glyph glyph-name="exclamdown" unicode="&#xa1;" horiz-adv-x="644" 
d="M323 957c74 0 136 -60 136 -134c0 -75 -62 -135 -136 -135s-135 60 -135 135c0 74 61 134 135 134zM322 -520c-84 0 -138 65 -138 161c0 101 21 242 55 437l69 433h30l69 -434c33 -196 54 -335 54 -436c0 -96 -55 -161 -139 -161z" />
    <glyph glyph-name="cent" unicode="&#xa2;" horiz-adv-x="1008" 
d="M604 0h-39v215c-275 3 -483 203 -483 504c0 284 201 492 483 509v216h39v-215c217 -1 344 -98 344 -224c0 -68 -53 -119 -117 -119c-67 0 -118 52 -118 118c0 65 51 114 112 114c-43 31 -101 49 -167 49c-19 0 -37 -2 -54 -5v-824c30 -8 62 -13 96 -13
c109 0 198 38 254 94l1 -40c-64 -92 -191 -156 -351 -163v-216zM332 770c0 -216 96 -362 233 -419v803c-144 -43 -233 -187 -233 -384z" />
    <glyph glyph-name="sterling" unicode="&#xa3;" horiz-adv-x="1154" 
d="M121 738h191c-51 99 -105 202 -105 331c0 274 228 396 460 396c211 0 364 -98 364 -244c0 -67 -54 -118 -118 -118c-66 0 -117 51 -117 116c0 66 50 115 111 115c3 0 7 -1 11 -1c-46 41 -116 67 -196 67c-156 0 -264 -88 -264 -271c0 -139 71 -263 112 -391h304v-39h-292
c11 -42 19 -84 19 -128c0 -167 -128 -300 -308 -368h743l-1 -203h-896v159c161 65 256 184 256 325c0 75 -29 145 -64 215h-210v39z" />
    <glyph glyph-name="currency" unicode="&#xa4;" horiz-adv-x="1154" 
d="M576 188c-90 0 -172 30 -238 81l-150 -155l-56 55l150 155c-57 67 -91 154 -91 249c0 96 35 183 91 250l-150 156l56 54l151 -155c65 51 147 81 237 81c91 0 174 -30 239 -82l151 156l56 -54l-150 -157c56 -67 90 -154 90 -249s-34 -182 -90 -248l150 -156l-56 -55
l-151 156c-65 -51 -148 -82 -239 -82zM576 260c171 0 308 136 308 313c0 178 -137 313 -308 313c-170 0 -308 -135 -308 -313c0 -177 138 -313 308 -313z" />
    <glyph glyph-name="yen" unicode="&#xa5;" horiz-adv-x="1154" 
d="M113 487h341v240h-341v39h320l-239 434c-91 165 -133 190 -222 205v39h543v-39c-119 -18 -133 -57 -58 -199l216 -413l196 380c93 179 73 215 -58 232v39h369v-39c-102 -18 -140 -49 -245 -236l-227 -403h328v-39h-340v-240h340v-39h-340v-265c0 -97 20 -126 150 -144
v-39h-543v39c131 18 151 47 151 144v265h-341v39z" />
    <glyph glyph-name="brokenbar" unicode="&#xa6;" horiz-adv-x="680" 
d="M295 789v791h90v-791h-90zM295 -280v791h90v-791h-90z" />
    <glyph glyph-name="section" unicode="&#xa7;" horiz-adv-x="1031" 
d="M98 588c0 161 140 271 314 271c17 1 34 -1 51 -3c-189 88 -288 177 -288 327c0 176 160 284 375 284c129 0 232 -31 280 -63l4 -226h-37c-33 157 -123 235 -246 235c-121 0 -188 -64 -188 -162c-2 -102 71 -156 204 -220l83 -41c197 -91 291 -185 291 -342
c0 -166 -148 -269 -319 -269c-13 0 -28 2 -45 4c175 -85 272 -187 272 -335c0 -188 -178 -296 -377 -296c-133 0 -241 35 -314 82l-9 242h37c39 -174 144 -268 284 -268c125 0 191 72 191 178c0 101 -57 157 -192 222l-83 40c-188 89 -288 175 -288 340zM758 583
c0 80 -48 149 -154 205c-60 32 -102 43 -147 43c-101 0 -177 -73 -177 -177c0 -80 50 -148 156 -203c59 -32 101 -43 146 -43c101 0 176 71 176 175z" />
    <glyph glyph-name="dieresis" unicode="&#xa8;" horiz-adv-x="1024" 
d="M300 1162c-67 0 -121 51 -121 116c0 66 54 116 121 116s121 -50 121 -116c0 -65 -54 -116 -121 -116zM724 1162c-67 0 -121 51 -121 116c0 66 54 116 121 116s121 -50 121 -116c0 -65 -54 -116 -121 -116z" />
    <glyph glyph-name="copyright" unicode="&#xa9;" horiz-adv-x="1673" 
d="M836 -22c-409 0 -745 336 -745 745s336 745 745 745c410 0 746 -336 746 -745s-336 -745 -746 -745zM836 17c384 0 701 318 701 706s-316 706 -701 706s-701 -318 -701 -706s317 -706 701 -706zM496 725c0 235 173 364 387 364c108 0 184 -19 223 -46l6 -188h-23
c-26 118 -93 199 -197 199c-136 0 -217 -128 -217 -322c0 -180 77 -340 218 -340c97 0 170 74 198 204h23l-6 -190c-37 -26 -124 -49 -223 -49c-221 0 -389 139 -389 368z" />
    <glyph glyph-name="a.sups" unicode="&#xaa;" horiz-adv-x="652" 
d="M216 867c-92 0 -156 51 -156 125c0 76 61 128 221 159l109 22v50c0 92 -48 128 -130 128c-29 0 -56 -5 -78 -15c29 -8 50 -34 50 -67c0 -41 -32 -72 -75 -72c-42 0 -76 30 -76 70c0 71 93 127 236 127c147 0 236 -53 236 -173v-239c0 -42 23 -61 53 -61c8 0 16 1 22 3
v-27c-22 -15 -61 -27 -106 -27c-63 0 -117 29 -128 83c-22 -51 -91 -86 -178 -86zM224 1018c0 -54 35 -84 82 -84c38 0 68 15 84 42v165l-42 -9c-92 -20 -124 -56 -124 -114z" />
    <glyph glyph-name="guillemetleft" unicode="&#xab;" horiz-adv-x="973" 
d="M53 494v18l416 396h60l-263 -402l263 -408h-60zM434 494v18l416 396h60l-263 -402l263 -408h-60z" />
    <glyph glyph-name="logicalnot" unicode="&#xac;" horiz-adv-x="1154" 
d="M116 532v79h923v-501h-79v422h-844z" />
    <glyph glyph-name="registered" unicode="&#xae;" horiz-adv-x="1673" 
d="M836 -22c-409 0 -745 336 -745 745s336 745 745 745c410 0 746 -336 746 -745s-336 -745 -746 -745zM836 17c384 0 701 318 701 706s-316 706 -701 706s-701 -318 -701 -706s317 -706 701 -706zM1123 890c0 -85 -60 -143 -141 -162l101 -209c50 -98 71 -117 98 -126v-25
h-189l-155 326h-86v-239c0 -40 10 -51 63 -61v-26h-292v26c56 10 67 22 67 65v528c0 44 -11 56 -67 65v26h303c201 0 297 -74 298 -188zM962 882c0 92 -51 160 -170 165l-41 1v-325l50 2c96 4 161 59 161 157z" />
    <glyph glyph-name="macron" unicode="&#xaf;" horiz-adv-x="1024" 
d="M233 1198v136h558v-136h-558z" />
    <glyph glyph-name="degree" unicode="&#xb0;" horiz-adv-x="727" 
d="M363 850c-152 0 -276 118 -276 272c0 152 124 271 276 271s276 -119 276 -271c0 -154 -124 -272 -276 -272zM363 908c114 0 209 91 209 214c0 122 -95 213 -209 213s-209 -91 -209 -213c0 -123 95 -214 209 -214z" />
    <glyph glyph-name="plusminus" unicode="&#xb1;" horiz-adv-x="1154" 
d="M537 274v341h-421v79h421v340h79v-340h423v-79h-423v-341h-79zM116 110v80h923v-80h-923z" />
    <glyph glyph-name="two.sups" unicode="&#xb2;" horiz-adv-x="637" 
d="M556 898h-490v119l100 88c154 137 206 207 206 298c0 79 -52 131 -137 131c-82 0 -142 -37 -169 -89v29c26 101 117 168 255 168c132 0 222 -80 222 -195c0 -120 -85 -204 -305 -343l-115 -72h434z" />
    <glyph glyph-name="three.sups" unicode="&#xb3;" horiz-adv-x="673" 
d="M302 885c-146 0 -238 73 -238 158c0 41 33 73 74 73c40 0 72 -31 72 -70s-32 -69 -70 -69h-3c28 -24 69 -39 114 -39c95 0 161 60 161 154c0 104 -81 171 -228 171v30c152 17 214 70 214 139c0 62 -50 103 -135 103c-78 0 -143 -33 -174 -85v29c29 96 122 164 258 164
c132 0 217 -67 217 -170c0 -85 -70 -144 -170 -159c117 -16 190 -96 190 -204c0 -144 -129 -225 -282 -225z" />
    <glyph glyph-name="acute" unicode="&#xb4;" horiz-adv-x="1024" 
d="M450 1093h-50l146 360h251v-7z" />
    <glyph glyph-name="mu.grek" unicode="&#x3bc;" horiz-adv-x="1178" 
d="M138 -460v571c0 323 -2 527 -4 866h249c-12 -208 -18 -411 -18 -599c0 -194 92 -278 218 -278c88 0 155 39 187 114l-9 763h251c-12 -371 -18 -559 -18 -709c0 -134 37 -178 109 -178c25 0 44 6 56 15v-38c-40 -47 -109 -80 -190 -80c-107 0 -179 67 -190 186
c-30 -107 -131 -191 -264 -191c-62 0 -118 16 -162 45c4 -174 15 -351 31 -487h-246z" />
    <glyph glyph-name="mu.grek" unicode="&#xb5;" horiz-adv-x="1178" 
d="M138 -460v571c0 323 -2 527 -4 866h249c-12 -208 -18 -411 -18 -599c0 -194 92 -278 218 -278c88 0 155 39 187 114l-9 763h251c-12 -371 -18 -559 -18 -709c0 -134 37 -178 109 -178c25 0 44 6 56 15v-38c-40 -47 -109 -80 -190 -80c-107 0 -179 67 -190 186
c-30 -107 -131 -191 -264 -191c-62 0 -118 16 -162 45c4 -174 15 -351 31 -487h-246z" />
    <glyph glyph-name="paragraph" unicode="&#xb6;" horiz-adv-x="1238" 
d="M632 -220v793h-82c-215 0 -473 154 -473 450c0 285 243 421 473 421h148v-1664h-66zM921 1444h249v-39c-153 -13 -183 -35 -183 -151v-1474h-66v1664z" />
    <glyph glyph-name="middledot" unicode="&#x2e31;" horiz-adv-x="491" 
d="M245 430c-77 0 -142 63 -142 142s65 142 142 142c79 0 143 -63 143 -142s-64 -142 -143 -142z" />
    <glyph glyph-name="middledot" unicode="&#x2027;" horiz-adv-x="491" 
d="M245 430c-77 0 -142 63 -142 142s65 142 142 142c79 0 143 -63 143 -142s-64 -142 -143 -142z" />
    <glyph glyph-name="middledot" unicode="&#xb7;" horiz-adv-x="491" 
d="M245 430c-77 0 -142 63 -142 142s65 142 142 142c79 0 143 -63 143 -142s-64 -142 -143 -142z" />
    <glyph glyph-name="cedilla" unicode="&#xb8;" horiz-adv-x="1024" 
d="M489 -451c-87 0 -163 34 -198 88v39c27 -23 71 -40 119 -40c58 0 103 29 103 79c0 52 -45 81 -105 81c-21 0 -41 -4 -49 -9v34l149 200h35v-21l-90 -125c15 5 33 8 53 8c109 -1 196 -64 196 -166c0 -109 -103 -168 -213 -168z" />
    <glyph glyph-name="one.sups" unicode="&#xb9;" horiz-adv-x="578" 
d="M378 1632v-623c0 -56 21 -72 108 -83v-28h-385v28c88 10 110 27 110 83v505l-115 -30v26c46 23 164 97 199 122h83z" />
    <glyph glyph-name="o.sups" unicode="&#xba;" horiz-adv-x="717" 
d="M357 867c-169 0 -294 102 -294 262c0 156 127 265 297 265c169 0 295 -102 295 -261c0 -157 -129 -266 -298 -266zM360 906c76 0 117 83 117 220c0 142 -47 230 -121 230c-76 0 -117 -84 -117 -221c0 -143 47 -229 121 -229z" />
    <glyph glyph-name="guillemetright" unicode="&#xbb;" horiz-adv-x="973" 
d="M539 512v-17l-414 -397h-62l264 402l-264 408h62zM920 512v-17l-415 -397h-61l264 402l-264 408h61z" />
    <glyph glyph-name="onequarter" unicode="&#xbc;" horiz-adv-x="1388" 
d="M378 1445v-623c0 -56 21 -72 108 -83v-28h-385v28c88 10 110 27 110 83v505l-115 -30v26c46 23 164 97 199 122h83zM258 0l842 1444h76l-842 -1444h-76zM1083 0v162h-338v79l364 493h126v-459h114v-113h-113v-162h-153zM1083 275v365l-247 -365h247z" />
    <glyph glyph-name="onehalf" unicode="&#xbd;" horiz-adv-x="1454" 
d="M378 1445v-623c0 -56 21 -72 108 -83v-28h-385v28c88 10 110 27 110 83v505l-115 -30v26c46 23 164 97 199 122h83zM258 0l842 1444h76l-842 -1444h-76zM1373 0h-490v119l100 88c154 137 206 208 206 299c0 79 -52 130 -137 130c-83 0 -142 -37 -169 -89v30
c26 100 117 168 254 168c132 0 223 -80 223 -195c0 -121 -85 -204 -305 -344l-116 -72h435z" />
    <glyph glyph-name="threequarters" unicode="&#xbe;" horiz-adv-x="1443" 
d="M302 698c-146 0 -238 73 -238 158c0 41 33 73 74 73c40 0 72 -31 72 -70s-32 -69 -70 -69h-3c28 -24 69 -39 114 -39c95 0 161 60 161 154c0 104 -81 171 -228 171v30c152 17 214 70 214 139c0 62 -50 103 -135 103c-78 0 -143 -33 -174 -85v29c29 96 122 164 258 164
c132 0 217 -67 217 -170c0 -85 -70 -144 -170 -159c117 -16 190 -96 190 -204c0 -144 -129 -225 -282 -225zM313 0l842 1444h75l-841 -1444h-76zM1139 0v162h-338v79l363 493h127v-459h113v-113h-113v-162h-152zM1139 275v365l-247 -365h247z" />
    <glyph glyph-name="questiondown" unicode="&#xbf;" horiz-adv-x="721" 
d="M421 957c74 0 136 -60 136 -134s-62 -132 -136 -132c-75 0 -136 58 -136 132s61 134 136 134zM458 -522c-205 0 -373 170 -373 439c0 253 143 413 342 459l-8 127h35l64 -370c-248 -7 -372 -81 -370 -209c4 -162 188 -242 480 -242c6 -16 9 -36 9 -53
c0 -84 -62 -151 -179 -151z" />
    <glyph glyph-name="Agrave" unicode="&#xc0;" horiz-adv-x="1374" 
d="M762 1534l-333 270v5h261l121 -275h-49zM1194 248c56 -155 91 -192 192 -209v-39h-575v39c129 17 153 62 102 213l-89 257h-472l-74 -222c-61 -183 -45 -227 97 -248v-39h-387v39c105 17 139 54 210 253l419 1152h151zM371 566h434l-220 641z" />
    <glyph glyph-name="Aacute" unicode="&#xc1;" horiz-adv-x="1374" 
d="M637 1534l-50 1l128 275h252v-5zM1194 248c56 -155 91 -192 192 -209v-39h-575v39c129 17 153 62 102 213l-89 257h-472l-74 -222c-61 -183 -45 -227 97 -248v-39h-387v39c105 17 139 54 210 253l419 1152h151zM371 566h434l-220 641z" />
    <glyph glyph-name="Acircumflex" unicode="&#xc2;" horiz-adv-x="1374" 
d="M481 1534h-48l204 275h127l204 -275h-51l-217 142zM1194 248c56 -155 91 -192 192 -209v-39h-575v39c129 17 153 62 102 213l-89 257h-472l-74 -222c-61 -183 -45 -227 97 -248v-39h-387v39c105 17 139 54 210 253l419 1152h151zM371 566h434l-220 641z" />
    <glyph glyph-name="Atilde" unicode="&#xc3;" horiz-adv-x="1374" 
d="M798 1555c-52 0 -93 22 -143 56l-29 19c-35 25 -58 37 -87 37c-40 0 -66 -29 -70 -120h-45c-8 181 62 247 154 247c52 0 94 -21 144 -56l29 -19c36 -25 58 -36 87 -36c40 0 65 28 70 119h45c8 -181 -62 -247 -155 -247zM1194 248c56 -155 91 -192 192 -209v-39h-575v39
c129 17 153 62 102 213l-89 257h-472l-74 -222c-61 -183 -45 -227 97 -248v-39h-387v39c105 17 139 54 210 253l419 1152h151zM371 566h434l-220 641z" />
    <glyph glyph-name="Adieresis" unicode="&#xc4;" horiz-adv-x="1374" 
d="M531 1569c-58 0 -105 46 -105 103c0 58 47 103 105 103c59 0 105 -45 105 -103c0 -57 -46 -103 -105 -103zM847 1569c-59 0 -105 46 -105 103c0 58 46 103 105 103c58 0 105 -45 105 -103c0 -57 -47 -103 -105 -103zM1194 248c56 -155 91 -192 192 -209v-39h-575v39
c129 17 153 62 102 213l-89 257h-472l-74 -222c-61 -183 -45 -227 97 -248v-39h-387v39c105 17 139 54 210 253l419 1152h151zM371 566h434l-220 641z" />
    <glyph glyph-name="Aring" unicode="&#x212b;" horiz-adv-x="1374" 
d="M454 1721c0 102 106 167 235 167c128 0 235 -65 235 -167s-108 -165 -235 -165c-128 0 -235 63 -235 165zM603 1721c0 -74 34 -125 86 -125c50 0 85 51 85 125c0 73 -35 126 -85 126c-52 0 -86 -53 -86 -126zM1194 248c56 -155 91 -192 192 -209v-39h-575v39
c129 17 153 62 102 213l-89 257h-472l-74 -222c-61 -183 -45 -227 97 -248v-39h-387v39c105 17 139 54 210 253l419 1152h151zM371 566h434l-220 641z" />
    <glyph glyph-name="Aring" unicode="&#xc5;" horiz-adv-x="1374" 
d="M454 1721c0 102 106 167 235 167c128 0 235 -65 235 -167s-108 -165 -235 -165c-128 0 -235 63 -235 165zM603 1721c0 -74 34 -125 86 -125c50 0 85 51 85 125c0 73 -35 126 -85 126c-52 0 -86 -53 -86 -126zM1194 248c56 -155 91 -192 192 -209v-39h-575v39
c129 17 153 62 102 213l-89 257h-472l-74 -222c-61 -183 -45 -227 97 -248v-39h-387v39c105 17 139 54 210 253l419 1152h151zM371 566h434l-220 641z" />
    <glyph glyph-name="AE" unicode="&#xc6;" horiz-adv-x="1909" 
d="M1782 1444l16 -359h-37c-57 231 -141 292 -411 305l-178 8l4 -635l222 5c123 5 149 52 178 204h34l3 -465h-34c-29 151 -56 199 -181 204l-222 6l5 -671l212 9c285 15 364 73 419 342h37l-16 -397h-1034v39c112 18 132 38 132 124l-3 472h-439l-171 -344
c-92 -189 -69 -232 63 -252v-39h-396v39c101 18 147 52 251 254l593 1151h953zM864 1397l-348 -705h412l-4 705h-60z" />
    <glyph glyph-name="Ccedilla" unicode="&#xc7;" horiz-adv-x="1405" 
d="M91 731c0 473 339 735 756 735c230 0 380 -45 457 -99l13 -350h-37c-52 242 -195 392 -420 392c-296 0 -474 -262 -474 -662c0 -380 169 -712 479 -712c208 0 362 132 419 399h37l-12 -350c-68 -50 -230 -99 -420 -105l-78 -103c15 4 32 7 51 7c109 -1 196 -63 196 -166
c0 -109 -103 -168 -213 -168c-87 0 -163 34 -198 88v39c27 -23 71 -40 119 -40c58 0 103 29 103 79c0 52 -45 81 -105 81c-21 0 -41 -4 -49 -9v34l122 157c-425 8 -746 293 -746 753z" />
    <glyph glyph-name="Egrave" unicode="&#xc8;" horiz-adv-x="1229" 
d="M719 1534l-333 270v5h260l121 -275h-48zM1105 1444l15 -359h-37c-55 231 -144 293 -423 305l-201 8v-635l254 5c124 5 150 52 181 204h34v-465h-34c-29 151 -56 199 -181 204l-254 6v-671l237 9c295 14 380 73 436 342h38l-18 -397h-1097v39c120 19 139 42 139 130v1106
c0 88 -19 111 -139 130v39h1050z" />
    <glyph glyph-name="Eacute" unicode="&#xc9;" horiz-adv-x="1229" 
d="M594 1534l-50 1l128 275h251v-5zM1105 1444l15 -359h-37c-55 231 -144 293 -423 305l-201 8v-635l254 5c124 5 150 52 181 204h34v-465h-34c-29 151 -56 199 -181 204l-254 6v-671l237 9c295 14 380 73 436 342h38l-18 -397h-1097v39c120 19 139 42 139 130v1106
c0 88 -19 111 -139 130v39h1050z" />
    <glyph glyph-name="Ecircumflex" unicode="&#xca;" horiz-adv-x="1229" 
d="M437 1534h-47l203 275h127l204 -275h-50l-218 142zM1105 1444l15 -359h-37c-55 231 -144 293 -423 305l-201 8v-635l254 5c124 5 150 52 181 204h34v-465h-34c-29 151 -56 199 -181 204l-254 6v-671l237 9c295 14 380 73 436 342h38l-18 -397h-1097v39
c120 19 139 42 139 130v1106c0 88 -19 111 -139 130v39h1050z" />
    <glyph glyph-name="Edieresis" unicode="&#xcb;" horiz-adv-x="1229" 
d="M488 1569c-59 0 -105 46 -105 103c0 58 46 103 105 103c58 0 105 -45 105 -103c0 -57 -47 -103 -105 -103zM803 1569c-58 0 -105 46 -105 103c0 58 47 103 105 103c59 0 106 -45 106 -103c0 -57 -47 -103 -106 -103zM1105 1444l15 -359h-37c-55 231 -144 293 -423 305
l-201 8v-635l254 5c124 5 150 52 181 204h34v-465h-34c-29 151 -56 199 -181 204l-254 6v-671l237 9c295 14 380 73 436 342h38l-18 -397h-1097v39c120 19 139 42 139 130v1106c0 88 -19 111 -139 130v39h1050z" />
    <glyph glyph-name="Igrave" unicode="&#xcc;" horiz-adv-x="654" 
d="M400 1534l-332 270v5h260l121 -275h-49zM459 169c0 -88 21 -111 140 -130v-39h-544v39c120 19 139 42 139 130v1106c0 88 -19 111 -139 130v39h544v-39c-119 -19 -140 -42 -140 -130v-1106z" />
    <glyph glyph-name="Iacute" unicode="&#xcd;" horiz-adv-x="654" 
d="M275 1534l-50 1l129 275h251v-5zM459 169c0 -88 21 -111 140 -130v-39h-544v39c120 19 139 42 139 130v1106c0 88 -19 111 -139 130v39h544v-39c-119 -19 -140 -42 -140 -130v-1106z" />
    <glyph glyph-name="Icircumflex" unicode="&#xce;" horiz-adv-x="654" 
d="M119 1534h-48l204 275h127l204 -275h-50l-218 142zM459 169c0 -88 21 -111 140 -130v-39h-544v39c120 19 139 42 139 130v1106c0 88 -19 111 -139 130v39h544v-39c-119 -19 -140 -42 -140 -130v-1106z" />
    <glyph glyph-name="Idieresis" unicode="&#xcf;" horiz-adv-x="654" 
d="M169 1569c-58 0 -105 46 -105 103c0 58 47 103 105 103c59 0 105 -45 105 -103c0 -57 -46 -103 -105 -103zM485 1569c-58 0 -105 46 -105 103c0 58 47 103 105 103c59 0 105 -45 105 -103c0 -57 -46 -103 -105 -103zM459 169c0 -88 21 -111 140 -130v-39h-544v39
c120 19 139 42 139 130v1106c0 88 -19 111 -139 130v39h544v-39c-119 -19 -140 -42 -140 -130v-1106z" />
    <glyph glyph-name="Dstroke" unicode="&#x110;" horiz-adv-x="1540" 
d="M55 714v52h139v509c0 88 -19 111 -139 130v39h527c520 0 876 -246 876 -697c0 -484 -400 -747 -873 -747h-530v39c120 19 139 42 139 130v545h-139zM1165 726c1 395 -222 657 -615 669l-91 3v-632h296v-52h-296v-668l91 3c387 12 615 264 615 677z" />
    <glyph glyph-name="Dstroke" unicode="&#xd0;" horiz-adv-x="1540" 
d="M55 714v52h139v509c0 88 -19 111 -139 130v39h527c520 0 876 -246 876 -697c0 -484 -400 -747 -873 -747h-530v39c120 19 139 42 139 130v545h-139zM1165 726c1 395 -222 657 -615 669l-91 3v-632h296v-52h-296v-668l91 3c387 12 615 264 615 677z" />
    <glyph glyph-name="Ntilde" unicode="&#xd1;" horiz-adv-x="1456" 
d="M868 1555c-52 0 -93 22 -143 56l-29 19c-36 25 -59 37 -87 37c-41 0 -67 -29 -71 -120h-45c-7 181 62 247 154 247c53 0 94 -21 144 -56l30 -19c35 -25 58 -36 87 -36c40 0 65 28 70 119h44c8 -181 -62 -247 -154 -247zM451 1444l775 -1164l-20 902
c-3 168 -21 206 -151 223v39h379v-39c-125 -19 -143 -57 -146 -223l-11 -1182h-193l-855 1283l18 -1021c2 -168 22 -206 151 -223v-39h-379v39c125 19 144 57 146 223l11 981c0 106 -29 139 -134 162v39h409z" />
    <glyph glyph-name="Ograve" unicode="&#xd2;" horiz-adv-x="1651" 
d="M894 1534l-333 270v5h261l121 -275h-49zM91 721c0 414 290 745 732 745c388 0 737 -285 737 -742c0 -414 -291 -746 -733 -746c-387 0 -736 286 -736 743zM386 736c0 -404 171 -701 449 -701c306 0 430 285 430 674c0 404 -172 700 -448 700c-307 0 -431 -284 -431 -673z
" />
    <glyph glyph-name="Oacute" unicode="&#xd3;" horiz-adv-x="1651" 
d="M769 1534l-50 1l128 275h251v-5zM91 721c0 414 290 745 732 745c388 0 737 -285 737 -742c0 -414 -291 -746 -733 -746c-387 0 -736 286 -736 743zM386 736c0 -404 171 -701 449 -701c306 0 430 285 430 674c0 404 -172 700 -448 700c-307 0 -431 -284 -431 -673z" />
    <glyph glyph-name="Ocircumflex" unicode="&#xd4;" horiz-adv-x="1651" 
d="M612 1534h-47l204 275h127l203 -275h-50l-218 142zM91 721c0 414 290 745 732 745c388 0 737 -285 737 -742c0 -414 -291 -746 -733 -746c-387 0 -736 286 -736 743zM386 736c0 -404 171 -701 449 -701c306 0 430 285 430 674c0 404 -172 700 -448 700
c-307 0 -431 -284 -431 -673z" />
    <glyph glyph-name="Otilde" unicode="&#xd5;" horiz-adv-x="1651" 
d="M930 1555c-52 0 -93 22 -143 56l-29 19c-36 25 -58 37 -87 37c-40 0 -66 -29 -71 -120h-45c-7 181 62 247 155 247c52 0 94 -21 144 -56l29 -19c35 -25 58 -36 87 -36c40 0 65 28 70 119h45c7 -181 -63 -247 -155 -247zM91 721c0 414 290 745 732 745
c388 0 737 -285 737 -742c0 -414 -291 -746 -733 -746c-387 0 -736 286 -736 743zM386 736c0 -404 171 -701 449 -701c306 0 430 285 430 674c0 404 -172 700 -448 700c-307 0 -431 -284 -431 -673z" />
    <glyph glyph-name="Odieresis" unicode="&#xd6;" horiz-adv-x="1651" 
d="M663 1569c-59 0 -105 46 -105 103c0 58 46 103 105 103c58 0 105 -45 105 -103c0 -57 -47 -103 -105 -103zM979 1569c-59 0 -105 46 -105 103c0 58 46 103 105 103c58 0 105 -45 105 -103c0 -57 -47 -103 -105 -103zM91 721c0 414 290 745 732 745
c388 0 737 -285 737 -742c0 -414 -291 -746 -733 -746c-387 0 -736 286 -736 743zM386 736c0 -404 171 -701 449 -701c306 0 430 285 430 674c0 404 -172 700 -448 700c-307 0 -431 -284 -431 -673z" />
    <glyph glyph-name="multiply" unicode="&#xd7;" horiz-adv-x="1154" 
d="M998 208l-57 -57l-365 365l-364 -364l-54 55l364 364l-365 364l56 57l365 -365l365 365l54 -55l-364 -364z" />
    <glyph glyph-name="Ostroke" unicode="&#xd8;" horiz-adv-x="1651" 
d="M91 721c0 414 290 745 732 745c177 0 346 -60 477 -168l130 146l39 -36l-129 -145c134 -128 220 -313 220 -539c0 -414 -291 -746 -733 -746c-177 0 -345 60 -477 168l-129 -146l-40 36l129 145c-133 129 -219 314 -219 540zM386 736c0 -149 23 -284 66 -394l723 814
c-78 157 -201 253 -358 253c-307 0 -431 -284 -431 -673zM1265 709c0 149 -23 283 -67 394l-722 -815c77 -157 201 -253 359 -253c305 0 430 285 430 674z" />
    <glyph glyph-name="Ugrave" unicode="&#xd9;" horiz-adv-x="1468" 
d="M882 1534l-333 270v5h260l121 -275h-48zM164 1281c0 85 -21 105 -132 124v39h537v-39c-120 -19 -140 -42 -140 -130v-712c0 -338 168 -492 404 -492c245 0 408 182 404 488l-9 624c-3 165 -22 202 -152 222v39h372v-40c-119 -17 -138 -56 -141 -220l-9 -637
c-5 -342 -196 -569 -556 -569c-304 0 -578 167 -578 583v720z" />
    <glyph glyph-name="Uacute" unicode="&#xda;" horiz-adv-x="1468" 
d="M756 1534l-49 1l128 275h251v-5zM164 1281c0 85 -21 105 -132 124v39h537v-39c-120 -19 -140 -42 -140 -130v-712c0 -338 168 -492 404 -492c245 0 408 182 404 488l-9 624c-3 165 -22 202 -152 222v39h372v-40c-119 -17 -138 -56 -141 -220l-9 -637
c-5 -342 -196 -569 -556 -569c-304 0 -578 167 -578 583v720z" />
    <glyph glyph-name="Ucircumflex" unicode="&#xdb;" horiz-adv-x="1468" 
d="M600 1534h-48l204 275h127l204 -275h-50l-218 142zM164 1281c0 85 -21 105 -132 124v39h537v-39c-120 -19 -140 -42 -140 -130v-712c0 -338 168 -492 404 -492c245 0 408 182 404 488l-9 624c-3 165 -22 202 -152 222v39h372v-40c-119 -17 -138 -56 -141 -220l-9 -637
c-5 -342 -196 -569 -556 -569c-304 0 -578 167 -578 583v720z" />
    <glyph glyph-name="Udieresis" unicode="&#xdc;" horiz-adv-x="1468" 
d="M651 1569c-59 0 -105 46 -105 103c0 58 46 103 105 103c58 0 105 -45 105 -103c0 -57 -47 -103 -105 -103zM966 1569c-58 0 -105 46 -105 103c0 58 47 103 105 103c59 0 105 -45 105 -103c0 -57 -46 -103 -105 -103zM164 1281c0 85 -21 105 -132 124v39h537v-39
c-120 -19 -140 -42 -140 -130v-712c0 -338 168 -492 404 -492c245 0 408 182 404 488l-9 624c-3 165 -22 202 -152 222v39h372v-40c-119 -17 -138 -56 -141 -220l-9 -637c-5 -342 -196 -569 -556 -569c-304 0 -578 167 -578 583v720z" />
    <glyph glyph-name="Yacute" unicode="&#xdd;" horiz-adv-x="1331" 
d="M691 1534l-50 1l128 275h252v-5zM216 1200c-96 161 -131 189 -222 205v39h567v-39c-122 -18 -142 -61 -58 -208l271 -471l238 438c96 178 86 222 -51 241v39h376v-39c-96 -18 -135 -54 -250 -246l-289 -481v-495c0 -97 20 -126 151 -144v-39h-566v39
c130 18 151 47 151 144v479z" />
    <glyph glyph-name="Thorn" unicode="&#xde;" horiz-adv-x="1281" 
d="M1219 750c0 -271 -262 -411 -619 -411h-141v-156c0 -97 20 -126 151 -144v-39h-555v39c120 19 139 42 139 129v1108c0 87 -19 110 -139 129v39h555v-39c-131 -18 -151 -47 -151 -144v-124h141c383 0 619 -125 619 -387zM938 733c0 204 -134 347 -392 356l-87 3v-707l87 3
c252 9 392 134 392 345z" />
    <glyph glyph-name="germandbls" unicode="&#xdf;" horiz-adv-x="1306" 
d="M408 0h-366v39c104 16 119 34 119 102v834c0 337 208 515 518 515c257 0 425 -106 425 -254c0 -219 -331 -216 -331 -400c0 -68 34 -108 148 -166l73 -38c169 -86 240 -188 240 -326c0 -204 -171 -324 -361 -324c-127 0 -254 33 -314 70l-1 287h38
c27 -182 144 -303 274 -303c113 0 176 68 176 164c0 94 -44 162 -179 233l-72 38c-133 69 -198 137 -198 245c0 228 320 226 320 491c0 135 -88 228 -238 228c-174 0 -272 -126 -272 -373z" />
    <glyph glyph-name="agrave" unicode="&#xe0;" horiz-adv-x="1066" 
d="M560 1093l-351 353v7h260l140 -360h-49zM362 -19c-165 0 -284 97 -284 241c0 149 111 243 395 303l200 42v105c0 188 -94 258 -246 258c-70 0 -135 -17 -184 -48c59 -3 108 -52 108 -116c0 -65 -53 -115 -120 -115c-65 0 -119 49 -119 115c0 129 165 229 402 229
c241 0 397 -96 397 -312v-499c0 -87 43 -123 102 -123c16 0 31 3 42 6v-36c-34 -24 -97 -45 -170 -45c-106 0 -189 52 -208 151c-42 -90 -164 -156 -315 -156zM321 262c0 -116 75 -182 173 -182c81 0 143 32 179 93v347l-94 -21c-196 -44 -258 -119 -258 -237z" />
    <glyph glyph-name="aacute" unicode="&#xe1;" horiz-adv-x="1066" 
d="M436 1093h-50l145 360h251v-7zM362 -19c-165 0 -284 97 -284 241c0 149 111 243 395 303l200 42v105c0 188 -94 258 -246 258c-70 0 -135 -17 -184 -48c59 -3 108 -52 108 -116c0 -65 -53 -115 -120 -115c-65 0 -119 49 -119 115c0 129 165 229 402 229
c241 0 397 -96 397 -312v-499c0 -87 43 -123 102 -123c16 0 31 3 42 6v-36c-34 -24 -97 -45 -170 -45c-106 0 -189 52 -208 151c-42 -90 -164 -156 -315 -156zM321 262c0 -116 75 -182 173 -182c81 0 143 32 179 93v347l-94 -21c-196 -44 -258 -119 -258 -237z" />
    <glyph glyph-name="acircumflex" unicode="&#xe2;" horiz-adv-x="1066" 
d="M262 1093h-50l225 360h121l225 -360h-51l-234 191zM362 -19c-165 0 -284 97 -284 241c0 149 111 243 395 303l200 42v105c0 188 -94 258 -246 258c-70 0 -135 -17 -184 -48c59 -3 108 -52 108 -116c0 -65 -53 -115 -120 -115c-65 0 -119 49 -119 115
c0 129 165 229 402 229c241 0 397 -96 397 -312v-499c0 -87 43 -123 102 -123c16 0 31 3 42 6v-36c-34 -24 -97 -45 -170 -45c-106 0 -189 52 -208 151c-42 -90 -164 -156 -315 -156zM321 262c0 -116 75 -182 173 -182c81 0 143 32 179 93v347l-94 -21
c-196 -44 -258 -119 -258 -237z" />
    <glyph glyph-name="atilde" unicode="&#xe3;" horiz-adv-x="1066" 
d="M614 1152c-55 0 -99 22 -152 60l-31 22c-37 27 -61 39 -92 39c-43 0 -70 -31 -74 -131h-45c-9 195 64 266 161 266c55 0 98 -23 152 -60l31 -22c37 -28 61 -40 91 -40c44 0 71 31 75 131h45c8 -194 -64 -265 -161 -265zM362 -19c-165 0 -284 97 -284 241
c0 149 111 243 395 303l200 42v105c0 188 -94 258 -246 258c-70 0 -135 -17 -184 -48c59 -3 108 -52 108 -116c0 -65 -53 -115 -120 -115c-65 0 -119 49 -119 115c0 129 165 229 402 229c241 0 397 -96 397 -312v-499c0 -87 43 -123 102 -123c16 0 31 3 42 6v-36
c-34 -24 -97 -45 -170 -45c-106 0 -189 52 -208 151c-42 -90 -164 -156 -315 -156zM321 262c0 -116 75 -182 173 -182c81 0 143 32 179 93v347l-94 -21c-196 -44 -258 -119 -258 -237z" />
    <glyph glyph-name="adieresis" unicode="&#xe4;" horiz-adv-x="1066" 
d="M285 1162c-67 0 -121 51 -121 116c0 66 54 116 121 116s121 -50 121 -116c0 -65 -54 -116 -121 -116zM709 1162c-67 0 -121 51 -121 116c0 66 54 116 121 116s121 -50 121 -116c0 -65 -54 -116 -121 -116zM362 -19c-165 0 -284 97 -284 241c0 149 111 243 395 303l200 42
v105c0 188 -94 258 -246 258c-70 0 -135 -17 -184 -48c59 -3 108 -52 108 -116c0 -65 -53 -115 -120 -115c-65 0 -119 49 -119 115c0 129 165 229 402 229c241 0 397 -96 397 -312v-499c0 -87 43 -123 102 -123c16 0 31 3 42 6v-36c-34 -24 -97 -45 -170 -45
c-106 0 -189 52 -208 151c-42 -90 -164 -156 -315 -156zM321 262c0 -116 75 -182 173 -182c81 0 143 32 179 93v347l-94 -21c-196 -44 -258 -119 -258 -237z" />
    <glyph glyph-name="aring" unicode="&#xe5;" horiz-adv-x="1066" 
d="M238 1283c0 113 117 184 259 184c143 0 260 -71 260 -183c0 -113 -117 -182 -260 -182c-142 0 -259 69 -259 181zM402 1283c0 -83 38 -138 95 -138c58 0 96 55 96 139c0 81 -38 140 -96 140c-57 0 -95 -59 -95 -141zM362 -19c-165 0 -284 97 -284 241
c0 149 111 243 395 303l200 42v105c0 188 -94 258 -246 258c-70 0 -135 -17 -184 -48c59 -3 108 -52 108 -116c0 -65 -53 -115 -120 -115c-65 0 -119 49 -119 115c0 129 165 229 402 229c241 0 397 -96 397 -312v-499c0 -87 43 -123 102 -123c16 0 31 3 42 6v-36
c-34 -24 -97 -45 -170 -45c-106 0 -189 52 -208 151c-42 -90 -164 -156 -315 -156zM321 262c0 -116 75 -182 173 -182c81 0 143 32 179 93v347l-94 -21c-196 -44 -258 -119 -258 -237z" />
    <glyph glyph-name="ae" unicode="&#xe6;" horiz-adv-x="1608" 
d="M364 -19c-168 0 -288 90 -288 240c0 153 118 264 409 317l196 36v72c0 202 -110 286 -255 286c-72 0 -135 -18 -183 -47c58 -5 104 -51 104 -111c0 -66 -52 -116 -120 -116c-66 0 -118 49 -118 114c0 121 154 223 380 223c140 0 266 -44 320 -141c73 88 187 141 321 141
c253 0 404 -164 404 -401c0 -22 -2 -44 -4 -60h-628c13 -270 163 -444 375 -444c108 0 190 39 244 93v-40c-65 -90 -201 -162 -370 -162c-198 0 -381 106 -445 297c-19 -196 -156 -297 -342 -297zM1128 941c-138 0 -227 -131 -227 -360l407 4c1 15 2 32 2 51
c0 179 -56 305 -182 305zM481 82c105 0 200 74 200 256v191l-112 -24c-183 -39 -252 -122 -252 -242c0 -115 66 -181 164 -181z" />
    <glyph glyph-name="ccedilla" unicode="&#xe7;" horiz-adv-x="999" 
d="M564 -451c-87 0 -163 34 -198 88v39c26 -23 71 -40 119 -40c58 0 103 29 103 79c0 52 -46 81 -106 81c-20 0 -40 -4 -48 -9v34l124 161c-272 7 -476 206 -476 506c0 293 218 507 515 507c223 0 340 -109 340 -233c0 -71 -54 -123 -119 -123c-67 0 -119 53 -119 119
s51 118 114 118c5 0 10 0 14 -1c-41 34 -100 54 -170 54c-197 0 -322 -158 -322 -393c0 -280 162 -444 365 -444c106 0 191 38 245 93v-41c-61 -89 -183 -153 -335 -162l-80 -106c15 4 32 7 51 7c109 -1 196 -63 196 -166c0 -109 -104 -168 -213 -168z" />
    <glyph glyph-name="egrave" unicode="&#xe8;" horiz-adv-x="1045" 
d="M622 1093l-351 353v7h260l140 -360h-49zM82 488c0 294 186 507 476 507c260 0 413 -166 413 -406c0 -21 -3 -44 -5 -58h-638c14 -268 163 -441 379 -441c108 0 192 40 245 95l1 -39c-66 -99 -204 -165 -376 -165c-283 0 -495 200 -495 507zM557 941
c-144 0 -230 -133 -230 -364l418 4c1 15 2 32 2 53c0 179 -62 307 -190 307z" />
    <glyph glyph-name="eacute" unicode="&#xe9;" horiz-adv-x="1045" 
d="M497 1093h-49l145 360h251v-7zM82 488c0 294 186 507 476 507c260 0 413 -166 413 -406c0 -21 -3 -44 -5 -58h-638c14 -268 163 -441 379 -441c108 0 192 40 245 95l1 -39c-66 -99 -204 -165 -376 -165c-283 0 -495 200 -495 507zM557 941c-144 0 -230 -133 -230 -364
l418 4c1 15 2 32 2 53c0 179 -62 307 -190 307z" />
    <glyph glyph-name="ecircumflex" unicode="&#xea;" horiz-adv-x="1045" 
d="M324 1093h-50l224 360h122l225 -360h-51l-234 191zM82 488c0 294 186 507 476 507c260 0 413 -166 413 -406c0 -21 -3 -44 -5 -58h-638c14 -268 163 -441 379 -441c108 0 192 40 245 95l1 -39c-66 -99 -204 -165 -376 -165c-283 0 -495 200 -495 507zM557 941
c-144 0 -230 -133 -230 -364l418 4c1 15 2 32 2 53c0 179 -62 307 -190 307z" />
    <glyph glyph-name="edieresis" unicode="&#xeb;" horiz-adv-x="1045" 
d="M347 1162c-67 0 -121 51 -121 116c0 66 54 116 121 116s121 -50 121 -116c0 -65 -54 -116 -121 -116zM771 1162c-67 0 -121 51 -121 116c0 66 54 116 121 116s121 -50 121 -116c0 -65 -54 -116 -121 -116zM82 488c0 294 186 507 476 507c260 0 413 -166 413 -406
c0 -21 -3 -44 -5 -58h-638c14 -268 163 -441 379 -441c108 0 192 40 245 95l1 -39c-66 -99 -204 -165 -376 -165c-283 0 -495 200 -495 507zM557 941c-144 0 -230 -133 -230 -364l418 4c1 15 2 32 2 53c0 179 -62 307 -190 307z" />
    <glyph glyph-name="igrave" unicode="&#xec;" horiz-adv-x="569" 
d="M332 1093l-351 353v7h261l140 -360h-50zM410 988v-844c0 -70 18 -88 119 -105v-39h-481v39c102 17 119 35 119 105v661c0 57 -7 70 -63 88l-56 17v36z" />
    <glyph glyph-name="iacute" unicode="&#xed;" horiz-adv-x="569" 
d="M208 1093h-50l145 360h252v-7zM410 988v-844c0 -70 18 -88 119 -105v-39h-481v39c102 17 119 35 119 105v661c0 57 -7 70 -63 88l-56 17v36z" />
    <glyph glyph-name="icircumflex" unicode="&#xee;" horiz-adv-x="569" 
d="M58 1093h-45l202 360h110l202 -360h-46l-211 191zM410 988v-844c0 -70 18 -88 119 -105v-39h-481v39c102 17 119 35 119 105v661c0 57 -7 70 -63 88l-56 17v36z" />
    <glyph glyph-name="idieresis" unicode="&#xef;" horiz-adv-x="569" 
d="M58 1162c-67 0 -121 51 -121 116c0 66 54 116 121 116s121 -50 121 -116c0 -65 -54 -116 -121 -116zM482 1162c-67 0 -121 51 -121 116c0 66 54 116 121 116s121 -50 121 -116c0 -65 -54 -116 -121 -116zM410 988v-844c0 -70 18 -88 119 -105v-39h-481v39
c102 17 119 35 119 105v661c0 57 -7 70 -63 88l-56 17v36z" />
    <glyph glyph-name="eth" unicode="&#xf0;" horiz-adv-x="1197" 
d="M588 -19c-310 0 -507 207 -507 501s200 493 452 493c160 0 251 -75 294 -177c-46 177 -129 338 -273 472l-260 -164l-26 41l248 158c-71 59 -154 113 -253 161l25 39c117 -41 223 -90 316 -144l228 144l27 -42l-208 -131c304 -193 465 -458 465 -765
c0 -381 -268 -586 -528 -586zM594 36c134 0 266 105 266 455c-1 257 -79 414 -256 414c-159 0 -260 -155 -260 -421c0 -263 88 -448 250 -448z" />
    <glyph glyph-name="ntilde" unicode="&#xf1;" horiz-adv-x="1225" 
d="M734 1152c-54 0 -98 22 -152 60l-30 22c-38 27 -62 39 -92 39c-44 0 -70 -31 -75 -131h-45c-8 195 65 266 162 266c55 0 98 -23 151 -60l31 -22c37 -28 62 -40 92 -40c44 0 70 31 74 131h46c8 -194 -65 -265 -162 -265zM408 988v-175c53 107 174 182 328 182
c197 0 334 -100 334 -308v-543c0 -70 14 -88 118 -105v-39h-471v39c96 15 109 32 109 99v516c0 156 -76 232 -209 232c-96 0 -169 -44 -207 -109v-639c0 -67 13 -83 109 -99v-39h-471v39c102 17 119 35 119 105v661c0 57 -7 70 -63 88l-56 17v36z" />
    <glyph glyph-name="ograve" unicode="&#xf2;" horiz-adv-x="1199" 
d="M661 1093l-351 353v7h261l140 -360h-50zM597 -19c-290 0 -515 198 -515 505c0 301 227 509 521 509c289 0 515 -198 515 -504c0 -300 -228 -510 -521 -510zM603 36c160 0 252 173 252 444c0 280 -103 461 -259 461c-160 0 -252 -173 -252 -444c0 -280 103 -461 259 -461z
" />
    <glyph glyph-name="oacute" unicode="&#xf3;" horiz-adv-x="1199" 
d="M537 1093h-50l146 360h251v-7zM597 -19c-290 0 -515 198 -515 505c0 301 227 509 521 509c289 0 515 -198 515 -504c0 -300 -228 -510 -521 -510zM603 36c160 0 252 173 252 444c0 280 -103 461 -259 461c-160 0 -252 -173 -252 -444c0 -280 103 -461 259 -461z" />
    <glyph glyph-name="ocircumflex" unicode="&#xf4;" horiz-adv-x="1199" 
d="M363 1093h-49l224 360h122l225 -360h-51l-234 191zM597 -19c-290 0 -515 198 -515 505c0 301 227 509 521 509c289 0 515 -198 515 -504c0 -300 -228 -510 -521 -510zM603 36c160 0 252 173 252 444c0 280 -103 461 -259 461c-160 0 -252 -173 -252 -444
c0 -280 103 -461 259 -461z" />
    <glyph glyph-name="otilde" unicode="&#xf5;" horiz-adv-x="1199" 
d="M715 1152c-54 0 -98 22 -151 60l-31 22c-37 27 -62 39 -92 39c-44 0 -70 -31 -74 -131h-46c-8 195 65 266 162 266c55 0 98 -23 152 -60l30 -22c38 -28 62 -40 92 -40c44 0 70 31 75 131h45c8 -194 -65 -265 -162 -265zM597 -19c-290 0 -515 198 -515 505
c0 301 227 509 521 509c289 0 515 -198 515 -504c0 -300 -228 -510 -521 -510zM603 36c160 0 252 173 252 444c0 280 -103 461 -259 461c-160 0 -252 -173 -252 -444c0 -280 103 -461 259 -461z" />
    <glyph glyph-name="odieresis" unicode="&#xf6;" horiz-adv-x="1199" 
d="M387 1162c-67 0 -121 51 -121 116c0 66 54 116 121 116s121 -50 121 -116c0 -65 -54 -116 -121 -116zM811 1162c-67 0 -121 51 -121 116c0 66 54 116 121 116s121 -50 121 -116c0 -65 -54 -116 -121 -116zM597 -19c-290 0 -515 198 -515 505c0 301 227 509 521 509
c289 0 515 -198 515 -504c0 -300 -228 -510 -521 -510zM603 36c160 0 252 173 252 444c0 280 -103 461 -259 461c-160 0 -252 -173 -252 -444c0 -280 103 -461 259 -461z" />
    <glyph glyph-name="divide" unicode="&#xf7;" horiz-adv-x="1154" 
d="M577 803c-70 0 -128 57 -128 128c0 72 58 128 128 128c71 0 128 -56 128 -128c0 -71 -57 -128 -128 -128zM116 532v79h923v-79h-923zM577 85c-70 0 -128 57 -128 128c0 72 58 129 128 129c71 0 128 -57 128 -129c0 -71 -57 -128 -128 -128z" />
    <glyph glyph-name="ostroke" unicode="&#xf8;" horiz-adv-x="1192" 
d="M593 -19c-126 0 -241 39 -329 108l-87 -94l-37 34l86 93c-90 87 -144 212 -144 363c0 300 226 508 517 508c128 0 243 -39 331 -109l91 98l38 -35l-90 -97c88 -87 142 -211 142 -360c0 -300 -227 -509 -518 -509zM337 496c0 -84 10 -160 28 -224l446 483
c-45 117 -122 185 -219 185c-160 0 -255 -173 -255 -444zM600 34c161 0 256 174 256 445c0 83 -10 157 -27 220l-446 -482c45 -115 121 -183 217 -183z" />
    <glyph glyph-name="ugrave" unicode="&#xf9;" horiz-adv-x="1199" 
d="M656 1093l-351 353v7h260l140 -360h-49zM390 988v-662c0 -158 73 -236 206 -236c92 0 163 45 200 109v606c0 57 -7 70 -62 88l-57 17v36l362 42v-816c0 -58 8 -70 63 -89l56 -16v-36l-360 -41v174c-54 -108 -171 -183 -325 -183c-193 0 -327 101 -327 312v512
c0 57 -8 70 -62 88l-56 17v36z" />
    <glyph glyph-name="uacute" unicode="&#xfa;" horiz-adv-x="1199" 
d="M532 1093h-50l145 360h251v-7zM390 988v-662c0 -158 73 -236 206 -236c92 0 163 45 200 109v606c0 57 -7 70 -62 88l-57 17v36l362 42v-816c0 -58 8 -70 63 -89l56 -16v-36l-360 -41v174c-54 -108 -171 -183 -325 -183c-193 0 -327 101 -327 312v512c0 57 -8 70 -62 88
l-56 17v36z" />
    <glyph glyph-name="ucircumflex" unicode="&#xfb;" horiz-adv-x="1199" 
d="M358 1093h-50l225 360h121l225 -360h-51l-234 191zM390 988v-662c0 -158 73 -236 206 -236c92 0 163 45 200 109v606c0 57 -7 70 -62 88l-57 17v36l362 42v-816c0 -58 8 -70 63 -89l56 -16v-36l-360 -41v174c-54 -108 -171 -183 -325 -183c-193 0 -327 101 -327 312v512
c0 57 -8 70 -62 88l-56 17v36z" />
    <glyph glyph-name="udieresis" unicode="&#xfc;" horiz-adv-x="1199" 
d="M381 1162c-67 0 -121 51 -121 116c0 66 54 116 121 116s121 -50 121 -116c0 -65 -54 -116 -121 -116zM805 1162c-67 0 -121 51 -121 116c0 66 54 116 121 116s121 -50 121 -116c0 -65 -54 -116 -121 -116zM390 988v-662c0 -158 73 -236 206 -236c92 0 163 45 200 109v606
c0 57 -7 70 -62 88l-57 17v36l362 42v-816c0 -58 8 -70 63 -89l56 -16v-36l-360 -41v174c-54 -108 -171 -183 -325 -183c-193 0 -327 101 -327 312v512c0 57 -8 70 -62 88l-56 17v36z" />
    <glyph glyph-name="yacute" unicode="&#xfd;" horiz-adv-x="1019" 
d="M498 1093h-50l145 360h252v-7zM153 777c-49 120 -76 144 -157 160v40h510v-40c-117 -16 -133 -45 -85 -177l182 -498l178 492c49 137 31 166 -86 183v40h328v-40c-83 -16 -111 -42 -172 -193l-208 -512l-102 -249l-155 -443h-191v3c90 101 212 292 286 440z" />
    <glyph glyph-name="thorn" unicode="&#xfe;" horiz-adv-x="1193" 
d="M1111 497c0 -315 -211 -516 -466 -516c-120 0 -214 51 -258 124v-413c0 -77 16 -96 131 -113v-39h-493v39c104 16 118 34 118 102v1622c0 57 -7 70 -61 88l-57 17v36l362 41l-3 -677c52 112 176 187 323 187c215 0 404 -183 404 -498zM859 471c0 254 -111 415 -270 415
c-94 0 -162 -40 -202 -112v-616c29 -60 105 -105 190 -105c170 0 282 165 282 418z" />
    <glyph glyph-name="ydieresis" unicode="&#xff;" horiz-adv-x="1019" 
d="M348 1162c-67 0 -121 51 -121 116c0 66 54 116 121 116s121 -50 121 -116c0 -65 -54 -116 -121 -116zM772 1162c-67 0 -121 51 -121 116c0 66 54 116 121 116s121 -50 121 -116c0 -65 -54 -116 -121 -116zM153 777c-49 120 -76 144 -157 160v40h510v-40
c-117 -16 -133 -45 -85 -177l182 -498l178 492c49 137 31 166 -86 183v40h328v-40c-83 -16 -111 -42 -172 -193l-208 -512l-102 -249l-155 -443h-191v3c90 101 212 292 286 440z" />
    <glyph glyph-name="Amacron" unicode="&#x100;" horiz-adv-x="1374" 
d="M437 1598v116h504v-116h-504zM1194 248c56 -155 91 -192 192 -209v-39h-575v39c129 17 153 62 102 213l-89 257h-472l-74 -222c-61 -183 -45 -227 97 -248v-39h-387v39c105 17 139 54 210 253l419 1152h151zM371 566h434l-220 641z" />
    <glyph glyph-name="amacron" unicode="&#x101;" horiz-adv-x="1066" 
d="M218 1198v136h559v-136h-559zM362 -19c-165 0 -284 97 -284 241c0 149 111 243 395 303l200 42v105c0 188 -94 258 -246 258c-70 0 -135 -17 -184 -48c59 -3 108 -52 108 -116c0 -65 -53 -115 -120 -115c-65 0 -119 49 -119 115c0 129 165 229 402 229
c241 0 397 -96 397 -312v-499c0 -87 43 -123 102 -123c16 0 31 3 42 6v-36c-34 -24 -97 -45 -170 -45c-106 0 -189 52 -208 151c-42 -90 -164 -156 -315 -156zM321 262c0 -116 75 -182 173 -182c81 0 143 32 179 93v347l-94 -21c-196 -44 -258 -119 -258 -237z" />
    <glyph glyph-name="Abreve" unicode="&#x102;" horiz-adv-x="1374" 
d="M689 1581c-164 0 -253 122 -253 246c0 16 1 33 4 48h41v-4c0 -94 86 -159 207 -159s207 65 207 159v4h42c2 -15 3 -32 3 -48c0 -124 -88 -246 -251 -246zM1194 248c56 -155 91 -192 192 -209v-39h-575v39c129 17 153 62 102 213l-89 257h-472l-74 -222
c-61 -183 -45 -227 97 -248v-39h-387v39c105 17 139 54 210 253l419 1152h151zM371 566h434l-220 641z" />
    <glyph glyph-name="abreve" unicode="&#x103;" horiz-adv-x="1066" 
d="M497 1130c-184 0 -282 140 -282 280c0 19 2 37 5 55h45v-5c0 -105 97 -177 232 -177c137 0 233 72 233 177v5h45c3 -18 5 -36 5 -55c0 -140 -98 -280 -283 -280zM362 -19c-165 0 -284 97 -284 241c0 149 111 243 395 303l200 42v105c0 188 -94 258 -246 258
c-70 0 -135 -17 -184 -48c59 -3 108 -52 108 -116c0 -65 -53 -115 -120 -115c-65 0 -119 49 -119 115c0 129 165 229 402 229c241 0 397 -96 397 -312v-499c0 -87 43 -123 102 -123c16 0 31 3 42 6v-36c-34 -24 -97 -45 -170 -45c-106 0 -189 52 -208 151
c-42 -90 -164 -156 -315 -156zM321 262c0 -116 75 -182 173 -182c81 0 143 32 179 93v347l-94 -21c-196 -44 -258 -119 -258 -237z" />
    <glyph glyph-name="Aogonek" unicode="&#x104;" horiz-adv-x="1374" 
d="M1113 -478c-111 0 -194 74 -194 185c0 110 68 214 170 293h-278v39c129 17 153 62 102 213l-89 257h-472l-74 -222c-61 -183 -45 -227 97 -248v-39h-387v39c105 17 139 54 210 253l419 1152h151l426 -1196c56 -155 91 -192 192 -209v-39h-254c-27 -39 -43 -100 -43 -167
c0 -111 58 -196 132 -196c35 0 62 15 79 35v-39c-27 -66 -101 -111 -187 -111zM371 566h434l-220 641z" />
    <glyph glyph-name="aogonek" unicode="&#x105;" horiz-adv-x="1069" 
d="M362 -19c-165 0 -284 97 -284 241c0 149 111 243 395 303l200 42v105c0 188 -94 258 -246 258c-70 0 -135 -17 -184 -48c59 -3 108 -52 108 -116c0 -65 -53 -115 -120 -115c-65 0 -119 49 -119 115c0 129 165 229 402 229c241 0 397 -96 397 -312v-499
c0 -87 43 -123 102 -123c16 0 31 3 42 6v-36c-130 -103 -183 -189 -183 -281c0 -77 49 -117 106 -117c36 0 69 11 86 30l1 -39c-35 -61 -109 -102 -203 -102c-104 0 -187 65 -187 166c0 102 74 196 261 300l6 3c-18 -2 -37 -4 -57 -4c-105 0 -189 52 -208 150
c-42 -90 -164 -156 -315 -156zM321 262c0 -116 75 -182 173 -182c81 0 143 32 179 93v347l-94 -21c-196 -44 -258 -119 -258 -237z" />
    <glyph glyph-name="Cacute" unicode="&#x106;" horiz-adv-x="1405" 
d="M795 1534l-50 1l128 275h252v-5zM91 731c0 473 339 735 756 735c230 0 380 -45 457 -99l13 -350h-37c-52 242 -195 392 -420 392c-296 0 -474 -262 -474 -662c0 -380 169 -712 479 -712c208 0 362 132 419 399h37l-12 -350c-72 -53 -250 -106 -456 -106
c-433 0 -762 287 -762 753z" />
    <glyph glyph-name="cacute" unicode="&#x107;" horiz-adv-x="999" 
d="M518 1093h-50l145 360h252v-7zM573 -19c-279 0 -491 201 -491 507c0 293 218 507 515 507c223 0 340 -109 340 -233c0 -71 -54 -123 -119 -123c-67 0 -119 53 -119 119s51 118 114 118c5 0 10 0 14 -1c-41 34 -100 54 -170 54c-197 0 -322 -158 -322 -393
c0 -280 162 -444 365 -444c106 0 191 38 245 93v-41c-66 -96 -203 -163 -372 -163z" />
    <glyph glyph-name="Ccircumflex" unicode="&#x108;" horiz-adv-x="1405" 
d="M639 1534h-48l204 275h127l204 -275h-51l-217 142zM91 731c0 473 339 735 756 735c230 0 380 -45 457 -99l13 -350h-37c-52 242 -195 392 -420 392c-296 0 -474 -262 -474 -662c0 -380 169 -712 479 -712c208 0 362 132 419 399h37l-12 -350c-72 -53 -250 -106 -456 -106
c-433 0 -762 287 -762 753z" />
    <glyph glyph-name="ccircumflex" unicode="&#x109;" horiz-adv-x="999" 
d="M344 1093h-50l225 360h122l224 -360h-50l-235 191zM573 -19c-279 0 -491 201 -491 507c0 293 218 507 515 507c223 0 340 -109 340 -233c0 -71 -54 -123 -119 -123c-67 0 -119 53 -119 119s51 118 114 118c5 0 10 0 14 -1c-41 34 -100 54 -170 54
c-197 0 -322 -158 -322 -393c0 -280 162 -444 365 -444c106 0 191 38 245 93v-41c-66 -96 -203 -163 -372 -163z" />
    <glyph glyph-name="Cdotaccent" unicode="&#x10a;" horiz-adv-x="1405" 
d="M847 1567c-61 0 -110 47 -110 106s49 104 110 104c60 0 109 -45 109 -104s-49 -106 -109 -106zM91 731c0 473 339 735 756 735c230 0 380 -45 457 -99l13 -350h-37c-52 242 -195 392 -420 392c-296 0 -474 -262 -474 -662c0 -380 169 -712 479 -712
c208 0 362 132 419 399h37l-12 -350c-72 -53 -250 -106 -456 -106c-433 0 -762 287 -762 753z" />
    <glyph glyph-name="cdotaccent" unicode="&#x10b;" horiz-adv-x="999" 
d="M580 1155c-71 0 -129 54 -129 123c0 70 58 124 129 124s129 -54 129 -124c0 -69 -58 -123 -129 -123zM573 -19c-279 0 -491 201 -491 507c0 293 218 507 515 507c223 0 340 -109 340 -233c0 -71 -54 -123 -119 -123c-67 0 -119 53 -119 119s51 118 114 118
c5 0 10 0 14 -1c-41 34 -100 54 -170 54c-197 0 -322 -158 -322 -393c0 -280 162 -444 365 -444c106 0 191 38 245 93v-41c-66 -96 -203 -163 -372 -163z" />
    <glyph glyph-name="Ccaron" unicode="&#x10c;" horiz-adv-x="1405" 
d="M1076 1828h48l-204 -275h-127l-204 275h51l217 -141zM91 731c0 473 339 735 756 735c230 0 380 -45 457 -99l13 -350h-37c-52 242 -195 392 -420 392c-296 0 -474 -262 -474 -662c0 -380 169 -712 479 -712c208 0 362 132 419 399h37l-12 -350
c-72 -53 -250 -106 -456 -106c-433 0 -762 287 -762 753z" />
    <glyph glyph-name="ccaron" unicode="&#x10d;" horiz-adv-x="999" 
d="M815 1477h50l-224 -360h-122l-225 360h51l234 -191zM573 -19c-279 0 -491 201 -491 507c0 293 218 507 515 507c223 0 340 -109 340 -233c0 -71 -54 -123 -119 -123c-67 0 -119 53 -119 119s51 118 114 118c5 0 10 0 14 -1c-41 34 -100 54 -170 54
c-197 0 -322 -158 -322 -393c0 -280 162 -444 365 -444c106 0 191 38 245 93v-41c-66 -96 -203 -163 -372 -163z" />
    <glyph glyph-name="Dcaron" unicode="&#x10e;" horiz-adv-x="1540" 
d="M967 1828h47l-203 -275h-128l-203 275h50l218 -141zM1458 747c0 -484 -400 -747 -873 -747h-530v39c120 19 139 42 139 130v1106c0 88 -19 111 -139 130v39h527c520 0 876 -246 876 -697zM1165 726c1 395 -222 657 -615 669l-91 3v-1352l91 3c387 12 615 264 615 677z
" />
    <glyph glyph-name="dcaron" unicode="&#x10f;" horiz-adv-x="1209" 
d="M82 480c0 316 208 515 464 515c120 0 215 -49 259 -123v431c0 57 -7 69 -62 88l-56 17v36l362 42v-1314c0 -58 7 -70 63 -89l56 -16v-36l-360 -41v178c-52 -113 -177 -187 -323 -187c-216 0 -403 181 -403 499zM1217 1073h-38l44 405h192zM334 505
c0 -256 112 -415 268 -415c95 0 164 42 203 113v616c-28 60 -104 105 -190 105c-168 0 -281 -161 -281 -419z" />
    <glyph glyph-name="dstroke" unicode="&#x111;" horiz-adv-x="1209" 
d="M82 480c0 316 208 515 464 515c120 0 215 -49 259 -123v350h-228v51h228v192l244 21v-213h119v-51h-119v-1050c0 -58 7 -70 63 -89l56 -16v-36l-360 -41v178c-52 -113 -177 -187 -323 -187c-216 0 -403 181 -403 499zM334 505c0 -256 112 -415 268 -415
c95 0 164 42 203 113v616c-28 60 -104 105 -190 105c-168 0 -281 -161 -281 -419z" />
    <glyph glyph-name="Emacron" unicode="&#x112;" horiz-adv-x="1229" 
d="M394 1598v116h503v-116h-503zM1105 1444l15 -359h-37c-55 231 -144 293 -423 305l-201 8v-635l254 5c124 5 150 52 181 204h34v-465h-34c-29 151 -56 199 -181 204l-254 6v-671l237 9c295 14 380 73 436 342h38l-18 -397h-1097v39c120 19 139 42 139 130v1106
c0 88 -19 111 -139 130v39h1050z" />
    <glyph glyph-name="emacron" unicode="&#x113;" horiz-adv-x="1045" 
d="M280 1198v136h559v-136h-559zM82 488c0 294 186 507 476 507c260 0 413 -166 413 -406c0 -21 -3 -44 -5 -58h-638c14 -268 163 -441 379 -441c108 0 192 40 245 95l1 -39c-66 -99 -204 -165 -376 -165c-283 0 -495 200 -495 507zM557 941c-144 0 -230 -133 -230 -364
l418 4c1 15 2 32 2 53c0 179 -62 307 -190 307z" />
    <glyph glyph-name="Ebreve" unicode="&#x114;" horiz-adv-x="1229" 
d="M645 1581c-163 0 -252 122 -252 246c0 16 1 33 3 48h42v-4c0 -94 86 -159 206 -159c122 0 208 65 208 159v4h41c2 -15 4 -32 4 -48c0 -124 -89 -246 -252 -246zM1105 1444l15 -359h-37c-55 231 -144 293 -423 305l-201 8v-635l254 5c124 5 150 52 181 204h34v-465h-34
c-29 151 -56 199 -181 204l-254 6v-671l237 9c295 14 380 73 436 342h38l-18 -397h-1097v39c120 19 139 42 139 130v1106c0 88 -19 111 -139 130v39h1050z" />
    <glyph glyph-name="ebreve" unicode="&#x115;" horiz-adv-x="1045" 
d="M559 1130c-185 0 -282 140 -282 280c0 19 1 37 5 55h45v-5c0 -105 96 -177 232 -177c137 0 233 72 233 177v5h45c3 -18 4 -36 4 -55c0 -140 -97 -280 -282 -280zM82 488c0 294 186 507 476 507c260 0 413 -166 413 -406c0 -21 -3 -44 -5 -58h-638
c14 -268 163 -441 379 -441c108 0 192 40 245 95l1 -39c-66 -99 -204 -165 -376 -165c-283 0 -495 200 -495 507zM557 941c-144 0 -230 -133 -230 -364l418 4c1 15 2 32 2 53c0 179 -62 307 -190 307z" />
    <glyph glyph-name="Edotaccent" unicode="&#x116;" horiz-adv-x="1229" 
d="M645 1567c-61 0 -109 47 -109 106s48 104 109 104s110 -45 110 -104s-49 -106 -110 -106zM1105 1444l15 -359h-37c-55 231 -144 293 -423 305l-201 8v-635l254 5c124 5 150 52 181 204h34v-465h-34c-29 151 -56 199 -181 204l-254 6v-671l237 9c295 14 380 73 436 342h38
l-18 -397h-1097v39c120 19 139 42 139 130v1106c0 88 -19 111 -139 130v39h1050z" />
    <glyph glyph-name="edotaccent" unicode="&#x117;" horiz-adv-x="1045" 
d="M559 1155c-71 0 -129 54 -129 123c0 70 58 124 129 124c72 0 129 -54 129 -124c0 -69 -57 -123 -129 -123zM82 488c0 294 186 507 476 507c260 0 413 -166 413 -406c0 -21 -3 -44 -5 -58h-638c14 -268 163 -441 379 -441c108 0 192 40 245 95l1 -39
c-66 -99 -204 -165 -376 -165c-283 0 -495 200 -495 507zM557 941c-144 0 -230 -133 -230 -364l418 4c1 15 2 32 2 53c0 179 -62 307 -190 307z" />
    <glyph glyph-name="Eogonek" unicode="&#x118;" horiz-adv-x="1229" 
d="M982 -478c-111 0 -194 74 -194 185c0 110 67 214 170 293h-903v39c120 19 139 42 139 130v1106c0 88 -19 111 -139 130v39h1050l15 -359h-37c-55 231 -144 293 -423 305l-201 8v-635l254 5c124 5 150 52 181 204h34v-465h-34c-29 151 -56 199 -181 204l-254 6v-671l237 9
c295 14 380 73 436 342h38l-18 -397h-151c-27 -39 -43 -100 -43 -167c0 -111 59 -196 132 -196c35 0 62 15 79 35l1 -39c-28 -66 -101 -111 -188 -111z" />
    <glyph glyph-name="eogonek" unicode="&#x119;" horiz-adv-x="1049" 
d="M82 488c0 294 186 507 476 507c260 0 413 -166 413 -406c0 -21 -3 -44 -5 -58h-637c15 -268 163 -441 378 -441c107 0 192 40 245 95l1 -39c-14 -19 -59 -74 -81 -98c-83 -89 -123 -177 -123 -266c0 -93 54 -149 122 -149c32 0 59 12 74 30l1 -40
c-36 -62 -111 -101 -199 -101c-109 0 -192 73 -192 179c0 109 78 211 220 310l19 12c-62 -28 -138 -42 -217 -42c-283 0 -495 200 -495 507zM557 941c-144 0 -229 -131 -229 -364l417 4c1 15 2 32 2 53c0 179 -62 307 -190 307z" />
    <glyph glyph-name="Ecaron" unicode="&#x11a;" horiz-adv-x="1229" 
d="M875 1828h47l-203 -275h-127l-204 275h50l218 -141zM1105 1444l15 -359h-37c-55 231 -144 293 -423 305l-201 8v-635l254 5c124 5 150 52 181 204h34v-465h-34c-29 151 -56 199 -181 204l-254 6v-671l237 9c295 14 380 73 436 342h38l-18 -397h-1097v39
c120 19 139 42 139 130v1106c0 88 -19 111 -139 130v39h1050z" />
    <glyph glyph-name="ecaron" unicode="&#x11b;" horiz-adv-x="1045" 
d="M795 1477h50l-225 -360h-122l-224 360h50l235 -191zM82 488c0 294 186 507 476 507c260 0 413 -166 413 -406c0 -21 -3 -44 -5 -58h-638c14 -268 163 -441 379 -441c108 0 192 40 245 95l1 -39c-66 -99 -204 -165 -376 -165c-283 0 -495 200 -495 507zM557 941
c-144 0 -230 -133 -230 -364l418 4c1 15 2 32 2 53c0 179 -62 307 -190 307z" />
    <glyph glyph-name="Gcircumflex" unicode="&#x11c;" horiz-adv-x="1530" 
d="M636 1534h-48l204 275h127l204 -275h-50l-218 142zM91 729c0 478 341 737 761 737c234 0 387 -45 464 -99l12 -349h-36c-54 241 -199 391 -428 391c-300 0 -478 -262 -478 -662c0 -381 167 -712 479 -712c114 0 210 30 263 75v409c0 94 -18 114 -143 127v40h520v-40
c-116 -13 -136 -33 -136 -127v-395c-115 -88 -317 -146 -517 -146c-441 0 -761 295 -761 751z" />
    <glyph glyph-name="gcircumflex" unicode="&#x11d;" horiz-adv-x="1085" 
d="M304 1093h-49l224 360h122l224 -360h-50l-234 191zM92 666c0 200 193 329 432 329c80 0 152 -15 210 -37l331 20v-75l-276 17c103 -43 168 -134 168 -248c0 -201 -199 -323 -429 -323c-37 0 -73 4 -115 11c-79 -17 -124 -55 -124 -111c0 -64 59 -97 174 -97h171
c255 0 391 -101 391 -283c-1 -217 -230 -358 -499 -358c-285 0 -473 95 -473 241c0 109 106 190 333 208c-167 0 -285 73 -284 191c0 115 104 194 272 220c-162 32 -282 134 -282 295zM332 676c0 -167 76 -278 196 -278c118 0 190 104 190 269c0 164 -71 279 -196 279
c-122 0 -190 -106 -190 -270zM257 -230c0 -118 102 -205 274 -205c176 0 299 83 299 216c0 107 -69 169 -229 169h-172c-115 -15 -172 -83 -172 -180z" />
    <glyph glyph-name="Gbreve" unicode="&#x11e;" horiz-adv-x="1530" 
d="M844 1581c-163 0 -252 122 -252 246c0 16 1 33 3 48h42v-4c0 -94 86 -159 206 -159c122 0 207 65 207 159v4h42c2 -15 3 -32 3 -48c0 -124 -88 -246 -251 -246zM91 729c0 478 341 737 761 737c234 0 387 -45 464 -99l12 -349h-36c-54 241 -199 391 -428 391
c-300 0 -478 -262 -478 -662c0 -381 167 -712 479 -712c114 0 210 30 263 75v409c0 94 -18 114 -143 127v40h520v-40c-116 -13 -136 -33 -136 -127v-395c-115 -88 -317 -146 -517 -146c-441 0 -761 295 -761 751z" />
    <glyph glyph-name="gbreve" unicode="&#x11f;" horiz-adv-x="1085" 
d="M540 1130c-185 0 -282 140 -282 280c0 19 1 37 4 55h46v-5c0 -105 96 -177 232 -177s233 72 233 177v5h45c3 -18 4 -36 4 -55c0 -140 -97 -280 -282 -280zM92 666c0 200 193 329 432 329c80 0 152 -15 210 -37l331 20v-75l-276 17c103 -43 168 -134 168 -248
c0 -201 -199 -323 -429 -323c-37 0 -73 4 -115 11c-79 -17 -124 -55 -124 -111c0 -64 59 -97 174 -97h171c255 0 391 -101 391 -283c-1 -217 -230 -358 -499 -358c-285 0 -473 95 -473 241c0 109 106 190 333 208c-167 0 -285 73 -284 191c0 115 104 194 272 220
c-162 32 -282 134 -282 295zM332 676c0 -167 76 -278 196 -278c118 0 190 104 190 269c0 164 -71 279 -196 279c-122 0 -190 -106 -190 -270zM257 -230c0 -118 102 -205 274 -205c176 0 299 83 299 216c0 107 -69 169 -229 169h-172c-115 -15 -172 -83 -172 -180z" />
    <glyph glyph-name="Gdotaccent" unicode="&#x120;" horiz-adv-x="1530" 
d="M844 1567c-61 0 -109 47 -109 106s48 104 109 104s109 -45 109 -104s-48 -106 -109 -106zM91 729c0 478 341 737 761 737c234 0 387 -45 464 -99l12 -349h-36c-54 241 -199 391 -428 391c-300 0 -478 -262 -478 -662c0 -381 167 -712 479 -712c114 0 210 30 263 75v409
c0 94 -18 114 -143 127v40h520v-40c-116 -13 -136 -33 -136 -127v-395c-115 -88 -317 -146 -517 -146c-441 0 -761 295 -761 751z" />
    <glyph glyph-name="gdotaccent" unicode="&#x121;" horiz-adv-x="1085" 
d="M540 1155c-71 0 -129 54 -129 123c0 70 58 124 129 124s129 -54 129 -124c0 -69 -58 -123 -129 -123zM92 666c0 200 193 329 432 329c80 0 152 -15 210 -37l331 20v-75l-276 17c103 -43 168 -134 168 -248c0 -201 -199 -323 -429 -323c-37 0 -73 4 -115 11
c-79 -17 -124 -55 -124 -111c0 -64 59 -97 174 -97h171c255 0 391 -101 391 -283c-1 -217 -230 -358 -499 -358c-285 0 -473 95 -473 241c0 109 106 190 333 208c-167 0 -285 73 -284 191c0 115 104 194 272 220c-162 32 -282 134 -282 295zM332 676
c0 -167 76 -278 196 -278c118 0 190 104 190 269c0 164 -71 279 -196 279c-122 0 -190 -106 -190 -270zM257 -230c0 -118 102 -205 274 -205c176 0 299 83 299 216c0 107 -69 169 -229 169h-172c-115 -15 -172 -83 -172 -180z" />
    <glyph glyph-name="Gcommaaccent" unicode="&#x122;" horiz-adv-x="1530" 
d="M91 729c0 478 341 737 761 737c234 0 387 -45 464 -99l12 -349h-36c-54 241 -199 391 -428 391c-300 0 -478 -262 -478 -662c0 -381 167 -712 479 -712c114 0 210 30 263 75v409c0 94 -18 114 -143 127v40h520v-40c-116 -13 -136 -33 -136 -127v-395
c-115 -88 -317 -146 -517 -146c-441 0 -761 295 -761 751zM840 -453c-88 0 -165 38 -197 87v37c31 -25 80 -44 134 -44c64 0 108 29 108 77c0 49 -46 77 -106 77c-32 0 -62 -8 -79 -16v36c28 41 85 80 166 80c112 0 195 -63 195 -165s-91 -169 -221 -169z" />
    <glyph glyph-name="gcommaaccent" unicode="&#x123;" horiz-adv-x="1085" 
d="M551 1440c88 0 165 -37 197 -86v-38c-31 25 -80 44 -135 44c-63 0 -107 -29 -107 -77s46 -77 106 -77c31 0 62 8 79 16v-36c-28 -41 -85 -80 -167 -80c-112 0 -194 63 -194 166c0 102 91 168 221 168zM92 666c0 200 193 329 432 329c80 0 152 -15 210 -37l331 20v-75
l-276 17c103 -43 168 -134 168 -248c0 -201 -199 -323 -429 -323c-37 0 -73 4 -115 11c-79 -17 -124 -55 -124 -111c0 -64 59 -97 174 -97h171c255 0 391 -101 391 -283c-1 -217 -230 -358 -499 -358c-285 0 -473 95 -473 241c0 109 106 190 333 208
c-167 0 -285 73 -284 191c0 115 104 194 272 220c-162 32 -282 134 -282 295zM332 676c0 -167 76 -278 196 -278c118 0 190 104 190 269c0 164 -71 279 -196 279c-122 0 -190 -106 -190 -270zM257 -230c0 -118 102 -205 274 -205c176 0 299 83 299 216
c0 107 -69 169 -229 169h-172c-115 -15 -172 -83 -172 -180z" />
    <glyph glyph-name="Hcircumflex" unicode="&#x124;" horiz-adv-x="1589" 
d="M587 1534h-48l204 275h127l204 -275h-50l-218 142zM459 163c0 -85 21 -105 133 -124v-39h-537v39c120 19 139 42 139 130v1106c0 88 -19 111 -139 130v39h537v-40c-112 -18 -133 -38 -133 -123v-516h670v516c0 86 -19 106 -132 124v39h537v-39
c-118 -19 -140 -40 -140 -130v-1106c0 -89 22 -111 140 -130v-39h-537v39c113 18 132 38 132 124v550h-670v-550z" />
    <glyph glyph-name="hcircumflex" unicode="&#x125;" horiz-adv-x="1225" 
d="M60 1571h-48l204 275h127l204 -275h-50l-218 142zM410 1486v-671c54 107 173 180 326 180c197 0 334 -100 334 -308v-543c0 -70 14 -88 118 -105v-39h-471v39c96 15 109 32 109 99v516c0 156 -76 232 -209 232c-96 0 -169 -44 -207 -109v-639c0 -67 13 -83 109 -99v-39
h-471v39c102 17 119 35 119 105v1159c0 57 -7 69 -63 88l-56 17v36z" />
    <glyph glyph-name="Hstroke" unicode="&#x126;" horiz-adv-x="1589" 
d="M459 163c0 -85 21 -105 133 -124v-39h-537v39c120 19 139 42 139 130v904h-139v51h139v151c0 88 -19 111 -139 130v39h537v-40c-112 -18 -133 -38 -133 -123v-157h670v157c0 86 -19 106 -132 124v39h537v-39c-118 -19 -140 -40 -140 -130v-151h140v-51h-140v-904
c0 -89 22 -111 140 -130v-39h-537v39c113 18 132 38 132 124v550h-670v-550zM459 765h670v308h-670v-308z" />
    <glyph glyph-name="hstroke" unicode="&#x127;" horiz-adv-x="1225" 
d="M519 39v-39h-471v39c102 17 119 35 119 105v1078h-119v51h119v192l243 21v-213h246v-51h-246v-407c54 107 173 180 326 180c197 0 334 -100 334 -308v-543c0 -70 14 -88 118 -105v-39h-471v39c96 15 109 32 109 99v516c0 156 -76 232 -209 232c-96 0 -169 -44 -207 -109
v-639c0 -67 13 -83 109 -99z" />
    <glyph glyph-name="Itilde" unicode="&#x128;" horiz-adv-x="654" 
d="M436 1555c-51 0 -93 22 -142 56l-29 19c-36 25 -59 37 -88 37c-40 0 -66 -29 -70 -120h-45c-7 181 62 247 154 247c53 0 94 -21 144 -56l29 -19c36 -25 59 -36 87 -36c40 0 66 28 71 119h44c8 -181 -62 -247 -155 -247zM459 169c0 -88 21 -111 140 -130v-39h-544v39
c120 19 139 42 139 130v1106c0 88 -19 111 -139 130v39h544v-39c-119 -19 -140 -42 -140 -130v-1106z" />
    <glyph glyph-name="itilde" unicode="&#x129;" horiz-adv-x="569" 
d="M374 1152c-49 0 -88 22 -136 60l-28 22c-33 27 -55 39 -82 39c-40 0 -64 -31 -67 -131h-41c-8 195 58 266 145 266c50 0 89 -23 137 -60l27 -22c34 -28 56 -40 83 -40c39 0 63 31 67 131h41c7 -194 -58 -265 -146 -265zM410 988v-844c0 -70 18 -88 119 -105v-39h-481v39
c102 17 119 35 119 105v661c0 57 -7 70 -63 88l-56 17v36z" />
    <glyph glyph-name="Imacron" unicode="&#x12a;" horiz-adv-x="654" 
d="M75 1598v116h504v-116h-504zM459 169c0 -88 21 -111 140 -130v-39h-544v39c120 19 139 42 139 130v1106c0 88 -19 111 -139 130v39h544v-39c-119 -19 -140 -42 -140 -130v-1106z" />
    <glyph glyph-name="imacron" unicode="&#x12b;" horiz-adv-x="569" 
d="M46 1198v136h447v-136h-447zM410 988v-844c0 -70 18 -88 119 -105v-39h-481v39c102 17 119 35 119 105v661c0 57 -7 70 -63 88l-56 17v36z" />
    <glyph glyph-name="Ibreve" unicode="&#x12c;" horiz-adv-x="654" 
d="M327 1581c-163 0 -252 122 -252 246c0 16 1 33 3 48h42v-4c0 -94 85 -159 206 -159s207 65 207 159v4h42c2 -15 3 -32 3 -48c0 -124 -88 -246 -251 -246zM459 169c0 -88 21 -111 140 -130v-39h-544v39c120 19 139 42 139 130v1106c0 88 -19 111 -139 130v39h544v-39
c-119 -19 -140 -42 -140 -130v-1106z" />
    <glyph glyph-name="ibreve" unicode="&#x12d;" horiz-adv-x="569" 
d="M270 1130c-167 0 -254 140 -254 280c0 19 1 37 4 55h41v-5c0 -105 86 -177 209 -177c122 0 209 72 209 177v5h41c3 -18 4 -36 4 -55c0 -140 -88 -280 -254 -280zM410 988v-844c0 -70 18 -88 119 -105v-39h-481v39c102 17 119 35 119 105v661c0 57 -7 70 -63 88l-56 17v36
z" />
    <glyph glyph-name="Iogonek" unicode="&#x12e;" horiz-adv-x="654" 
d="M459 169c0 -88 21 -111 140 -130v-39h-235c-27 -39 -43 -100 -43 -167c0 -111 59 -196 132 -196c34 0 63 15 78 35l1 -39c-27 -66 -100 -111 -188 -111c-110 0 -193 74 -193 185c0 110 68 214 170 293h-266v39c120 19 139 42 139 130v1106c0 88 -19 111 -139 130v39h544
v-39c-119 -19 -140 -42 -140 -130v-1106z" />
    <glyph glyph-name="iogonek" unicode="&#x12f;" horiz-adv-x="570" 
d="M270 1158c-69 0 -126 54 -126 122s57 122 126 122s126 -54 126 -122s-57 -122 -126 -122zM299 -478c-99 0 -189 68 -189 184c0 101 63 203 170 294h-232v39c102 17 119 35 119 105v661c0 57 -7 70 -63 88l-56 17v36l362 42v-844c0 -70 18 -88 119 -105v-39h-207
c-23 -43 -38 -96 -38 -151c4 -129 60 -216 134 -216c33 0 61 12 76 30l1 -39c-30 -58 -104 -102 -196 -102z" />
    <glyph glyph-name="Idotaccent" unicode="&#x130;" horiz-adv-x="654" 
d="M327 1567c-61 0 -110 47 -110 106s49 104 110 104s109 -45 109 -104s-48 -106 -109 -106zM459 169c0 -88 21 -111 140 -130v-39h-544v39c120 19 139 42 139 130v1106c0 88 -19 111 -139 130v39h544v-39c-119 -19 -140 -42 -140 -130v-1106z" />
    <glyph glyph-name="dotlessi" unicode="&#x131;" horiz-adv-x="569" 
d="M410 988v-844c0 -70 18 -88 119 -105v-39h-481v39c102 17 119 35 119 105v661c0 57 -7 70 -63 88l-56 17v36z" />
    <glyph glyph-name="IJ" unicode="&#x132;" horiz-adv-x="1308" 
d="M459 169c0 -88 21 -111 140 -130v-39h-544v39c120 19 139 42 139 130v1106c0 88 -19 111 -139 130v39h544v-39c-119 -19 -140 -42 -140 -130v-1106zM1113 259c0 -354 -178 -510 -517 -668l-20 33c204 139 272 301 272 649v1002c0 88 -20 111 -139 130v39h543v-39
c-119 -19 -139 -42 -139 -130v-1016z" />
    <glyph glyph-name="ij" unicode="&#x133;" horiz-adv-x="1116" 
d="M270 1149c-75 0 -135 57 -135 129c0 74 60 130 135 130s135 -56 135 -130c0 -72 -60 -129 -135 -129zM830 1149c-75 0 -136 57 -136 129c0 74 61 130 136 130c74 0 135 -56 135 -130c0 -72 -61 -129 -135 -129zM410 988v-844c0 -70 18 -88 119 -105v-39h-481v39
c102 17 119 35 119 105v661c0 57 -7 70 -63 88l-56 17v36zM970 988v-811c0 -319 -87 -434 -354 -610l-62 -42l-24 33c157 137 197 274 197 577v670c0 57 -8 70 -63 88l-56 17v36z" />
    <glyph glyph-name="Jcircumflex" unicode="&#x134;" horiz-adv-x="654" 
d="M119 1534h-48l204 275h127l204 -275h-50l-218 142zM459 259c0 -354 -178 -510 -517 -668l-19 33c203 139 271 301 271 649v1002c0 88 -19 111 -139 130v39h544v-39c-119 -19 -140 -42 -140 -130v-1016z" />
    <glyph glyph-name="jcircumflex" unicode="&#x135;" horiz-adv-x="547" 
d="M25 1093h-50l225 360h121l225 -360h-51l-234 191zM401 988v-811c0 -319 -87 -434 -354 -610l-62 -42l-24 33c157 137 197 274 197 577v670c0 57 -8 70 -63 88l-56 17v36z" />
    <glyph glyph-name="Kcommaaccent" unicode="&#x136;" horiz-adv-x="1370" 
d="M459 163c0 -85 21 -105 133 -124v-39h-537v39c120 19 139 42 139 130v1106c0 88 -19 111 -139 130v39h537v-40c-112 -18 -133 -38 -133 -123v-510l129 1l341 406c138 163 136 211 1 227v39h413v-39c-109 -26 -191 -86 -342 -243c-83 -85 -162 -172 -232 -249l359 -595
c125 -206 176 -258 246 -281v-37h-349l-436 722l-130 1v-560zM731 -453c-89 0 -165 38 -198 87v37c32 -25 81 -44 135 -44c64 0 108 29 108 77c0 49 -46 77 -107 77c-31 0 -61 -8 -78 -16v36c27 41 84 80 166 80c112 0 194 -63 194 -165s-90 -169 -220 -169z" />
    <glyph glyph-name="kcommaaccent" unicode="&#x137;" horiz-adv-x="1118" 
d="M808 0l-291 496l-107 2v-360c0 -67 13 -83 109 -99v-39h-471v39c102 17 119 35 119 105v1159c0 57 -7 69 -63 88l-56 17v36l362 42v-940l106 3l220 241c82 88 74 127 -40 147v40h382v-40c-105 -23 -157 -53 -297 -179l-96 -89l254 -434c83 -145 128 -183 190 -198v-37
h-321zM607 -453c-89 0 -165 38 -198 87v37c32 -25 81 -44 135 -44c64 0 108 29 108 77c0 49 -46 77 -107 77c-31 0 -61 -8 -78 -16v36c28 41 84 80 166 80c112 0 194 -63 194 -165s-90 -169 -220 -169z" />
    <glyph glyph-name="Lacute" unicode="&#x139;" horiz-adv-x="1137" 
d="M277 1534l-50 1l128 275h251v-5zM1080 0h-1025v39c120 19 139 42 139 130v1106c0 88 -19 111 -139 130v39h555v-39c-131 -18 -151 -46 -151 -143v-1216l172 7c273 12 365 79 429 361h37z" />
    <glyph glyph-name="lacute" unicode="&#x13a;" horiz-adv-x="571" 
d="M225 1534l-50 1l128 275h252v-5zM410 1486v-1342c0 -70 18 -88 119 -105v-39h-481v39c102 17 119 35 119 105v1159c0 57 -7 69 -63 88l-56 17v36z" />
    <glyph glyph-name="Lcommaaccent" unicode="&#x13b;" horiz-adv-x="1137" 
d="M1080 0h-1025v39c120 19 139 42 139 130v1106c0 88 -19 111 -139 130v39h555v-39c-131 -18 -151 -46 -151 -143v-1216l172 7c273 12 365 79 429 361h37zM599 -453c-88 0 -165 38 -197 87v37c31 -25 81 -44 135 -44c63 0 107 29 107 77c0 49 -45 77 -106 77
c-31 0 -62 -8 -79 -16v36c28 41 85 80 167 80c112 0 194 -63 194 -165s-91 -169 -221 -169z" />
    <glyph glyph-name="lcommaaccent" unicode="&#x13c;" horiz-adv-x="571" 
d="M410 1486v-1342c0 -70 18 -88 119 -105v-39h-481v39c102 17 119 35 119 105v1159c0 57 -7 69 -63 88l-56 17v36zM282 -453c-89 0 -165 38 -198 87v37c31 -25 81 -44 135 -44c63 0 108 29 108 77c0 49 -46 77 -107 77c-31 0 -61 -8 -79 -16v36c28 41 85 80 167 80
c112 0 194 -63 194 -165s-90 -169 -220 -169z" />
    <glyph glyph-name="Lcaron" unicode="&#x13d;" horiz-adv-x="1137" 
d="M829 1115h-38l43 405h192zM1080 0h-1025v39c120 19 139 42 139 130v1106c0 88 -19 111 -139 130v39h555v-39c-131 -18 -151 -46 -151 -143v-1216l172 7c273 12 365 79 429 361h37z" />
    <glyph glyph-name="lcaron" unicode="&#x13e;" horiz-adv-x="571" 
d="M410 1486v-1342c0 -70 18 -88 119 -105v-39h-481v39c102 17 119 35 119 105v1159c0 57 -7 69 -63 88l-56 17v36zM579 1073h-38l43 405h192z" />
    <glyph glyph-name="Ldot" unicode="&#x13f;" horiz-adv-x="1137" 
d="M1080 0h-1025v39c120 19 139 42 139 130v1106c0 88 -19 111 -139 130v39h555v-39c-131 -18 -151 -46 -151 -143v-1216l172 7c273 12 365 79 429 361h37zM828 693c-71 0 -129 54 -129 123c0 70 58 124 129 124s129 -54 129 -124c0 -69 -58 -123 -129 -123z" />
    <glyph glyph-name="ldot" unicode="&#x140;" horiz-adv-x="717" 
d="M410 1486v-1342c0 -70 18 -88 119 -105v-39h-481v39c102 17 119 35 119 105v1159c0 57 -7 69 -63 88l-56 17v36zM644 605c-68 0 -122 51 -122 117s55 117 122 117s122 -51 122 -117s-55 -117 -122 -117z" />
    <glyph glyph-name="Lstroke" unicode="&#x141;" horiz-adv-x="1137" 
d="M55 634v56l139 40v545c0 88 -19 111 -139 130v39h555v-39c-131 -18 -151 -46 -151 -143v-456l347 99v-55l-347 -100v-704l172 7c273 12 365 79 429 361h37l-17 -414h-1025v39c120 19 139 42 139 130v505z" />
    <glyph glyph-name="lstroke" unicode="&#x142;" horiz-adv-x="571" 
d="M48 721v56l119 41v485c0 57 -7 69 -63 88l-56 17v36l362 42v-585l127 44v-55l-127 -44v-702c0 -70 18 -88 119 -105v-39h-481v39c102 17 119 35 119 105v618z" />
    <glyph glyph-name="Nacute" unicode="&#x143;" horiz-adv-x="1456" 
d="M706 1534l-49 1l128 275h251v-5zM451 1444l775 -1164l-20 902c-3 168 -21 206 -151 223v39h379v-39c-125 -19 -143 -57 -146 -223l-11 -1182h-193l-855 1283l18 -1021c2 -168 22 -206 151 -223v-39h-379v39c125 19 144 57 146 223l11 981c0 106 -29 139 -134 162v39h409z
" />
    <glyph glyph-name="nacute" unicode="&#x144;" horiz-adv-x="1225" 
d="M556 1093h-50l146 360h251v-7zM408 988v-175c53 107 174 182 328 182c197 0 334 -100 334 -308v-543c0 -70 14 -88 118 -105v-39h-471v39c96 15 109 32 109 99v516c0 156 -76 232 -209 232c-96 0 -169 -44 -207 -109v-639c0 -67 13 -83 109 -99v-39h-471v39
c102 17 119 35 119 105v661c0 57 -7 70 -63 88l-56 17v36z" />
    <glyph glyph-name="Ncommaaccent" unicode="&#x145;" horiz-adv-x="1456" 
d="M451 1444l775 -1164l-20 902c-3 168 -21 206 -151 223v39h379v-39c-125 -19 -143 -57 -146 -223l-11 -1182h-193l-855 1283l18 -1021c2 -168 22 -206 151 -223v-39h-379v39c125 19 144 57 146 223l11 981c0 106 -29 139 -134 162v39h409zM708 -453c-89 0 -165 38 -198 87
l1 37c31 -25 80 -44 134 -44c64 0 108 29 108 77c0 49 -46 77 -107 77c-31 0 -61 -8 -78 -16v36c28 41 84 80 166 80c112 0 195 -63 195 -165s-91 -169 -221 -169z" />
    <glyph glyph-name="ncommaaccent" unicode="&#x146;" horiz-adv-x="1225" 
d="M408 988v-175c53 107 174 182 328 182c197 0 334 -100 334 -308v-543c0 -70 14 -88 118 -105v-39h-471v39c96 15 109 32 109 99v516c0 156 -76 232 -209 232c-96 0 -169 -44 -207 -109v-639c0 -67 13 -83 109 -99v-39h-471v39c102 17 119 35 119 105v661
c0 57 -7 70 -63 88l-56 17v36zM612 -453c-89 0 -165 38 -198 87v37c32 -25 81 -44 135 -44c64 0 108 29 108 77c0 49 -46 77 -107 77c-31 0 -61 -8 -79 -16v36c28 41 85 80 167 80c112 0 194 -63 194 -165s-90 -169 -220 -169z" />
    <glyph glyph-name="Ncaron" unicode="&#x147;" horiz-adv-x="1456" 
d="M988 1828h47l-203 -275h-127l-204 275h50l218 -141zM451 1444l775 -1164l-20 902c-3 168 -21 206 -151 223v39h379v-39c-125 -19 -143 -57 -146 -223l-11 -1182h-193l-855 1283l18 -1021c2 -168 22 -206 151 -223v-39h-379v39c125 19 144 57 146 223l11 981
c0 106 -29 139 -134 162v39h409z" />
    <glyph glyph-name="ncaron" unicode="&#x148;" horiz-adv-x="1225" 
d="M854 1477h49l-224 -360h-122l-224 360h50l234 -191zM408 988v-175c53 107 174 182 328 182c197 0 334 -100 334 -308v-543c0 -70 14 -88 118 -105v-39h-471v39c96 15 109 32 109 99v516c0 156 -76 232 -209 232c-96 0 -169 -44 -207 -109v-639c0 -67 13 -83 109 -99v-39
h-471v39c102 17 119 35 119 105v661c0 57 -7 70 -63 88l-56 17v36z" />
    <glyph glyph-name="Omacron" unicode="&#x14c;" horiz-adv-x="1651" 
d="M569 1598v116h504v-116h-504zM91 721c0 414 290 745 732 745c388 0 737 -285 737 -742c0 -414 -291 -746 -733 -746c-387 0 -736 286 -736 743zM386 736c0 -404 171 -701 449 -701c306 0 430 285 430 674c0 404 -172 700 -448 700c-307 0 -431 -284 -431 -673z" />
    <glyph glyph-name="omacron" unicode="&#x14d;" horiz-adv-x="1199" 
d="M320 1198v136h558v-136h-558zM597 -19c-290 0 -515 198 -515 505c0 301 227 509 521 509c289 0 515 -198 515 -504c0 -300 -228 -510 -521 -510zM603 36c160 0 252 173 252 444c0 280 -103 461 -259 461c-160 0 -252 -173 -252 -444c0 -280 103 -461 259 -461z" />
    <glyph glyph-name="Obreve" unicode="&#x14e;" horiz-adv-x="1651" 
d="M820 1581c-163 0 -252 122 -252 246c0 16 1 33 3 48h42v-4c0 -94 86 -159 206 -159c122 0 208 65 208 159v4h41c3 -15 4 -32 4 -48c0 -124 -89 -246 -252 -246zM91 721c0 414 290 745 732 745c388 0 737 -285 737 -742c0 -414 -291 -746 -733 -746
c-387 0 -736 286 -736 743zM386 736c0 -404 171 -701 449 -701c306 0 430 285 430 674c0 404 -172 700 -448 700c-307 0 -431 -284 -431 -673z" />
    <glyph glyph-name="obreve" unicode="&#x14f;" horiz-adv-x="1199" 
d="M599 1130c-185 0 -282 140 -282 280c0 19 1 37 4 55h46v-5c0 -105 96 -177 232 -177s233 72 233 177v5h45c3 -18 4 -36 4 -55c0 -140 -97 -280 -282 -280zM597 -19c-290 0 -515 198 -515 505c0 301 227 509 521 509c289 0 515 -198 515 -504c0 -300 -228 -510 -521 -510z
M603 36c160 0 252 173 252 444c0 280 -103 461 -259 461c-160 0 -252 -173 -252 -444c0 -280 103 -461 259 -461z" />
    <glyph glyph-name="Ohungarumlaut" unicode="&#x150;" horiz-adv-x="1651" 
d="M704 1810h211v-5l-220 -271h-50zM1034 1810h227v-5l-301 -271h-53zM91 721c0 414 290 745 732 745c388 0 737 -285 737 -742c0 -414 -291 -746 -733 -746c-387 0 -736 286 -736 743zM386 736c0 -404 171 -701 449 -701c306 0 430 285 430 674c0 404 -172 700 -448 700
c-307 0 -431 -284 -431 -673z" />
    <glyph glyph-name="ohungarumlaut" unicode="&#x151;" horiz-adv-x="1199" 
d="M477 1453h214v-7l-240 -353h-50zM832 1453h228v-7l-321 -353h-53zM597 -19c-290 0 -515 198 -515 505c0 301 227 509 521 509c289 0 515 -198 515 -504c0 -300 -228 -510 -521 -510zM603 36c160 0 252 173 252 444c0 280 -103 461 -259 461c-160 0 -252 -173 -252 -444
c0 -280 103 -461 259 -461z" />
    <glyph glyph-name="OE" unicode="&#x152;" horiz-adv-x="2041" 
d="M91 718c0 419 296 748 751 748c148 0 215 -22 389 -22h688l15 -359h-37c-55 231 -141 293 -418 305l-197 8v-635l251 5c122 5 149 52 179 204h35v-465h-35c-28 151 -55 199 -179 204l-251 6v-671l232 9c292 14 373 72 430 342h37l-17 -397h-735c-141 0 -247 -22 -391 -22
c-406 0 -747 304 -747 740zM380 727c0 -404 182 -693 474 -693c59 0 117 8 163 26v1319c-44 22 -101 31 -163 31c-320 0 -474 -289 -474 -683z" />
    <glyph glyph-name="oe" unicode="&#x153;" horiz-adv-x="1816" 
d="M596 -19c-296 0 -514 198 -514 506c0 296 229 508 515 508c156 0 290 -62 377 -171c81 106 203 171 354 171c259 0 413 -166 413 -406c0 -21 -2 -44 -4 -58h-641c15 -268 164 -441 379 -441c106 0 190 39 245 93v-40c-67 -91 -203 -162 -373 -162
c-156 0 -290 65 -376 177c-89 -111 -224 -177 -375 -177zM604 36c162 0 248 160 248 440c0 281 -97 465 -260 465s-249 -161 -249 -441c0 -281 98 -464 261 -464zM1326 941c-144 0 -231 -131 -231 -364l420 4c2 15 2 32 2 53c0 179 -61 307 -191 307z" />
    <glyph glyph-name="Racute" unicode="&#x154;" horiz-adv-x="1348" 
d="M582 1534l-50 1l128 275h251v-5zM1199 1060c0 -174 -123 -298 -293 -339l208 -415c112 -214 156 -251 215 -269v-37h-331l-334 667h-205v-504c0 -83 21 -104 133 -124v-39h-537v39c120 22 139 43 139 130v1106c0 91 -19 112 -139 130v39h554c392 0 590 -149 590 -384z
M931 1044c0 196 -107 341 -375 351l-97 3v-686l121 5c215 7 351 119 351 327z" />
    <glyph glyph-name="racute" unicode="&#x155;" horiz-adv-x="833" 
d="M397 1093h-50l146 360h251v-7zM408 988v-237c108 163 190 240 279 240c77 0 111 -55 111 -120c0 -34 -10 -67 -21 -84c-22 7 -68 14 -114 14c-100 0 -204 -31 -253 -80v-569c0 -77 15 -96 131 -113v-39h-493v39c104 16 119 34 119 102v664c0 57 -8 70 -63 88l-56 17v36z
" />
    <glyph glyph-name="Rcommaaccent" unicode="&#x156;" horiz-adv-x="1348" 
d="M1199 1060c0 -174 -123 -298 -293 -339l208 -415c112 -214 156 -251 215 -269v-37h-331l-334 667h-205v-504c0 -83 21 -104 133 -124v-39h-537v39c120 22 139 43 139 130v1106c0 91 -19 112 -139 130v39h554c392 0 590 -149 590 -384zM931 1044c0 196 -107 341 -375 351
l-97 3v-686l121 5c215 7 351 119 351 327zM680 -453c-88 0 -165 38 -198 87l1 37c31 -25 80 -44 134 -44c64 0 108 29 108 77c0 49 -46 77 -107 77c-31 0 -61 -8 -78 -16v36c28 41 84 80 166 80c112 0 195 -63 195 -165s-91 -169 -221 -169z" />
    <glyph glyph-name="rcommaaccent" unicode="&#x157;" horiz-adv-x="833" 
d="M408 988v-237c108 163 190 240 279 240c77 0 111 -55 111 -120c0 -34 -10 -67 -21 -84c-22 7 -68 14 -114 14c-100 0 -204 -31 -253 -80v-569c0 -77 15 -96 131 -113v-39h-493v39c104 16 119 34 119 102v664c0 57 -8 70 -63 88l-56 17v36zM285 -453
c-89 0 -165 38 -198 87v37c31 -25 81 -44 135 -44c63 0 108 29 108 77c0 49 -46 77 -107 77c-31 0 -61 -8 -79 -16v36c28 41 85 80 167 80c112 0 194 -63 194 -165s-90 -169 -220 -169z" />
    <glyph glyph-name="Rcaron" unicode="&#x158;" horiz-adv-x="1348" 
d="M863 1828h47l-203 -275h-127l-204 275h50l218 -141zM1199 1060c0 -174 -123 -298 -293 -339l208 -415c112 -214 156 -251 215 -269v-37h-331l-334 667h-205v-504c0 -83 21 -104 133 -124v-39h-537v39c120 22 139 43 139 130v1106c0 91 -19 112 -139 130v39h554
c392 0 590 -149 590 -384zM931 1044c0 196 -107 341 -375 351l-97 3v-686l121 5c215 7 351 119 351 327z" />
    <glyph glyph-name="rcaron" unicode="&#x159;" horiz-adv-x="833" 
d="M695 1477h49l-224 -360h-122l-224 360h50l234 -191zM408 988v-237c108 163 190 240 279 240c77 0 111 -55 111 -120c0 -34 -10 -67 -21 -84c-22 7 -68 14 -114 14c-100 0 -204 -31 -253 -80v-569c0 -77 15 -96 131 -113v-39h-493v39c104 16 119 34 119 102v664
c0 57 -8 70 -63 88l-56 17v36z" />
    <glyph glyph-name="Sacute" unicode="&#x15a;" horiz-adv-x="1172" 
d="M556 1534l-49 1l128 275h251v-5zM562 -22c-204 0 -363 48 -454 106l-14 348h36c58 -263 230 -397 433 -397c176 0 296 104 296 264c0 143 -88 231 -282 303l-111 39c-235 85 -363 222 -363 424c0 258 218 401 513 401c180 0 314 -42 382 -91l12 -321h-37
c-52 227 -178 355 -359 355c-185 0 -285 -97 -285 -238c0 -143 100 -223 284 -290l108 -40c241 -89 365 -229 365 -434c0 -263 -236 -429 -524 -429z" />
    <glyph glyph-name="sacute" unicode="&#x15b;" horiz-adv-x="917" 
d="M401 1093h-50l145 360h252v-7zM89 701c0 187 164 294 398 294c140 0 247 -30 297 -60l5 -253h-38c-33 167 -133 258 -262 258c-123 0 -194 -62 -194 -151c0 -88 67 -132 186 -171l78 -25c179 -57 279 -152 279 -312c0 -189 -189 -298 -402 -298c-144 0 -275 33 -343 78
l-11 272h37c40 -188 175 -296 314 -296c122 0 199 68 199 160c0 90 -55 142 -181 182l-78 26c-178 57 -284 145 -284 296z" />
    <glyph glyph-name="Scircumflex" unicode="&#x15c;" horiz-adv-x="1172" 
d="M400 1534h-48l204 275h127l204 -275h-50l-218 142zM562 -22c-204 0 -363 48 -454 106l-14 348h36c58 -263 230 -397 433 -397c176 0 296 104 296 264c0 143 -88 231 -282 303l-111 39c-235 85 -363 222 -363 424c0 258 218 401 513 401c180 0 314 -42 382 -91l12 -321
h-37c-52 227 -178 355 -359 355c-185 0 -285 -97 -285 -238c0 -143 100 -223 284 -290l108 -40c241 -89 365 -229 365 -434c0 -263 -236 -429 -524 -429z" />
    <glyph glyph-name="scircumflex" unicode="&#x15d;" horiz-adv-x="917" 
d="M227 1093h-50l225 360h121l225 -360h-51l-234 191zM89 701c0 187 164 294 398 294c140 0 247 -30 297 -60l5 -253h-38c-33 167 -133 258 -262 258c-123 0 -194 -62 -194 -151c0 -88 67 -132 186 -171l78 -25c179 -57 279 -152 279 -312c0 -189 -189 -298 -402 -298
c-144 0 -275 33 -343 78l-11 272h37c40 -188 175 -296 314 -296c122 0 199 68 199 160c0 90 -55 142 -181 182l-78 26c-178 57 -284 145 -284 296z" />
    <glyph glyph-name="Scedilla" unicode="&#x15e;" horiz-adv-x="1172" 
d="M556 -451c-87 0 -164 34 -198 88v39c26 -23 71 -40 118 -40c58 0 104 29 104 79c0 52 -46 81 -106 81c-20 0 -40 -4 -48 -9v34l121 157c-197 3 -351 49 -439 106l-14 348h36c58 -263 230 -397 433 -397c176 0 296 104 296 264c0 143 -88 231 -282 303l-111 39
c-235 85 -363 222 -363 424c0 258 218 401 513 401c180 0 314 -42 382 -91l12 -321h-37c-52 227 -178 355 -359 355c-185 0 -285 -97 -285 -238c0 -143 100 -223 284 -290l108 -40c241 -89 365 -229 365 -434c0 -252 -216 -414 -486 -428l-78 -103c15 4 32 7 50 7
c109 -1 197 -63 197 -166c0 -109 -104 -168 -213 -168z" />
    <glyph glyph-name="scedilla" unicode="&#x15f;" horiz-adv-x="917" 
d="M423 -451c-87 0 -164 34 -198 88v39c26 -23 71 -40 118 -40c58 0 104 29 104 79c0 52 -46 81 -106 81c-20 0 -40 -4 -48 -9l-1 34l126 162c-137 3 -260 35 -325 78l-11 272h37c40 -188 175 -296 314 -296c122 0 199 68 199 160c0 90 -55 142 -181 182l-78 26
c-178 57 -284 145 -284 296c0 187 164 294 398 294c140 0 247 -30 297 -60l5 -253h-38c-33 167 -133 258 -262 258c-123 0 -194 -62 -194 -151c0 -88 67 -132 186 -171l78 -25c179 -57 279 -152 279 -312c0 -179 -169 -286 -368 -297l-82 -108c15 4 33 7 51 7
c109 -1 197 -63 197 -166c0 -109 -104 -168 -213 -168z" />
    <glyph glyph-name="Scaron" unicode="&#x160;" horiz-adv-x="1172" 
d="M838 1828h47l-203 -275h-127l-204 275h50l218 -141zM562 -22c-204 0 -363 48 -454 106l-14 348h36c58 -263 230 -397 433 -397c176 0 296 104 296 264c0 143 -88 231 -282 303l-111 39c-235 85 -363 222 -363 424c0 258 218 401 513 401c180 0 314 -42 382 -91l12 -321
h-37c-52 227 -178 355 -359 355c-185 0 -285 -97 -285 -238c0 -143 100 -223 284 -290l108 -40c241 -89 365 -229 365 -434c0 -263 -236 -429 -524 -429z" />
    <glyph glyph-name="scaron" unicode="&#x161;" horiz-adv-x="917" 
d="M698 1477h50l-225 -360h-121l-225 360h51l234 -191zM89 701c0 187 164 294 398 294c140 0 247 -30 297 -60l5 -253h-38c-33 167 -133 258 -262 258c-123 0 -194 -62 -194 -151c0 -88 67 -132 186 -171l78 -25c179 -57 279 -152 279 -312c0 -189 -189 -298 -402 -298
c-144 0 -275 33 -343 78l-11 272h37c40 -188 175 -296 314 -296c122 0 199 68 199 160c0 90 -55 142 -181 182l-78 26c-178 57 -284 145 -284 296z" />
    <glyph glyph-name="Tcedilla" unicode="&#x162;" horiz-adv-x="1307" 
d="M633 -451c-87 0 -163 34 -198 88v39c26 -23 71 -40 119 -40c57 0 102 29 102 79c0 52 -45 81 -105 81c-21 0 -41 -4 -49 -9v34l133 179h-264v39c130 18 150 47 150 144v1215l-54 -3c-256 -18 -340 -76 -389 -310h-37l14 359h1196l15 -359h-37c-49 232 -132 292 -390 310
l-53 3v-1215c0 -97 20 -126 151 -144v-39h-250l-91 -125c16 5 34 8 54 8c108 -1 195 -64 195 -166c0 -109 -103 -168 -212 -168z" />
    <glyph glyph-name="tcedilla" unicode="&#x163;" horiz-adv-x="678" 
d="M158 272v629h-121v31l339 257h24v-225l255 13v-76l-255 13v-642c0 -138 63 -189 150 -189c47 0 91 17 119 43v-39c-33 -51 -116 -98 -219 -105l-80 -106c15 4 32 7 51 7c108 -1 196 -63 196 -166c0 -109 -104 -168 -213 -168c-87 0 -163 34 -198 88v39
c26 -23 71 -40 119 -40c58 0 103 29 103 79c0 52 -46 81 -106 81c-20 0 -40 -4 -48 -9v34l125 161c-139 10 -241 96 -241 290z" />
    <glyph glyph-name="Tcaron" unicode="&#x164;" horiz-adv-x="1307" 
d="M883 1828h48l-204 -275h-127l-204 275h50l218 -141zM1251 1444l15 -359h-37c-49 232 -132 292 -390 310l-53 3v-1215c0 -97 20 -126 151 -144v-39h-566v39c130 18 150 47 150 144v1215l-54 -3c-256 -18 -340 -76 -389 -310h-37l14 359h1196z" />
    <glyph glyph-name="tcaron" unicode="&#x165;" horiz-adv-x="678" 
d="M582 1073h-38l44 405h192zM158 272v629h-121v31l339 257h24v-225l255 13v-76l-255 13v-642c0 -138 63 -189 150 -189c47 0 91 17 119 43v-39c-36 -55 -129 -106 -244 -106c-152 0 -267 85 -267 291z" />
    <glyph glyph-name="Tstroke" unicode="&#x166;" horiz-adv-x="1307" 
d="M249 714v52h272v632l-54 -3c-256 -18 -340 -76 -389 -310h-37l14 359h1196l15 -359h-37c-49 232 -132 292 -390 310l-53 3v-632h272v-52h-272v-531c0 -97 20 -126 151 -144v-39h-566v39c130 18 150 47 150 144v531h-272z" />
    <glyph glyph-name="tstroke" unicode="&#x167;" horiz-adv-x="678" 
d="M158 272v254h-108v51h108v324h-121v31l339 257h24v-225l255 13v-76l-255 13v-337h272v-51h-272v-255c0 -137 63 -188 150 -188c48 0 91 17 119 43v-39c-36 -55 -129 -106 -244 -106c-152 0 -267 85 -267 291z" />
    <glyph glyph-name="Utilde" unicode="&#x168;" horiz-adv-x="1468" 
d="M918 1555c-52 0 -93 22 -143 56l-29 19c-36 25 -59 37 -87 37c-41 0 -67 -29 -71 -120h-45c-7 181 62 247 154 247c53 0 94 -21 144 -56l30 -19c35 -25 58 -36 87 -36c40 0 65 28 70 119h44c8 -181 -62 -247 -154 -247zM164 1281c0 85 -21 105 -132 124v39h537v-39
c-120 -19 -140 -42 -140 -130v-712c0 -338 168 -492 404 -492c245 0 408 182 404 488l-9 624c-3 165 -22 202 -152 222v39h372v-40c-119 -17 -138 -56 -141 -220l-9 -637c-5 -342 -196 -569 -556 -569c-304 0 -578 167 -578 583v720z" />
    <glyph glyph-name="utilde" unicode="&#x169;" horiz-adv-x="1199" 
d="M710 1152c-55 0 -99 22 -152 60l-31 22c-37 27 -61 39 -92 39c-43 0 -70 -31 -74 -131h-45c-9 195 64 266 161 266c55 0 98 -23 152 -60l30 -22c38 -28 62 -40 92 -40c44 0 71 31 75 131h45c8 -194 -64 -265 -161 -265zM390 988v-662c0 -158 73 -236 206 -236
c92 0 163 45 200 109v606c0 57 -7 70 -62 88l-57 17v36l362 42v-816c0 -58 8 -70 63 -89l56 -16v-36l-360 -41v174c-54 -108 -171 -183 -325 -183c-193 0 -327 101 -327 312v512c0 57 -8 70 -62 88l-56 17v36z" />
    <glyph glyph-name="Umacron" unicode="&#x16a;" horiz-adv-x="1468" 
d="M557 1598v116h503v-116h-503zM164 1281c0 85 -21 105 -132 124v39h537v-39c-120 -19 -140 -42 -140 -130v-712c0 -338 168 -492 404 -492c245 0 408 182 404 488l-9 624c-3 165 -22 202 -152 222v39h372v-40c-119 -17 -138 -56 -141 -220l-9 -637
c-5 -342 -196 -569 -556 -569c-304 0 -578 167 -578 583v720z" />
    <glyph glyph-name="umacron" unicode="&#x16b;" horiz-adv-x="1199" 
d="M314 1198v136h559v-136h-559zM390 988v-662c0 -158 73 -236 206 -236c92 0 163 45 200 109v606c0 57 -7 70 -62 88l-57 17v36l362 42v-816c0 -58 8 -70 63 -89l56 -16v-36l-360 -41v174c-54 -108 -171 -183 -325 -183c-193 0 -327 101 -327 312v512c0 57 -8 70 -62 88
l-56 17v36z" />
    <glyph glyph-name="Ubreve" unicode="&#x16c;" horiz-adv-x="1468" 
d="M808 1581c-163 0 -252 122 -252 246c0 16 1 33 3 48h42v-4c0 -94 86 -159 206 -159c122 0 208 65 208 159v4h41c2 -15 4 -32 4 -48c0 -124 -89 -246 -252 -246zM164 1281c0 85 -21 105 -132 124v39h537v-39c-120 -19 -140 -42 -140 -130v-712c0 -338 168 -492 404 -492
c245 0 408 182 404 488l-9 624c-3 165 -22 202 -152 222v39h372v-40c-119 -17 -138 -56 -141 -220l-9 -637c-5 -342 -196 -569 -556 -569c-304 0 -578 167 -578 583v720z" />
    <glyph glyph-name="ubreve" unicode="&#x16d;" horiz-adv-x="1199" 
d="M593 1130c-184 0 -282 140 -282 280c0 19 2 37 5 55h45v-5c0 -105 96 -177 232 -177c137 0 233 72 233 177v5h45c3 -18 5 -36 5 -55c0 -140 -98 -280 -283 -280zM390 988v-662c0 -158 73 -236 206 -236c92 0 163 45 200 109v606c0 57 -7 70 -62 88l-57 17v36l362 42v-816
c0 -58 8 -70 63 -89l56 -16v-36l-360 -41v174c-54 -108 -171 -183 -325 -183c-193 0 -327 101 -327 312v512c0 57 -8 70 -62 88l-56 17v36z" />
    <glyph glyph-name="Uring" unicode="&#x16e;" horiz-adv-x="1468" 
d="M573 1721c0 102 107 167 235 167c129 0 235 -65 235 -167s-107 -165 -235 -165s-235 63 -235 165zM722 1721c0 -74 34 -125 86 -125c51 0 86 51 86 125c0 73 -35 126 -86 126c-52 0 -86 -53 -86 -126zM164 1281c0 85 -21 105 -132 124v39h537v-39
c-120 -19 -140 -42 -140 -130v-712c0 -338 168 -492 404 -492c245 0 408 182 404 488l-9 624c-3 165 -22 202 -152 222v39h372v-40c-119 -17 -138 -56 -141 -220l-9 -637c-5 -342 -196 -569 -556 -569c-304 0 -578 167 -578 583v720z" />
    <glyph glyph-name="uring" unicode="&#x16f;" horiz-adv-x="1199" 
d="M334 1283c0 113 117 184 259 184c143 0 260 -71 260 -183c0 -113 -117 -182 -260 -182c-142 0 -259 69 -259 181zM498 1283c0 -83 38 -138 95 -138c58 0 96 55 96 139c0 81 -38 140 -96 140c-57 0 -95 -59 -95 -141zM390 988v-662c0 -158 73 -236 206 -236
c92 0 163 45 200 109v606c0 57 -7 70 -62 88l-57 17v36l362 42v-816c0 -58 8 -70 63 -89l56 -16v-36l-360 -41v174c-54 -108 -171 -183 -325 -183c-193 0 -327 101 -327 312v512c0 57 -8 70 -62 88l-56 17v36z" />
    <glyph glyph-name="Uhungarumlaut" unicode="&#x170;" horiz-adv-x="1468" 
d="M691 1810h211v-5l-219 -271h-50zM1022 1810h227v-5l-301 -271h-53zM164 1281c0 85 -21 105 -132 124v39h537v-39c-120 -19 -140 -42 -140 -130v-712c0 -338 168 -492 404 -492c245 0 408 182 404 488l-9 624c-3 165 -22 202 -152 222v39h372v-40
c-119 -17 -138 -56 -141 -220l-9 -637c-5 -342 -196 -569 -556 -569c-304 0 -578 167 -578 583v720z" />
    <glyph glyph-name="uhungarumlaut" unicode="&#x171;" horiz-adv-x="1199" 
d="M471 1453h214v-7l-240 -353h-50zM826 1453h229v-7l-322 -353h-53zM390 988v-662c0 -158 73 -236 206 -236c92 0 163 45 200 109v606c0 57 -7 70 -62 88l-57 17v36l362 42v-816c0 -58 8 -70 63 -89l56 -16v-36l-360 -41v174c-54 -108 -171 -183 -325 -183
c-193 0 -327 101 -327 312v512c0 57 -8 70 -62 88l-56 17v36z" />
    <glyph glyph-name="Uogonek" unicode="&#x172;" horiz-adv-x="1468" 
d="M798 -478c-110 0 -193 74 -193 183c0 101 62 197 160 274c-8 -1 -15 -1 -23 -1c-304 0 -578 167 -578 583v720c0 85 -21 105 -132 124v39h537v-39c-120 -19 -140 -42 -140 -130v-712c0 -338 168 -492 404 -492c246 0 408 182 404 488l-9 624c-2 165 -22 202 -152 222v39
h372v-40c-119 -17 -138 -56 -141 -220l-9 -637c-5 -318 -171 -536 -483 -565c-26 -38 -40 -96 -40 -157c0 -106 59 -188 132 -188c34 0 62 15 78 35v-39c-26 -66 -99 -111 -187 -111z" />
    <glyph glyph-name="uogonek" unicode="&#x173;" horiz-adv-x="1199" 
d="M390 988v-662c0 -158 73 -236 206 -236c92 0 163 45 200 109v606c0 57 -7 70 -62 88l-57 17v36l362 42v-816c0 -58 8 -70 63 -89l56 -16v-36c-126 -99 -174 -189 -174 -281c0 -77 45 -117 96 -117c36 0 69 11 86 30l1 -39c-34 -61 -107 -102 -198 -102
c-99 0 -181 64 -181 166s71 199 255 304l58 33l-303 -35v174c-54 -108 -171 -183 -325 -183c-193 0 -327 101 -327 312v512c0 57 -8 70 -62 88l-56 17v36z" />
    <glyph glyph-name="Wcircumflex" unicode="&#x174;" horiz-adv-x="2139" 
d="M929 1534h-48l204 275h127l204 -275h-50l-218 142zM176 1196c-51 163 -92 194 -187 209v39h573v-39c-131 -17 -148 -61 -106 -209l276 -934l261 924c48 168 31 197 -101 219v39h539v-39c-123 -18 -134 -48 -88 -207l268 -938l257 898c52 183 40 227 -101 247v39h385v-39
c-105 -17 -139 -54 -203 -252l-369 -1153h-149l-359 1187l-369 -1187h-148z" />
    <glyph glyph-name="wcircumflex" unicode="&#x175;" horiz-adv-x="1620" 
d="M657 1093h-50l224 360h122l225 -360h-51l-234 191zM153 777c-42 120 -75 143 -157 160v40h498v-40c-107 -15 -118 -46 -78 -183l157 -512l167 513c43 136 29 167 -72 182v40h468v-40c-102 -14 -116 -46 -74 -183l163 -512l162 507c44 142 27 172 -78 188v40h314v-40
c-81 -15 -111 -41 -167 -196l-266 -741h-114l-265 753l-273 -753h-114z" />
    <glyph glyph-name="Ycircumflex" unicode="&#x176;" horiz-adv-x="1331" 
d="M535 1534h-48l204 275h127l204 -275h-51l-217 142zM216 1200c-96 161 -131 189 -222 205v39h567v-39c-122 -18 -142 -61 -58 -208l271 -471l238 438c96 178 86 222 -51 241v39h376v-39c-96 -18 -135 -54 -250 -246l-289 -481v-495c0 -97 20 -126 151 -144v-39h-566v39
c130 18 151 47 151 144v479z" />
    <glyph glyph-name="ycircumflex" unicode="&#x177;" horiz-adv-x="1019" 
d="M324 1093h-50l225 360h122l224 -360h-50l-235 191zM153 777c-49 120 -76 144 -157 160v40h510v-40c-117 -16 -133 -45 -85 -177l182 -498l178 492c49 137 31 166 -86 183v40h328v-40c-83 -16 -111 -42 -172 -193l-208 -512l-102 -249l-155 -443h-191v3
c90 101 212 292 286 440z" />
    <glyph glyph-name="Ydieresis" unicode="&#x178;" horiz-adv-x="1331" 
d="M585 1569c-58 0 -105 46 -105 103c0 58 47 103 105 103c59 0 105 -45 105 -103c0 -57 -46 -103 -105 -103zM901 1569c-59 0 -105 46 -105 103c0 58 46 103 105 103c58 0 105 -45 105 -103c0 -57 -47 -103 -105 -103zM216 1200c-96 161 -131 189 -222 205v39h567v-39
c-122 -18 -142 -61 -58 -208l271 -471l238 438c96 178 86 222 -51 241v39h376v-39c-96 -18 -135 -54 -250 -246l-289 -481v-495c0 -97 20 -126 151 -144v-39h-566v39c130 18 151 47 151 144v479z" />
    <glyph glyph-name="Zacute" unicode="&#x179;" horiz-adv-x="1261" 
d="M592 1534l-50 1l128 275h252v-5zM1170 0h-1094v37l798 1361l-265 -9c-347 -12 -423 -74 -478 -304h-36l18 359h1055v-37l-798 -1361l291 10c334 14 428 67 489 341h37z" />
    <glyph glyph-name="zacute" unicode="&#x17a;" horiz-adv-x="909" 
d="M404 1093h-50l145 360h251v-7zM73 977h778v-37l-530 -895l211 8c184 8 250 59 288 271h37l-7 -324h-798v36l528 896l-174 -7c-202 -12 -263 -61 -305 -244h-37z" />
    <glyph glyph-name="Zdotaccent" unicode="&#x17b;" horiz-adv-x="1261" 
d="M643 1567c-60 0 -109 47 -109 106s49 104 109 104c61 0 110 -45 110 -104s-49 -106 -110 -106zM1170 0h-1094v37l798 1361l-265 -9c-347 -12 -423 -74 -478 -304h-36l18 359h1055v-37l-798 -1361l291 10c334 14 428 67 489 341h37z" />
    <glyph glyph-name="zdotaccent" unicode="&#x17c;" horiz-adv-x="909" 
d="M465 1155c-71 0 -128 54 -128 123c0 70 57 124 128 124c72 0 129 -54 129 -124c0 -69 -57 -123 -129 -123zM73 977h778v-37l-530 -895l211 8c184 8 250 59 288 271h37l-7 -324h-798v36l528 896l-174 -7c-202 -12 -263 -61 -305 -244h-37z" />
    <glyph glyph-name="Zcaron" unicode="&#x17d;" horiz-adv-x="1261" 
d="M873 1828h48l-204 -275h-127l-204 275h50l218 -141zM1170 0h-1094v37l798 1361l-265 -9c-347 -12 -423 -74 -478 -304h-36l18 359h1055v-37l-798 -1361l291 10c334 14 428 67 489 341h37z" />
    <glyph glyph-name="zcaron" unicode="&#x17e;" horiz-adv-x="909" 
d="M701 1477h50l-225 -360h-121l-225 360h51l234 -191zM73 977h778v-37l-530 -895l211 8c184 8 250 59 288 271h37l-7 -324h-798v36l528 896l-174 -7c-202 -12 -263 -61 -305 -244h-37z" />
    <glyph glyph-name="Schwa" unicode="&#x18f;" horiz-adv-x="1483" 
d="M685 -22c-400 0 -617 255 -617 620c0 31 2 61 6 88l1026 -1v47c0 421 -171 679 -462 679c-242 0 -398 -155 -449 -391h-37l12 348c80 55 245 99 488 99c415 0 740 -253 740 -739c0 -440 -263 -750 -707 -750zM335 564c0 -272 83 -529 353 -529c275 0 392 265 410 602
l-760 -4c-2 -22 -3 -46 -3 -69z" />
    <glyph glyph-name="florin" unicode="&#x192;" horiz-adv-x="1154" 
d="M363 301l106 488h-260v39h269l40 185c69 332 232 453 429 453c132 0 202 -69 202 -161c0 -59 -46 -103 -100 -103c-58 0 -100 45 -100 101c0 54 39 93 89 96c-14 6 -31 9 -49 9c-96 0 -154 -67 -197 -265l-69 -315h320v-39h-328l-78 -358c-70 -333 -233 -453 -430 -453
c-131 0 -202 69 -202 161c0 58 46 103 101 103c57 0 101 -45 101 -102c0 -56 -44 -96 -92 -96c15 -6 32 -9 50 -9c96 0 155 67 198 266z" />
    <glyph glyph-name="Ohorn" unicode="&#x1a0;" horiz-adv-x="1664" 
d="M91 721c0 414 290 745 732 745c112 0 199 -24 284 -24c164 0 249 89 249 213c0 53 -16 107 -37 132h40c100 -39 170 -123 170 -215c0 -120 -118 -180 -290 -180c-40 0 -79 5 -114 12c250 -108 435 -351 435 -680c0 -414 -291 -746 -733 -746c-387 0 -736 286 -736 743z
M386 736c0 -404 171 -701 449 -701c306 0 430 285 430 674c0 404 -172 700 -448 700c-307 0 -431 -284 -431 -673z" />
    <glyph glyph-name="ohorn" unicode="&#x1a1;" horiz-adv-x="1264" 
d="M597 -19c-298 0 -515 197 -515 505c0 298 226 509 510 509c97 0 158 -17 229 -17c156 0 242 81 243 196c0 53 -18 106 -38 131h40c98 -40 166 -121 166 -210c0 -104 -106 -164 -266 -164c-50 0 -99 6 -141 15c174 -66 293 -232 293 -455c0 -300 -228 -510 -521 -510z
M603 36c165 0 252 172 252 445c0 277 -97 460 -259 460c-165 0 -252 -173 -252 -446c0 -276 97 -459 259 -459z" />
    <glyph glyph-name="Uhorn" unicode="&#x1af;" horiz-adv-x="1590" 
d="M163 561v713c0 89 -21 111 -129 131v39h535v-39c-118 -22 -141 -44 -141 -135v-707c0 -338 168 -492 404 -492c246 0 409 182 405 488l-9 624c-3 163 -22 199 -154 222v39h96c185 0 273 93 273 212c0 54 -16 106 -37 131h40c97 -40 164 -123 164 -213
c0 -103 -86 -163 -235 -163c-21 0 -43 2 -63 5l-14 -869c-5 -342 -196 -569 -556 -569c-304 0 -579 167 -579 583z" />
    <glyph glyph-name="uhorn" unicode="&#x1b0;" horiz-adv-x="1296" 
d="M388 988v-662c0 -158 74 -236 206 -236c93 0 162 45 200 109v606c0 57 -7 69 -65 88l-56 17v35l106 10c230 20 316 101 316 220c0 53 -17 105 -37 129h40c100 -37 172 -122 171 -210c0 -95 -80 -145 -182 -145c-18 0 -35 1 -50 3v-780c0 -58 8 -71 66 -89l60 -17v-35
l-367 -41v174c-54 -108 -171 -183 -325 -183c-192 0 -326 101 -326 312v512c0 57 -8 69 -65 88l-57 17v36z" />
    <glyph glyph-name="uni01C4" unicode="&#x1c4;" horiz-adv-x="2801" 
d="M2413 1828h47l-203 -275h-127l-204 275h50l218 -141zM1458 747c0 -484 -400 -747 -873 -747h-530v39c120 19 139 42 139 130v1106c0 88 -19 111 -139 130v39h527c520 0 876 -246 876 -697zM2710 0h-1094v37l798 1361l-266 -9c-346 -12 -422 -74 -477 -304h-36l17 359
h1056v-37l-799 -1361l292 10c334 14 428 67 489 341h36zM1165 726c1 395 -222 657 -615 669l-91 3v-1352l91 3c387 12 615 264 615 677z" />
    <glyph glyph-name="uni01C5" unicode="&#x1c5;" horiz-adv-x="2449" 
d="M2241 1477h50l-225 -360h-122l-224 360h50l235 -191zM1458 747c0 -484 -400 -747 -873 -747h-530v39c120 19 139 42 139 130v1106c0 88 -19 111 -139 130v39h527c520 0 876 -246 876 -697zM1165 726c1 395 -222 657 -615 669l-91 3v-1352l91 3c387 12 615 264 615 677z
M1613 977h778v-37l-530 -895l210 8c185 8 250 59 289 271h37l-7 -324h-798v36l528 896l-174 -7c-202 -12 -263 -61 -305 -244h-37z" />
    <glyph glyph-name="uni01C6" unicode="&#x1c6;" horiz-adv-x="2119" 
d="M82 480c0 316 208 515 464 515c120 0 215 -49 259 -123v431c0 57 -7 69 -62 88l-56 17v36l362 42v-1314c0 -58 7 -70 63 -89l56 -16v-36l-360 -41v178c-52 -113 -177 -187 -323 -187c-216 0 -403 181 -403 499zM1910 1477h50l-224 -360h-122l-225 360h51l234 -191z
M1282 977h779v-37l-531 -895l211 8c185 8 250 59 289 271h37l-8 -324h-797v36l528 896l-174 -7c-202 -12 -263 -61 -306 -244h-36zM334 505c0 -256 112 -415 268 -415c95 0 164 42 203 113v616c-28 60 -104 105 -190 105c-168 0 -281 -161 -281 -419z" />
    <glyph glyph-name="uni01C7" unicode="&#x1c7;" horiz-adv-x="1790" 
d="M1080 0h-1025v39c120 19 139 42 139 130v1106c0 88 -19 111 -139 130v39h555v-39c-131 -18 -151 -46 -151 -143v-1216l172 7c273 12 365 79 429 361h37zM1596 259c0 -354 -178 -510 -517 -668l-20 33c204 139 272 301 272 649v1002c0 88 -20 111 -139 130v39h543v-39
c-119 -19 -139 -42 -139 -130v-1016z" />
    <glyph glyph-name="uni01C8" unicode="&#x1c8;" horiz-adv-x="1683" 
d="M1080 0h-1025v39c120 19 139 42 139 130v1106c0 88 -19 111 -139 130v39h555v-39c-131 -18 -151 -46 -151 -143v-1216l172 7c273 12 365 79 429 361h37zM1397 1149c-75 0 -135 57 -135 129c0 74 60 130 135 130s135 -56 135 -130c0 -72 -60 -129 -135 -129zM1537 988
v-811c0 -319 -86 -434 -353 -610l-63 -42l-24 33c158 137 197 274 197 577v670c0 57 -7 70 -62 88l-57 17v36z" />
    <glyph glyph-name="uni01C9" unicode="&#x1c9;" horiz-adv-x="1117" 
d="M410 1486v-1342c0 -70 18 -88 119 -105v-39h-481v39c102 17 119 35 119 105v1159c0 57 -7 69 -63 88l-56 17v36zM831 1149c-75 0 -135 57 -135 129c0 74 60 130 135 130s135 -56 135 -130c0 -72 -60 -129 -135 -129zM972 988v-811c0 -319 -87 -434 -354 -610l-63 -42
l-23 33c157 137 197 274 197 577v670c0 57 -8 70 -63 88l-56 17v36z" />
    <glyph glyph-name="uni01CA" unicode="&#x1ca;" horiz-adv-x="2111" 
d="M451 1444l775 -1164l-20 902c-3 168 -21 206 -151 223v39h379v-39c-125 -19 -143 -57 -146 -223l-11 -1182h-193l-855 1283l18 -1021c2 -168 22 -206 151 -223v-39h-379v39c125 19 144 57 146 223l11 981c0 106 -29 139 -134 162v39h409zM1915 259
c0 -354 -177 -510 -516 -668l-20 33c204 139 272 301 272 649v1002c0 88 -20 111 -140 130v39h544v-39c-119 -19 -140 -42 -140 -130v-1016z" />
    <glyph glyph-name="uni01CB" unicode="&#x1cb;" horiz-adv-x="2003" 
d="M451 1444l775 -1164l-20 902c-3 168 -21 206 -151 223v39h379v-39c-125 -19 -143 -57 -146 -223l-11 -1182h-193l-855 1283l18 -1021c2 -168 22 -206 151 -223v-39h-379v39c125 19 144 57 146 223l11 981c0 106 -29 139 -134 162v39h409zM1717 1149
c-75 0 -136 57 -136 129c0 74 61 130 136 130s135 -56 135 -130c0 -72 -60 -129 -135 -129zM1857 988v-811c0 -319 -87 -434 -353 -610l-63 -42l-24 33c158 137 197 274 197 577v670c0 57 -7 70 -62 88l-57 17v36z" />
    <glyph glyph-name="uni01CC" unicode="&#x1cc;" horiz-adv-x="1771" 
d="M1485 1149c-75 0 -135 57 -135 129c0 74 60 130 135 130s135 -56 135 -130c0 -72 -60 -129 -135 -129zM408 988v-175c53 107 174 182 328 182c197 0 334 -100 334 -308v-543c0 -70 14 -88 118 -105v-39h-471v39c96 15 109 32 109 99v516c0 156 -76 232 -209 232
c-96 0 -169 -44 -207 -109v-639c0 -67 13 -83 109 -99v-39h-471v39c102 17 119 35 119 105v661c0 57 -7 70 -63 88l-56 17v36zM1626 988v-811c0 -319 -87 -434 -354 -610l-63 -42l-23 33c157 137 197 274 197 577v670c0 57 -8 70 -63 88l-56 17v36z" />
    <glyph glyph-name="Acaron" unicode="&#x1cd;" horiz-adv-x="1374" 
d="M918 1828h48l-204 -275h-127l-204 275h50l218 -141zM1194 248c56 -155 91 -192 192 -209v-39h-575v39c129 17 153 62 102 213l-89 257h-472l-74 -222c-61 -183 -45 -227 97 -248v-39h-387v39c105 17 139 54 210 253l419 1152h151zM371 566h434l-220 641z" />
    <glyph glyph-name="acaron" unicode="&#x1ce;" horiz-adv-x="1066" 
d="M733 1477h50l-225 -360h-121l-225 360h51l234 -191zM362 -19c-165 0 -284 97 -284 241c0 149 111 243 395 303l200 42v105c0 188 -94 258 -246 258c-70 0 -135 -17 -184 -48c59 -3 108 -52 108 -116c0 -65 -53 -115 -120 -115c-65 0 -119 49 -119 115
c0 129 165 229 402 229c241 0 397 -96 397 -312v-499c0 -87 43 -123 102 -123c16 0 31 3 42 6v-36c-34 -24 -97 -45 -170 -45c-106 0 -189 52 -208 151c-42 -90 -164 -156 -315 -156zM321 262c0 -116 75 -182 173 -182c81 0 143 32 179 93v347l-94 -21
c-196 -44 -258 -119 -258 -237z" />
    <glyph glyph-name="Icaron" unicode="&#x1cf;" horiz-adv-x="654" 
d="M556 1828h48l-204 -275h-127l-204 275h51l217 -141zM459 169c0 -88 21 -111 140 -130v-39h-544v39c120 19 139 42 139 130v1106c0 88 -19 111 -139 130v39h544v-39c-119 -19 -140 -42 -140 -130v-1106z" />
    <glyph glyph-name="icaron" unicode="&#x1d0;" horiz-adv-x="569" 
d="M482 1477h45l-202 -360h-110l-202 360h45l211 -191zM410 988v-844c0 -70 18 -88 119 -105v-39h-481v39c102 17 119 35 119 105v661c0 57 -7 70 -63 88l-56 17v36z" />
    <glyph glyph-name="Ocaron" unicode="&#x1d1;" horiz-adv-x="1651" 
d="M1050 1828h48l-204 -275h-127l-204 275h50l218 -141zM91 721c0 414 290 745 732 745c388 0 737 -285 737 -742c0 -414 -291 -746 -733 -746c-387 0 -736 286 -736 743zM386 736c0 -404 171 -701 449 -701c306 0 430 285 430 674c0 404 -172 700 -448 700
c-307 0 -431 -284 -431 -673z" />
    <glyph glyph-name="ocaron" unicode="&#x1d2;" horiz-adv-x="1199" 
d="M835 1477h50l-225 -360h-122l-224 360h50l234 -191zM597 -19c-290 0 -515 198 -515 505c0 301 227 509 521 509c289 0 515 -198 515 -504c0 -300 -228 -510 -521 -510zM603 36c160 0 252 173 252 444c0 280 -103 461 -259 461c-160 0 -252 -173 -252 -444
c0 -280 103 -461 259 -461z" />
    <glyph glyph-name="Ucaron" unicode="&#x1d3;" horiz-adv-x="1468" 
d="M1038 1828h47l-203 -275h-127l-204 275h50l218 -141zM164 1281c0 85 -21 105 -132 124v39h537v-39c-120 -19 -140 -42 -140 -130v-712c0 -338 168 -492 404 -492c245 0 408 182 404 488l-9 624c-3 165 -22 202 -152 222v39h372v-40c-119 -17 -138 -56 -141 -220l-9 -637
c-5 -342 -196 -569 -556 -569c-304 0 -578 167 -578 583v720z" />
    <glyph glyph-name="ucaron" unicode="&#x1d4;" horiz-adv-x="1199" 
d="M829 1477h50l-225 -360h-121l-225 360h51l234 -191zM390 988v-662c0 -158 73 -236 206 -236c92 0 163 45 200 109v606c0 57 -7 70 -62 88l-57 17v36l362 42v-816c0 -58 8 -70 63 -89l56 -16v-36l-360 -41v174c-54 -108 -171 -183 -325 -183c-193 0 -327 101 -327 312v512
c0 57 -8 70 -62 88l-56 17v36z" />
    <glyph glyph-name="Udieresismacron" unicode="&#x1d5;" horiz-adv-x="1468" 
d="M540 1819v94h536v-94h-536zM663 1562h-7c-49 0 -88 33 -88 78c0 43 39 76 88 76h7c50 0 88 -33 88 -76c0 -45 -38 -78 -88 -78zM960 1562h-7c-50 0 -88 33 -88 78c0 43 38 76 88 76h7c49 0 88 -33 88 -76c0 -45 -39 -78 -88 -78zM164 1281c0 85 -21 105 -132 124v39h537
v-39c-120 -19 -140 -42 -140 -130v-712c0 -338 168 -492 404 -492c245 0 408 182 404 488l-9 624c-3 165 -22 202 -152 222v39h372v-40c-119 -17 -138 -56 -141 -220l-9 -637c-5 -342 -196 -569 -556 -569c-304 0 -578 167 -578 583v720z" />
    <glyph glyph-name="udieresismacron" unicode="&#x1d6;" horiz-adv-x="1199" 
d="M332 1405v111h522v-111h-522zM440 1105h-7c-52 0 -92 39 -92 90c0 52 40 92 92 92h7c52 0 93 -40 93 -92c0 -51 -41 -90 -93 -90zM753 1105h-6c-52 0 -93 39 -93 90c0 52 41 92 93 92h6c53 0 93 -40 93 -92c0 -51 -40 -90 -93 -90zM390 988v-662c0 -158 73 -236 206 -236
c92 0 163 45 200 109v606c0 57 -7 70 -62 88l-57 17v36l362 42v-816c0 -58 8 -70 63 -89l56 -16v-36l-360 -41v174c-54 -108 -171 -183 -325 -183c-193 0 -327 101 -327 312v512c0 57 -8 70 -62 88l-56 17v36z" />
    <glyph glyph-name="Udieresisacute" unicode="&#x1d7;" horiz-adv-x="1468" 
d="M1075 1842l-534 -78v35l534 168v-125zM663 1562h-7c-49 0 -88 33 -88 78c0 43 39 76 88 76h7c50 0 88 -33 88 -76c0 -45 -38 -78 -88 -78zM960 1562h-7c-50 0 -88 33 -88 78c0 43 38 76 88 76h7c49 0 88 -33 88 -76c0 -45 -39 -78 -88 -78zM164 1281
c0 85 -21 105 -132 124v39h537v-39c-120 -19 -140 -42 -140 -130v-712c0 -338 168 -492 404 -492c245 0 408 182 404 488l-9 624c-3 165 -22 202 -152 222v39h372v-40c-119 -17 -138 -56 -141 -220l-9 -637c-5 -342 -196 -569 -556 -569c-304 0 -578 167 -578 583v720z" />
    <glyph glyph-name="udieresisacute" unicode="&#x1d8;" horiz-adv-x="1199" 
d="M854 1448l-521 -92v41l521 198v-147zM440 1105h-7c-52 0 -92 39 -92 90c0 52 40 92 92 92h7c52 0 93 -40 93 -92c0 -51 -41 -90 -93 -90zM753 1105h-6c-52 0 -93 39 -93 90c0 52 41 92 93 92h6c53 0 93 -40 93 -92c0 -51 -40 -90 -93 -90zM390 988v-662
c0 -158 73 -236 206 -236c92 0 163 45 200 109v606c0 57 -7 70 -62 88l-57 17v36l362 42v-816c0 -58 8 -70 63 -89l56 -16v-36l-360 -41v174c-54 -108 -171 -183 -325 -183c-193 0 -327 101 -327 312v512c0 57 -8 70 -62 88l-56 17v36z" />
    <glyph glyph-name="Udieresiscaron" unicode="&#x1d9;" horiz-adv-x="1468" 
d="M1075 1966v-35l-249 -166h-35l-250 166v35l267 -84zM663 1562h-7c-49 0 -88 33 -88 78c0 43 39 76 88 76h7c50 0 88 -33 88 -76c0 -45 -38 -78 -88 -78zM960 1562h-7c-50 0 -88 33 -88 78c0 43 38 76 88 76h7c49 0 88 -33 88 -76c0 -45 -39 -78 -88 -78zM164 1281
c0 85 -21 105 -132 124v39h537v-39c-120 -19 -140 -42 -140 -130v-712c0 -338 168 -492 404 -492c245 0 408 182 404 488l-9 624c-3 165 -22 202 -152 222v39h372v-40c-119 -17 -138 -56 -141 -220l-9 -637c-5 -342 -196 -569 -556 -569c-304 0 -578 167 -578 583v720z" />
    <glyph glyph-name="udieresiscaron" unicode="&#x1da;" horiz-adv-x="1199" 
d="M854 1585v-43l-243 -203h-34l-244 203v43l260 -102zM440 1105h-7c-52 0 -92 39 -92 90c0 52 40 92 92 92h7c52 0 93 -40 93 -92c0 -51 -41 -90 -93 -90zM753 1105h-6c-52 0 -93 39 -93 90c0 52 41 92 93 92h6c53 0 93 -40 93 -92c0 -51 -40 -90 -93 -90zM390 988v-662
c0 -158 73 -236 206 -236c92 0 163 45 200 109v606c0 57 -7 70 -62 88l-57 17v36l362 42v-816c0 -58 8 -70 63 -89l56 -16v-36l-360 -41v174c-54 -108 -171 -183 -325 -183c-193 0 -327 101 -327 312v512c0 57 -8 70 -62 88l-56 17v36z" />
    <glyph glyph-name="Udieresisgrave" unicode="&#x1db;" horiz-adv-x="1468" 
d="M541 1842v125l535 -168v-35zM663 1562h-7c-49 0 -88 33 -88 78c0 43 39 76 88 76h7c50 0 88 -33 88 -76c0 -45 -38 -78 -88 -78zM960 1562h-7c-50 0 -88 33 -88 78c0 43 38 76 88 76h7c49 0 88 -33 88 -76c0 -45 -39 -78 -88 -78zM164 1281c0 85 -21 105 -132 124v39h537
v-39c-120 -19 -140 -42 -140 -130v-712c0 -338 168 -492 404 -492c245 0 408 182 404 488l-9 624c-3 165 -22 202 -152 222v39h372v-40c-119 -17 -138 -56 -141 -220l-9 -637c-5 -342 -196 -569 -556 -569c-304 0 -578 167 -578 583v720z" />
    <glyph glyph-name="udieresisgrave" unicode="&#x1dc;" horiz-adv-x="1199" 
d="M333 1448v147l521 -198v-41zM440 1105h-7c-52 0 -92 39 -92 90c0 52 40 92 92 92h7c52 0 93 -40 93 -92c0 -51 -41 -90 -93 -90zM753 1105h-6c-52 0 -93 39 -93 90c0 52 41 92 93 92h6c53 0 93 -40 93 -92c0 -51 -40 -90 -93 -90zM390 988v-662c0 -158 73 -236 206 -236
c92 0 163 45 200 109v606c0 57 -7 70 -62 88l-57 17v36l362 42v-816c0 -58 8 -70 63 -89l56 -16v-36l-360 -41v174c-54 -108 -171 -183 -325 -183c-193 0 -327 101 -327 312v512c0 57 -8 70 -62 88l-56 17v36z" />
    <glyph glyph-name="Adieresismacron" unicode="&#x1de;" horiz-adv-x="1374" 
d="M421 1819v94h535v-94h-535zM543 1562h-6c-50 0 -88 33 -88 78c0 43 38 76 88 76h6c50 0 89 -33 89 -76c0 -45 -39 -78 -89 -78zM840 1562h-7c-49 0 -88 33 -88 78c0 43 39 76 88 76h7c50 0 88 -33 88 -76c0 -45 -38 -78 -88 -78zM1194 248c56 -155 91 -192 192 -209v-39
h-575v39c129 17 153 62 102 213l-89 257h-472l-74 -222c-61 -183 -45 -227 97 -248v-39h-387v39c105 17 139 54 210 253l419 1152h151zM371 566h434l-220 641z" />
    <glyph glyph-name="adieresismacron" unicode="&#x1df;" horiz-adv-x="1066" 
d="M236 1405v111h522v-111h-522zM344 1105h-7c-52 0 -92 39 -92 90c0 52 40 92 92 92h7c52 0 93 -40 93 -92c0 -51 -41 -90 -93 -90zM657 1105h-6c-52 0 -93 39 -93 90c0 52 41 92 93 92h6c53 0 93 -40 93 -92c0 -51 -40 -90 -93 -90zM362 -19c-165 0 -284 97 -284 241
c0 149 111 243 395 303l200 42v105c0 188 -94 258 -246 258c-70 0 -135 -17 -184 -48c59 -3 108 -52 108 -116c0 -65 -53 -115 -120 -115c-65 0 -119 49 -119 115c0 129 165 229 402 229c241 0 397 -96 397 -312v-499c0 -87 43 -123 102 -123c16 0 31 3 42 6v-36
c-34 -24 -97 -45 -170 -45c-106 0 -189 52 -208 151c-42 -90 -164 -156 -315 -156zM321 262c0 -116 75 -182 173 -182c81 0 143 32 179 93v347l-94 -21c-196 -44 -258 -119 -258 -237z" />
    <glyph glyph-name="Adotmacron" unicode="&#x1e0;" horiz-adv-x="1374" 
d="M421 1796v94h535v-94h-535zM689 1557c-54 0 -95 36 -95 82c0 47 41 83 95 83c53 0 94 -36 94 -83c0 -46 -41 -82 -94 -82zM1194 248c56 -155 91 -192 192 -209v-39h-575v39c129 17 153 62 102 213l-89 257h-472l-74 -222c-61 -183 -45 -227 97 -248v-39h-387v39
c105 17 139 54 210 253l419 1152h151zM371 566h434l-220 641z" />
    <glyph glyph-name="adotmacron" unicode="&#x1e1;" horiz-adv-x="1066" 
d="M236 1394v111h522v-111h-522zM497 1104c-55 0 -99 41 -99 96s44 97 99 97c56 0 100 -42 100 -97s-44 -96 -100 -96zM362 -19c-165 0 -284 97 -284 241c0 149 111 243 395 303l200 42v105c0 188 -94 258 -246 258c-70 0 -135 -17 -184 -48c59 -3 108 -52 108 -116
c0 -65 -53 -115 -120 -115c-65 0 -119 49 -119 115c0 129 165 229 402 229c241 0 397 -96 397 -312v-499c0 -87 43 -123 102 -123c16 0 31 3 42 6v-36c-34 -24 -97 -45 -170 -45c-106 0 -189 52 -208 151c-42 -90 -164 -156 -315 -156zM321 262c0 -116 75 -182 173 -182
c81 0 143 32 179 93v347l-94 -21c-196 -44 -258 -119 -258 -237z" />
    <glyph glyph-name="AEmacron" unicode="&#x1e2;" horiz-adv-x="1909" 
d="M974 1598v116h504v-116h-504zM1782 1444l16 -359h-37c-57 231 -141 292 -411 305l-178 8l4 -635l222 5c123 5 149 52 178 204h34l3 -465h-34c-29 151 -56 199 -181 204l-222 6l5 -671l212 9c285 15 364 73 419 342h37l-16 -397h-1034v39c112 18 132 38 132 124l-3 472
h-439l-171 -344c-92 -189 -69 -232 63 -252v-39h-396v39c101 18 147 52 251 254l593 1151h953zM864 1397l-348 -705h412l-4 705h-60z" />
    <glyph glyph-name="aemacron" unicode="&#x1e3;" horiz-adv-x="1608" 
d="M533 1198v136h558v-136h-558zM364 -19c-168 0 -288 90 -288 240c0 153 118 264 409 317l196 36v72c0 202 -110 286 -255 286c-72 0 -135 -18 -183 -47c58 -5 104 -51 104 -111c0 -66 -52 -116 -120 -116c-66 0 -118 49 -118 114c0 121 154 223 380 223
c140 0 266 -44 320 -141c73 88 187 141 321 141c253 0 404 -164 404 -401c0 -22 -2 -44 -4 -60h-628c13 -270 163 -444 375 -444c108 0 190 39 244 93v-40c-65 -90 -201 -162 -370 -162c-198 0 -381 106 -445 297c-19 -196 -156 -297 -342 -297zM1128 941
c-138 0 -227 -131 -227 -360l407 4c1 15 2 32 2 51c0 179 -56 305 -182 305zM481 82c105 0 200 74 200 256v191l-112 -24c-183 -39 -252 -122 -252 -242c0 -115 66 -181 164 -181z" />
    <glyph glyph-name="Gcaron" unicode="&#x1e6;" horiz-adv-x="1530" 
d="M1074 1828h47l-204 -275h-127l-204 275h51l218 -141zM91 729c0 478 341 737 761 737c234 0 387 -45 464 -99l12 -349h-36c-54 241 -199 391 -428 391c-300 0 -478 -262 -478 -662c0 -381 167 -712 479 -712c114 0 210 30 263 75v409c0 94 -18 114 -143 127v40h520v-40
c-116 -13 -136 -33 -136 -127v-395c-115 -88 -317 -146 -517 -146c-441 0 -761 295 -761 751z" />
    <glyph glyph-name="gcaron" unicode="&#x1e7;" horiz-adv-x="1085" 
d="M776 1477h49l-224 -360h-122l-224 360h50l234 -191zM92 666c0 200 193 329 432 329c80 0 152 -15 210 -37l331 20v-75l-276 17c103 -43 168 -134 168 -248c0 -201 -199 -323 -429 -323c-37 0 -73 4 -115 11c-79 -17 -124 -55 -124 -111c0 -64 59 -97 174 -97h171
c255 0 391 -101 391 -283c-1 -217 -230 -358 -499 -358c-285 0 -473 95 -473 241c0 109 106 190 333 208c-167 0 -285 73 -284 191c0 115 104 194 272 220c-162 32 -282 134 -282 295zM332 676c0 -167 76 -278 196 -278c118 0 190 104 190 269c0 164 -71 279 -196 279
c-122 0 -190 -106 -190 -270zM257 -230c0 -118 102 -205 274 -205c176 0 299 83 299 216c0 107 -69 169 -229 169h-172c-115 -15 -172 -83 -172 -180z" />
    <glyph glyph-name="Kcaron" unicode="&#x1e8;" horiz-adv-x="1370" 
d="M951 1828h47l-203 -275h-127l-204 275h50l218 -141zM459 163c0 -85 21 -105 133 -124v-39h-537v39c120 19 139 42 139 130v1106c0 88 -19 111 -139 130v39h537v-40c-112 -18 -133 -38 -133 -123v-510l129 1l341 406c138 163 136 211 1 227v39h413v-39
c-109 -26 -191 -86 -342 -243c-83 -85 -162 -172 -232 -249l359 -595c125 -206 176 -258 246 -281v-37h-349l-436 722l-130 1v-560z" />
    <glyph glyph-name="kcaron" unicode="&#x1e9;" horiz-adv-x="1118" 
d="M513 1862h48l-204 -276h-127l-204 276h51l217 -141zM808 0l-291 496l-107 2v-360c0 -67 13 -83 109 -99v-39h-471v39c102 17 119 35 119 105v1159c0 57 -7 69 -63 88l-56 17v36l362 42v-940l106 3l220 241c82 88 74 127 -40 147v40h382v-40c-105 -23 -157 -53 -297 -179
l-96 -89l254 -434c83 -145 128 -183 190 -198v-37h-321z" />
    <glyph glyph-name="Oogonek" unicode="&#x1ea;" horiz-adv-x="1651" 
d="M91 721c0 414 290 745 732 745c388 0 737 -285 737 -742c0 -402 -275 -727 -696 -745c-24 -38 -38 -94 -38 -154c0 -106 58 -188 132 -188c34 0 62 15 79 35v-39c-27 -66 -101 -111 -187 -111c-111 0 -194 74 -194 183c0 101 63 197 160 273c-383 6 -725 291 -725 743z
M386 736c0 -404 171 -701 449 -701c305 0 430 285 430 674c0 404 -172 700 -448 700c-307 0 -431 -284 -431 -673z" />
    <glyph glyph-name="oogonek" unicode="&#x1eb;" horiz-adv-x="1199" 
d="M637 -478c-103 0 -190 70 -190 184c0 97 51 190 146 275c-288 2 -511 199 -511 505c0 301 227 509 521 509c289 0 515 -198 515 -504c0 -284 -205 -487 -475 -508c-17 -37 -27 -84 -27 -130c0 -125 63 -220 139 -220c31 0 59 12 74 30l1 -39c-30 -58 -102 -102 -193 -102
zM603 36c160 0 252 173 252 444c0 280 -103 461 -259 461c-160 0 -252 -173 -252 -444c0 -280 103 -461 259 -461z" />
    <glyph glyph-name="Oogonekmacron" unicode="&#x1ec;" horiz-adv-x="1651" 
d="M569 1598v116h504v-116h-504zM91 721c0 414 290 745 732 745c388 0 737 -285 737 -742c0 -402 -275 -727 -696 -745c-24 -38 -38 -94 -38 -154c0 -106 58 -188 132 -188c34 0 62 15 79 35v-39c-27 -66 -101 -111 -187 -111c-111 0 -194 74 -194 183c0 101 63 197 160 273
c-383 6 -725 291 -725 743zM386 736c0 -404 171 -701 449 -701c305 0 430 285 430 674c0 404 -172 700 -448 700c-307 0 -431 -284 -431 -673z" />
    <glyph glyph-name="oogonekmacron" unicode="&#x1ed;" horiz-adv-x="1199" 
d="M320 1198v136h558v-136h-558zM637 -478c-103 0 -190 70 -190 184c0 97 51 190 146 275c-288 2 -511 199 -511 505c0 301 227 509 521 509c289 0 515 -198 515 -504c0 -284 -205 -487 -475 -508c-17 -37 -27 -84 -27 -130c0 -125 63 -220 139 -220c31 0 59 12 74 30l1 -39
c-30 -58 -102 -102 -193 -102zM603 36c160 0 252 173 252 444c0 280 -103 461 -259 461c-160 0 -252 -173 -252 -444c0 -280 103 -461 259 -461z" />
    <glyph glyph-name="uni01F1" unicode="&#x1f1;" horiz-adv-x="2801" 
d="M1458 747c0 -484 -400 -747 -873 -747h-530v39c120 19 139 42 139 130v1106c0 88 -19 111 -139 130v39h527c520 0 876 -246 876 -697zM2710 0h-1094v37l798 1361l-266 -9c-346 -12 -422 -74 -477 -304h-36l17 359h1056v-37l-799 -1361l292 10c334 14 428 67 489 341h36z
M1165 726c1 395 -222 657 -615 669l-91 3v-1352l91 3c387 12 615 264 615 677z" />
    <glyph glyph-name="uni01F2" unicode="&#x1f2;" horiz-adv-x="2449" 
d="M1458 747c0 -484 -400 -747 -873 -747h-530v39c120 19 139 42 139 130v1106c0 88 -19 111 -139 130v39h527c520 0 876 -246 876 -697zM1165 726c1 395 -222 657 -615 669l-91 3v-1352l91 3c387 12 615 264 615 677zM1613 977h778v-37l-530 -895l210 8
c185 8 250 59 289 271h37l-7 -324h-798v36l528 896l-174 -7c-202 -12 -263 -61 -305 -244h-37z" />
    <glyph glyph-name="uni01F3" unicode="&#x1f3;" horiz-adv-x="2119" 
d="M82 480c0 316 208 515 464 515c120 0 215 -49 259 -123v431c0 57 -7 69 -62 88l-56 17v36l362 42v-1314c0 -58 7 -70 63 -89l56 -16v-36l-360 -41v178c-52 -113 -177 -187 -323 -187c-216 0 -403 181 -403 499zM1282 977h779v-37l-531 -895l211 8c185 8 250 59 289 271
h37l-8 -324h-797v36l528 896l-174 -7c-202 -12 -263 -61 -306 -244h-36zM334 505c0 -256 112 -415 268 -415c95 0 164 42 203 113v616c-28 60 -104 105 -190 105c-168 0 -281 -161 -281 -419z" />
    <glyph glyph-name="Gacute" unicode="&#x1f4;" horiz-adv-x="1530" 
d="M792 1534l-49 1l128 275h251v-5zM91 729c0 478 341 737 761 737c234 0 387 -45 464 -99l12 -349h-36c-54 241 -199 391 -428 391c-300 0 -478 -262 -478 -662c0 -381 167 -712 479 -712c114 0 210 30 263 75v409c0 94 -18 114 -143 127v40h520v-40
c-116 -13 -136 -33 -136 -127v-395c-115 -88 -317 -146 -517 -146c-441 0 -761 295 -761 751z" />
    <glyph glyph-name="gacute" unicode="&#x1f5;" horiz-adv-x="1085" 
d="M478 1093h-50l146 360h251v-7zM92 666c0 200 193 329 432 329c80 0 152 -15 210 -37l331 20v-75l-276 17c103 -43 168 -134 168 -248c0 -201 -199 -323 -429 -323c-37 0 -73 4 -115 11c-79 -17 -124 -55 -124 -111c0 -64 59 -97 174 -97h171c255 0 391 -101 391 -283
c-1 -217 -230 -358 -499 -358c-285 0 -473 95 -473 241c0 109 106 190 333 208c-167 0 -285 73 -284 191c0 115 104 194 272 220c-162 32 -282 134 -282 295zM332 676c0 -167 76 -278 196 -278c118 0 190 104 190 269c0 164 -71 279 -196 279c-122 0 -190 -106 -190 -270z
M257 -230c0 -118 102 -205 274 -205c176 0 299 83 299 216c0 107 -69 169 -229 169h-172c-115 -15 -172 -83 -172 -180z" />
    <glyph glyph-name="Ngrave" unicode="&#x1f8;" horiz-adv-x="1456" 
d="M832 1534l-333 270v5h260l121 -275h-48zM451 1444l775 -1164l-20 902c-3 168 -21 206 -151 223v39h379v-39c-125 -19 -143 -57 -146 -223l-11 -1182h-193l-855 1283l18 -1021c2 -168 22 -206 151 -223v-39h-379v39c125 19 144 57 146 223l11 981c0 106 -29 139 -134 162
v39h409z" />
    <glyph glyph-name="ngrave" unicode="&#x1f9;" horiz-adv-x="1225" 
d="M680 1093l-351 353v7h261l140 -360h-50zM408 988v-175c53 107 174 182 328 182c197 0 334 -100 334 -308v-543c0 -70 14 -88 118 -105v-39h-471v39c96 15 109 32 109 99v516c0 156 -76 232 -209 232c-96 0 -169 -44 -207 -109v-639c0 -67 13 -83 109 -99v-39h-471v39
c102 17 119 35 119 105v661c0 57 -7 70 -63 88l-56 17v36z" />
    <glyph glyph-name="Aringacute" unicode="&#x1fa;" horiz-adv-x="1374" 
d="M955 1826l-534 -79v36l534 168v-125zM711 1534h-46c-123 0 -206 35 -206 89c0 55 83 90 206 90h46c125 0 206 -35 206 -90c0 -54 -81 -89 -206 -89zM704 1565c43 0 68 24 68 58c0 35 -24 58 -68 58h-32c-43 0 -68 -23 -68 -58c0 -34 25 -58 68 -58h32zM1194 248
c56 -155 91 -192 192 -209v-39h-575v39c129 17 153 62 102 213l-89 257h-472l-74 -222c-61 -183 -45 -227 97 -248v-39h-387v39c105 17 139 54 210 253l419 1152h151zM371 566h434l-220 641z" />
    <glyph glyph-name="aringacute" unicode="&#x1fb;" horiz-adv-x="1066" 
d="M758 1450l-521 -92v42l521 197v-147zM521 1079h-48c-129 0 -217 47 -217 119c0 73 88 120 217 120h48c131 0 217 -47 217 -120c0 -72 -86 -119 -217 -119zM514 1121c46 0 71 32 71 77s-25 78 -71 78h-34c-45 0 -71 -33 -71 -78s26 -77 71 -77h34zM362 -19
c-165 0 -284 97 -284 241c0 149 111 243 395 303l200 42v105c0 188 -94 258 -246 258c-70 0 -135 -17 -184 -48c59 -3 108 -52 108 -116c0 -65 -53 -115 -120 -115c-65 0 -119 49 -119 115c0 129 165 229 402 229c241 0 397 -96 397 -312v-499c0 -87 43 -123 102 -123
c16 0 31 3 42 6v-36c-34 -24 -97 -45 -170 -45c-106 0 -189 52 -208 151c-42 -90 -164 -156 -315 -156zM321 262c0 -116 75 -182 173 -182c81 0 143 32 179 93v347l-94 -21c-196 -44 -258 -119 -258 -237z" />
    <glyph glyph-name="AEacute" unicode="&#x1fc;" horiz-adv-x="1909" 
d="M1174 1534l-49 1l128 275h251v-5zM1782 1444l16 -359h-37c-57 231 -141 292 -411 305l-178 8l4 -635l222 5c123 5 149 52 178 204h34l3 -465h-34c-29 151 -56 199 -181 204l-222 6l5 -671l212 9c285 15 364 73 419 342h37l-16 -397h-1034v39c112 18 132 38 132 124
l-3 472h-439l-171 -344c-92 -189 -69 -232 63 -252v-39h-396v39c101 18 147 52 251 254l593 1151h953zM864 1397l-348 -705h412l-4 705h-60z" />
    <glyph glyph-name="aeacute" unicode="&#x1fd;" horiz-adv-x="1608" 
d="M750 1093h-49l145 360h251v-7zM364 -19c-168 0 -288 90 -288 240c0 153 118 264 409 317l196 36v72c0 202 -110 286 -255 286c-72 0 -135 -18 -183 -47c58 -5 104 -51 104 -111c0 -66 -52 -116 -120 -116c-66 0 -118 49 -118 114c0 121 154 223 380 223
c140 0 266 -44 320 -141c73 88 187 141 321 141c253 0 404 -164 404 -401c0 -22 -2 -44 -4 -60h-628c13 -270 163 -444 375 -444c108 0 190 39 244 93v-40c-65 -90 -201 -162 -370 -162c-198 0 -381 106 -445 297c-19 -196 -156 -297 -342 -297zM1128 941
c-138 0 -227 -131 -227 -360l407 4c1 15 2 32 2 51c0 179 -56 305 -182 305zM481 82c105 0 200 74 200 256v191l-112 -24c-183 -39 -252 -122 -252 -242c0 -115 66 -181 164 -181z" />
    <glyph glyph-name="Ostrokeacute" unicode="&#x1fe;" horiz-adv-x="1651" 
d="M769 1534l-50 1l128 275h251v-5zM91 721c0 414 290 745 732 745c177 0 346 -60 477 -168l130 146l39 -36l-129 -145c134 -128 220 -313 220 -539c0 -414 -291 -746 -733 -746c-177 0 -345 60 -477 168l-129 -146l-40 36l129 145c-133 129 -219 314 -219 540zM386 736
c0 -149 23 -284 66 -394l723 814c-78 157 -201 253 -358 253c-307 0 -431 -284 -431 -673zM1265 709c0 149 -23 283 -67 394l-722 -815c77 -157 201 -253 359 -253c305 0 430 285 430 674z" />
    <glyph glyph-name="ostrokeacute" unicode="&#x1ff;" horiz-adv-x="1192" 
d="M534 1092h-49l145 360h251v-7zM593 -19c-126 0 -241 39 -329 108l-87 -94l-37 34l86 93c-90 87 -144 212 -144 363c0 300 226 508 517 508c128 0 243 -39 331 -109l91 98l38 -35l-90 -97c88 -87 142 -211 142 -360c0 -300 -227 -509 -518 -509zM337 496
c0 -84 10 -160 28 -224l446 483c-45 117 -122 185 -219 185c-160 0 -255 -173 -255 -444zM600 34c161 0 256 174 256 445c0 83 -10 157 -27 220l-446 -482c45 -115 121 -183 217 -183z" />
    <glyph glyph-name="Adblgrave" unicode="&#x200;" horiz-adv-x="1374" 
d="M501 1810l127 -277h-53l-300 271v6h226zM832 1810l58 -277h-50l-218 271v6h210zM1194 248c56 -155 91 -192 192 -209v-39h-575v39c129 17 153 62 102 213l-89 257h-472l-74 -222c-61 -183 -45 -227 97 -248v-39h-387v39c105 17 139 54 210 253l419 1152h151zM371 566h434
l-220 641z" />
    <glyph glyph-name="adblgrave" unicode="&#x201;" horiz-adv-x="1066" 
d="M266 1453l145 -360h-52l-322 353v7h229zM621 1453l76 -360h-51l-239 353v7h214zM362 -19c-165 0 -284 97 -284 241c0 149 111 243 395 303l200 42v105c0 188 -94 258 -246 258c-70 0 -135 -17 -184 -48c59 -3 108 -52 108 -116c0 -65 -53 -115 -120 -115
c-65 0 -119 49 -119 115c0 129 165 229 402 229c241 0 397 -96 397 -312v-499c0 -87 43 -123 102 -123c16 0 31 3 42 6v-36c-34 -24 -97 -45 -170 -45c-106 0 -189 52 -208 151c-42 -90 -164 -156 -315 -156zM321 262c0 -116 75 -182 173 -182c81 0 143 32 179 93v347
l-94 -21c-196 -44 -258 -119 -258 -237z" />
    <glyph glyph-name="Ainvertedbreve" unicode="&#x202;" horiz-adv-x="1374" 
d="M688 1875c163 0 252 -123 252 -247c0 -16 -1 -33 -3 -47h-42v4c0 93 -86 158 -207 158s-207 -64 -207 -158v-4h-41c-3 14 -4 31 -4 47c0 124 88 247 252 247zM1194 248c56 -155 91 -192 192 -209v-39h-575v39c129 17 153 62 102 213l-89 257h-472l-74 -222
c-61 -183 -45 -227 97 -248v-39h-387v39c105 17 139 54 210 253l419 1152h151zM371 566h434l-220 641z" />
    <glyph glyph-name="ainvertedbreve" unicode="&#x203;" horiz-adv-x="1066" 
d="M497 1440c185 0 283 -140 283 -280c0 -18 -2 -37 -5 -54h-45v4c0 105 -97 177 -233 177s-232 -72 -232 -177v-4h-45c-3 17 -5 36 -5 54c0 140 98 280 282 280zM362 -19c-165 0 -284 97 -284 241c0 149 111 243 395 303l200 42v105c0 188 -94 258 -246 258
c-70 0 -135 -17 -184 -48c59 -3 108 -52 108 -116c0 -65 -53 -115 -120 -115c-65 0 -119 49 -119 115c0 129 165 229 402 229c241 0 397 -96 397 -312v-499c0 -87 43 -123 102 -123c16 0 31 3 42 6v-36c-34 -24 -97 -45 -170 -45c-106 0 -189 52 -208 151
c-42 -90 -164 -156 -315 -156zM321 262c0 -116 75 -182 173 -182c81 0 143 32 179 93v347l-94 -21c-196 -44 -258 -119 -258 -237z" />
    <glyph glyph-name="Edblgrave" unicode="&#x204;" horiz-adv-x="1229" 
d="M458 1810l126 -277h-52l-300 271v6h226zM788 1810l59 -277h-50l-219 271v6h210zM1105 1444l15 -359h-37c-55 231 -144 293 -423 305l-201 8v-635l254 5c124 5 150 52 181 204h34v-465h-34c-29 151 -56 199 -181 204l-254 6v-671l237 9c295 14 380 73 436 342h38l-18 -397
h-1097v39c120 19 139 42 139 130v1106c0 88 -19 111 -139 130v39h1050z" />
    <glyph glyph-name="edblgrave" unicode="&#x205;" horiz-adv-x="1045" 
d="M328 1453l145 -360h-52l-322 353v7h229zM682 1453l77 -360h-51l-239 353v7h213zM82 488c0 294 186 507 476 507c260 0 413 -166 413 -406c0 -21 -3 -44 -5 -58h-638c14 -268 163 -441 379 -441c108 0 192 40 245 95l1 -39c-66 -99 -204 -165 -376 -165
c-283 0 -495 200 -495 507zM557 941c-144 0 -230 -133 -230 -364l418 4c1 15 2 32 2 53c0 179 -62 307 -190 307z" />
    <glyph glyph-name="Einvertedbreve" unicode="&#x206;" horiz-adv-x="1229" 
d="M644 1875c163 0 253 -123 253 -247c0 -16 -2 -33 -4 -47h-41v4c0 93 -86 158 -208 158c-120 0 -206 -64 -206 -158v-4h-42c-2 14 -3 31 -3 47c0 124 87 247 251 247zM1105 1444l15 -359h-37c-55 231 -144 293 -423 305l-201 8v-635l254 5c124 5 150 52 181 204h34v-465
h-34c-29 151 -56 199 -181 204l-254 6v-671l237 9c295 14 380 73 436 342h38l-18 -397h-1097v39c120 19 139 42 139 130v1106c0 88 -19 111 -139 130v39h1050z" />
    <glyph glyph-name="einvertedbreve" unicode="&#x207;" horiz-adv-x="1045" 
d="M559 1440c185 0 282 -140 282 -280c0 -18 -1 -37 -4 -54h-45v4c0 105 -97 177 -233 177s-232 -72 -232 -177v-4h-45c-4 17 -5 36 -5 54c0 140 97 280 282 280zM82 488c0 294 186 507 476 507c260 0 413 -166 413 -406c0 -21 -3 -44 -5 -58h-638
c14 -268 163 -441 379 -441c108 0 192 40 245 95l1 -39c-66 -99 -204 -165 -376 -165c-283 0 -495 200 -495 507zM557 941c-144 0 -230 -133 -230 -364l418 4c1 15 2 32 2 53c0 179 -62 307 -190 307z" />
    <glyph glyph-name="Idblgrave" unicode="&#x208;" horiz-adv-x="654" 
d="M139 1810l127 -277h-53l-300 271v6h226zM470 1810l58 -277h-49l-219 271v6h210zM459 169c0 -88 21 -111 140 -130v-39h-544v39c120 19 139 42 139 130v1106c0 88 -19 111 -139 130v39h544v-39c-119 -19 -140 -42 -140 -130v-1106z" />
    <glyph glyph-name="idblgrave" unicode="&#x209;" horiz-adv-x="569" 
d="M38 1453l145 -360h-51l-322 353v7h228zM393 1453l76 -360h-50l-240 353v7h214zM410 988v-844c0 -70 18 -88 119 -105v-39h-481v39c102 17 119 35 119 105v661c0 57 -7 70 -63 88l-56 17v36z" />
    <glyph glyph-name="Iinvertedbreve" unicode="&#x20a;" horiz-adv-x="654" 
d="M326 1875c163 0 252 -123 252 -247c0 -16 -1 -33 -3 -47h-42v4c0 93 -86 158 -207 158s-206 -64 -206 -158v-4h-42c-2 14 -3 31 -3 47c0 124 87 247 251 247zM459 169c0 -88 21 -111 140 -130v-39h-544v39c120 19 139 42 139 130v1106c0 88 -19 111 -139 130v39h544v-39
c-119 -19 -140 -42 -140 -130v-1106z" />
    <glyph glyph-name="iinvertedbreve" unicode="&#x20b;" horiz-adv-x="569" 
d="M270 1440c166 0 254 -140 254 -280c0 -18 -1 -37 -4 -54h-41v4c0 105 -87 177 -209 177c-123 0 -209 -72 -209 -177v-4h-41c-3 17 -4 36 -4 54c0 140 87 280 254 280zM410 988v-844c0 -70 18 -88 119 -105v-39h-481v39c102 17 119 35 119 105v661c0 57 -7 70 -63 88
l-56 17v36z" />
    <glyph glyph-name="Odblgrave" unicode="&#x20c;" horiz-adv-x="1651" 
d="M633 1810l126 -277h-52l-300 271v6h226zM964 1810l58 -277h-50l-218 271v6h210zM91 721c0 414 290 745 732 745c388 0 737 -285 737 -742c0 -414 -291 -746 -733 -746c-387 0 -736 286 -736 743zM386 736c0 -404 171 -701 449 -701c306 0 430 285 430 674
c0 404 -172 700 -448 700c-307 0 -431 -284 -431 -673z" />
    <glyph glyph-name="odblgrave" unicode="&#x20d;" horiz-adv-x="1199" 
d="M368 1453l144 -360h-51l-322 353v7h229zM722 1453l77 -360h-51l-239 353v7h213zM597 -19c-290 0 -515 198 -515 505c0 301 227 509 521 509c289 0 515 -198 515 -504c0 -300 -228 -510 -521 -510zM603 36c160 0 252 173 252 444c0 280 -103 461 -259 461
c-160 0 -252 -173 -252 -444c0 -280 103 -461 259 -461z" />
    <glyph glyph-name="Oinvertedbreve" unicode="&#x20e;" horiz-adv-x="1651" 
d="M819 1875c164 0 253 -123 253 -247c0 -16 -1 -33 -4 -47h-41v4c0 93 -86 158 -208 158c-120 0 -206 -64 -206 -158v-4h-42c-2 14 -3 31 -3 47c0 124 88 247 251 247zM91 721c0 414 290 745 732 745c388 0 737 -285 737 -742c0 -414 -291 -746 -733 -746
c-387 0 -736 286 -736 743zM386 736c0 -404 171 -701 449 -701c306 0 430 285 430 674c0 404 -172 700 -448 700c-307 0 -431 -284 -431 -673z" />
    <glyph glyph-name="oinvertedbreve" unicode="&#x20f;" horiz-adv-x="1199" 
d="M599 1440c185 0 282 -140 282 -280c0 -18 -1 -37 -4 -54h-45v4c0 105 -97 177 -233 177s-232 -72 -232 -177v-4h-46c-3 17 -4 36 -4 54c0 140 97 280 282 280zM597 -19c-290 0 -515 198 -515 505c0 301 227 509 521 509c289 0 515 -198 515 -504
c0 -300 -228 -510 -521 -510zM603 36c160 0 252 173 252 444c0 280 -103 461 -259 461c-160 0 -252 -173 -252 -444c0 -280 103 -461 259 -461z" />
    <glyph glyph-name="Rdblgrave" unicode="&#x210;" horiz-adv-x="1348" 
d="M446 1810l126 -277h-52l-300 271v6h226zM776 1810l59 -277h-50l-219 271v6h210zM1199 1060c0 -174 -123 -298 -293 -339l208 -415c112 -214 156 -251 215 -269v-37h-331l-334 667h-205v-504c0 -83 21 -104 133 -124v-39h-537v39c120 22 139 43 139 130v1106
c0 91 -19 112 -139 130v39h554c392 0 590 -149 590 -384zM931 1044c0 196 -107 341 -375 351l-97 3v-686l121 5c215 7 351 119 351 327z" />
    <glyph glyph-name="rdblgrave" unicode="&#x211;" horiz-adv-x="833" 
d="M228 1453l144 -360h-51l-322 353v7h229zM582 1453l76 -360h-50l-240 353v7h214zM408 988v-237c108 163 190 240 279 240c77 0 111 -55 111 -120c0 -34 -10 -67 -21 -84c-22 7 -68 14 -114 14c-100 0 -204 -31 -253 -80v-569c0 -77 15 -96 131 -113v-39h-493v39
c104 16 119 34 119 102v664c0 57 -8 70 -63 88l-56 17v36z" />
    <glyph glyph-name="Rinvertedbreve" unicode="&#x212;" horiz-adv-x="1348" 
d="M632 1875c163 0 253 -123 253 -247c0 -16 -2 -33 -4 -47h-41v4c0 93 -86 158 -208 158c-120 0 -206 -64 -206 -158v-4h-42c-2 14 -3 31 -3 47c0 124 87 247 251 247zM1199 1060c0 -174 -123 -298 -293 -339l208 -415c112 -214 156 -251 215 -269v-37h-331l-334 667h-205
v-504c0 -83 21 -104 133 -124v-39h-537v39c120 22 139 43 139 130v1106c0 91 -19 112 -139 130v39h554c392 0 590 -149 590 -384zM931 1044c0 196 -107 341 -375 351l-97 3v-686l121 5c215 7 351 119 351 327z" />
    <glyph glyph-name="rinvertedbreve" unicode="&#x213;" horiz-adv-x="833" 
d="M459 1440c185 0 282 -140 282 -280c0 -18 -1 -37 -4 -54h-46v4c0 105 -96 177 -232 177s-233 -72 -233 -177v-4h-45c-3 17 -4 36 -4 54c0 140 97 280 282 280zM408 988v-237c108 163 190 240 279 240c77 0 111 -55 111 -120c0 -34 -10 -67 -21 -84c-22 7 -68 14 -114 14
c-100 0 -204 -31 -253 -80v-569c0 -77 15 -96 131 -113v-39h-493v39c104 16 119 34 119 102v664c0 57 -8 70 -63 88l-56 17v36z" />
    <glyph glyph-name="Udblgrave" unicode="&#x214;" horiz-adv-x="1468" 
d="M621 1810l126 -277h-52l-300 271v6h226zM951 1810l59 -277h-50l-219 271v6h210zM164 1281c0 85 -21 105 -132 124v39h537v-39c-120 -19 -140 -42 -140 -130v-712c0 -338 168 -492 404 -492c245 0 408 182 404 488l-9 624c-3 165 -22 202 -152 222v39h372v-40
c-119 -17 -138 -56 -141 -220l-9 -637c-5 -342 -196 -569 -556 -569c-304 0 -578 167 -578 583v720z" />
    <glyph glyph-name="udblgrave" unicode="&#x215;" horiz-adv-x="1199" 
d="M362 1453l145 -360h-52l-322 353v7h229zM717 1453l76 -360h-51l-239 353v7h214zM390 988v-662c0 -158 73 -236 206 -236c92 0 163 45 200 109v606c0 57 -7 70 -62 88l-57 17v36l362 42v-816c0 -58 8 -70 63 -89l56 -16v-36l-360 -41v174c-54 -108 -171 -183 -325 -183
c-193 0 -327 101 -327 312v512c0 57 -8 70 -62 88l-56 17v36z" />
    <glyph glyph-name="Uinvertedbreve" unicode="&#x216;" horiz-adv-x="1468" 
d="M807 1875c163 0 253 -123 253 -247c0 -16 -2 -33 -4 -47h-41v4c0 93 -86 158 -208 158c-120 0 -206 -64 -206 -158v-4h-42c-2 14 -3 31 -3 47c0 124 87 247 251 247zM164 1281c0 85 -21 105 -132 124v39h537v-39c-120 -19 -140 -42 -140 -130v-712
c0 -338 168 -492 404 -492c245 0 408 182 404 488l-9 624c-3 165 -22 202 -152 222v39h372v-40c-119 -17 -138 -56 -141 -220l-9 -637c-5 -342 -196 -569 -556 -569c-304 0 -578 167 -578 583v720z" />
    <glyph glyph-name="uinvertedbreve" unicode="&#x217;" horiz-adv-x="1199" 
d="M593 1440c185 0 283 -140 283 -280c0 -18 -2 -37 -5 -54h-45v4c0 105 -97 177 -233 177s-232 -72 -232 -177v-4h-45c-3 17 -5 36 -5 54c0 140 98 280 282 280zM390 988v-662c0 -158 73 -236 206 -236c92 0 163 45 200 109v606c0 57 -7 70 -62 88l-57 17v36l362 42v-816
c0 -58 8 -70 63 -89l56 -16v-36l-360 -41v174c-54 -108 -171 -183 -325 -183c-193 0 -327 101 -327 312v512c0 57 -8 70 -62 88l-56 17v36z" />
    <glyph glyph-name="Scommaaccent" unicode="&#x218;" horiz-adv-x="1172" 
d="M562 -22c-204 0 -363 48 -454 106l-14 348h36c58 -263 230 -397 433 -397c176 0 296 104 296 264c0 143 -88 231 -282 303l-111 39c-235 85 -363 222 -363 424c0 258 218 401 513 401c180 0 314 -42 382 -91l12 -321h-37c-52 227 -178 355 -359 355
c-185 0 -285 -97 -285 -238c0 -143 100 -223 284 -290l108 -40c241 -89 365 -229 365 -434c0 -263 -236 -429 -524 -429zM570 -453c-88 0 -165 38 -197 87v37c31 -25 80 -44 135 -44c63 0 107 29 107 77c0 49 -45 77 -106 77c-31 0 -62 -8 -79 -16v36c28 41 85 80 167 80
c112 0 194 -63 194 -165s-91 -169 -221 -169z" />
    <glyph glyph-name="scommaaccent" unicode="&#x219;" horiz-adv-x="917" 
d="M89 701c0 187 164 294 398 294c140 0 247 -30 297 -60l5 -253h-38c-33 167 -133 258 -262 258c-123 0 -194 -62 -194 -151c0 -88 67 -132 186 -171l78 -25c179 -57 279 -152 279 -312c0 -189 -189 -298 -402 -298c-144 0 -275 33 -343 78l-11 272h37
c40 -188 175 -296 314 -296c122 0 199 68 199 160c0 90 -55 142 -181 182l-78 26c-178 57 -284 145 -284 296zM437 -453c-88 0 -165 38 -197 87v37c31 -25 80 -44 134 -44c64 0 108 29 108 77c0 49 -46 77 -106 77c-32 0 -62 -8 -79 -16v36c28 41 85 80 166 80
c112 0 195 -63 195 -165s-91 -169 -221 -169z" />
    <glyph glyph-name="Tcommaaccent" unicode="&#x21a;" horiz-adv-x="1307" 
d="M1251 1444l15 -359h-37c-49 232 -132 292 -390 310l-53 3v-1215c0 -97 20 -126 151 -144v-39h-566v39c130 18 150 47 150 144v1215l-54 -3c-256 -18 -340 -76 -389 -310h-37l14 359h1196zM647 -453c-89 0 -165 38 -198 87v37c32 -25 81 -44 135 -44c64 0 108 29 108 77
c0 49 -46 77 -107 77c-31 0 -61 -8 -78 -16v36c28 41 84 80 166 80c112 0 194 -63 194 -165s-90 -169 -220 -169z" />
    <glyph glyph-name="tcommaaccent" unicode="&#x21b;" horiz-adv-x="678" 
d="M158 272v629h-121v31l339 257h24v-225l255 13v-76l-255 13v-642c0 -138 63 -189 150 -189c47 0 91 17 119 43v-39c-36 -55 -129 -106 -244 -106c-152 0 -267 85 -267 291zM418 -453c-89 0 -165 38 -198 87v37c32 -25 81 -44 135 -44c64 0 108 29 108 77
c0 49 -46 77 -107 77c-31 0 -61 -8 -79 -16v36c28 41 85 80 167 80c112 0 194 -63 194 -165s-90 -169 -220 -169z" />
    <glyph glyph-name="Hcaron" unicode="&#x21e;" horiz-adv-x="1589" 
d="M1024 1828h48l-204 -276h-127l-204 276h51l217 -141zM459 163c0 -85 21 -105 133 -124v-39h-537v39c120 19 139 42 139 130v1106c0 88 -19 111 -139 130v39h537v-40c-112 -18 -133 -38 -133 -123v-516h670v516c0 86 -19 106 -132 124v39h537v-39
c-118 -19 -140 -40 -140 -130v-1106c0 -89 22 -111 140 -130v-39h-537v39c113 18 132 38 132 124v550h-670v-550z" />
    <glyph glyph-name="hcaron" unicode="&#x21f;" horiz-adv-x="1225" 
d="M497 1865h48l-204 -275h-127l-204 275h51l217 -141zM410 1486v-671c54 107 173 180 326 180c197 0 334 -100 334 -308v-543c0 -70 14 -88 118 -105v-39h-471v39c96 15 109 32 109 99v516c0 156 -76 232 -209 232c-96 0 -169 -44 -207 -109v-639c0 -67 13 -83 109 -99v-39
h-471v39c102 17 119 35 119 105v1159c0 57 -7 69 -63 88l-56 17v36z" />
    <glyph glyph-name="Adotaccent" unicode="&#x226;" horiz-adv-x="1374" 
d="M689 1567c-61 0 -110 47 -110 106s49 104 110 104c60 0 109 -45 109 -104s-49 -106 -109 -106zM1194 248c56 -155 91 -192 192 -209v-39h-575v39c129 17 153 62 102 213l-89 257h-472l-74 -222c-61 -183 -45 -227 97 -248v-39h-387v39c105 17 139 54 210 253l419 1152
h151zM371 566h434l-220 641z" />
    <glyph glyph-name="adotaccent" unicode="&#x227;" horiz-adv-x="1066" 
d="M497 1155c-71 0 -128 54 -128 123c0 70 57 124 128 124c72 0 129 -54 129 -124c0 -69 -57 -123 -129 -123zM362 -19c-165 0 -284 97 -284 241c0 149 111 243 395 303l200 42v105c0 188 -94 258 -246 258c-70 0 -135 -17 -184 -48c59 -3 108 -52 108 -116
c0 -65 -53 -115 -120 -115c-65 0 -119 49 -119 115c0 129 165 229 402 229c241 0 397 -96 397 -312v-499c0 -87 43 -123 102 -123c16 0 31 3 42 6v-36c-34 -24 -97 -45 -170 -45c-106 0 -189 52 -208 151c-42 -90 -164 -156 -315 -156zM321 262c0 -116 75 -182 173 -182
c81 0 143 32 179 93v347l-94 -21c-196 -44 -258 -119 -258 -237z" />
    <glyph glyph-name="Ecedilla" unicode="&#x228;" horiz-adv-x="1229" 
d="M613 -451c-87 0 -164 34 -198 88v39c26 -23 71 -40 118 -40c58 0 104 29 104 79c0 52 -46 81 -106 81c-20 0 -40 -4 -49 -9v34l139 179h-566v39c120 19 139 42 139 130v1106c0 88 -19 111 -139 130v39h1050l15 -359h-37c-55 231 -144 293 -423 305l-201 8v-635l254 5
c124 5 150 52 181 204h34v-465h-34c-29 151 -56 199 -181 204l-254 6v-671l237 9c295 14 380 73 436 342h38l-18 -397h-486v-8l-88 -116c15 4 33 7 51 7c109 -1 196 -63 196 -166c0 -109 -103 -168 -212 -168z" />
    <glyph glyph-name="ecedilla" unicode="&#x229;" horiz-adv-x="1045" 
d="M82 488c0 294 186 507 476 507c260 0 413 -166 413 -406c0 -21 -3 -44 -5 -58h-638c14 -268 163 -441 379 -441c108 0 192 40 245 95l1 -39c-63 -94 -190 -158 -349 -164l-80 -106c15 4 33 7 51 7c109 -1 196 -63 196 -166c0 -109 -103 -168 -212 -168
c-87 0 -164 34 -198 88v39c26 -23 71 -40 118 -40c58 0 103 29 103 79c0 52 -45 81 -105 81c-21 0 -41 -4 -49 -9v34l125 161c-271 11 -471 208 -471 506zM557 941c-144 0 -230 -133 -230 -364l418 4c1 15 2 32 2 53c0 179 -62 307 -190 307z" />
    <glyph glyph-name="Odieresismacron" unicode="&#x22a;" horiz-adv-x="1651" 
d="M553 1819v94h535v-94h-535zM675 1562h-7c-49 0 -87 33 -87 78c0 43 38 76 87 76h7c50 0 88 -33 88 -76c0 -45 -38 -78 -88 -78zM972 1562h-7c-50 0 -88 33 -88 78c0 43 38 76 88 76h7c50 0 88 -33 88 -76c0 -45 -38 -78 -88 -78zM91 721c0 414 290 745 732 745
c388 0 737 -285 737 -742c0 -414 -291 -746 -733 -746c-387 0 -736 286 -736 743zM386 736c0 -404 171 -701 449 -701c306 0 430 285 430 674c0 404 -172 700 -448 700c-307 0 -431 -284 -431 -673z" />
    <glyph glyph-name="odieresismacron" unicode="&#x22b;" horiz-adv-x="1199" 
d="M338 1405v111h522v-111h-522zM446 1105h-7c-52 0 -92 39 -92 90c0 52 40 92 92 92h7c52 0 93 -40 93 -92c0 -51 -41 -90 -93 -90zM759 1105h-7c-52 0 -92 39 -92 90c0 52 40 92 92 92h7c52 0 93 -40 93 -92c0 -51 -41 -90 -93 -90zM597 -19c-290 0 -515 198 -515 505
c0 301 227 509 521 509c289 0 515 -198 515 -504c0 -300 -228 -510 -521 -510zM603 36c160 0 252 173 252 444c0 280 -103 461 -259 461c-160 0 -252 -173 -252 -444c0 -280 103 -461 259 -461z" />
    <glyph glyph-name="Otildemacron" unicode="&#x22c;" horiz-adv-x="1651" 
d="M553 1819v94h535v-94h-535zM935 1568c-47 0 -89 9 -132 23l-31 9c-41 13 -69 19 -97 19c-48 0 -76 -19 -77 -66h-44c-2 105 60 159 152 159c47 0 88 -9 132 -22l32 -10c40 -12 69 -19 97 -19c47 0 75 19 77 66h44c1 -106 -60 -159 -153 -159zM91 721
c0 414 290 745 732 745c388 0 737 -285 737 -742c0 -414 -291 -746 -733 -746c-387 0 -736 286 -736 743zM386 736c0 -404 171 -701 449 -701c306 0 430 285 430 674c0 404 -172 700 -448 700c-307 0 -431 -284 -431 -673z" />
    <glyph glyph-name="otildemacron" unicode="&#x22d;" horiz-adv-x="1199" 
d="M338 1405v111h522v-111h-522zM711 1116c-45 0 -87 12 -129 27l-30 11c-40 14 -68 22 -95 22c-47 0 -74 -21 -75 -78h-43c-2 125 59 188 148 188c46 0 87 -11 129 -26l31 -12c39 -14 67 -21 95 -21c46 0 74 20 75 77h42c2 -125 -58 -188 -148 -188zM597 -19
c-290 0 -515 198 -515 505c0 301 227 509 521 509c289 0 515 -198 515 -504c0 -300 -228 -510 -521 -510zM603 36c160 0 252 173 252 444c0 280 -103 461 -259 461c-160 0 -252 -173 -252 -444c0 -280 103 -461 259 -461z" />
    <glyph glyph-name="Odotaccent" unicode="&#x22e;" horiz-adv-x="1651" 
d="M820 1567c-61 0 -109 47 -109 106s48 104 109 104s110 -45 110 -104s-49 -106 -110 -106zM91 721c0 414 290 745 732 745c388 0 737 -285 737 -742c0 -414 -291 -746 -733 -746c-387 0 -736 286 -736 743zM386 736c0 -404 171 -701 449 -701c306 0 430 285 430 674
c0 404 -172 700 -448 700c-307 0 -431 -284 -431 -673z" />
    <glyph glyph-name="odotaccent" unicode="&#x22f;" horiz-adv-x="1199" 
d="M599 1155c-71 0 -129 54 -129 123c0 70 58 124 129 124s129 -54 129 -124c0 -69 -58 -123 -129 -123zM597 -19c-290 0 -515 198 -515 505c0 301 227 509 521 509c289 0 515 -198 515 -504c0 -300 -228 -510 -521 -510zM603 36c160 0 252 173 252 444
c0 280 -103 461 -259 461c-160 0 -252 -173 -252 -444c0 -280 103 -461 259 -461z" />
    <glyph glyph-name="Odotaccentmacron" unicode="&#x230;" horiz-adv-x="1651" 
d="M553 1796v94h535v-94h-535zM820 1557c-53 0 -94 36 -94 82c0 47 41 83 94 83c54 0 95 -36 95 -83c0 -46 -41 -82 -95 -82zM91 721c0 414 290 745 732 745c388 0 737 -285 737 -742c0 -414 -291 -746 -733 -746c-387 0 -736 286 -736 743zM386 736
c0 -404 171 -701 449 -701c306 0 430 285 430 674c0 404 -172 700 -448 700c-307 0 -431 -284 -431 -673z" />
    <glyph glyph-name="odotaccentmacron" unicode="&#x231;" horiz-adv-x="1199" 
d="M338 1394v111h522v-111h-522zM599 1104c-55 0 -99 41 -99 96s44 97 99 97c56 0 99 -42 99 -97s-43 -96 -99 -96zM597 -19c-290 0 -515 198 -515 505c0 301 227 509 521 509c289 0 515 -198 515 -504c0 -300 -228 -510 -521 -510zM603 36c160 0 252 173 252 444
c0 280 -103 461 -259 461c-160 0 -252 -173 -252 -444c0 -280 103 -461 259 -461z" />
    <glyph glyph-name="Ymacron" unicode="&#x232;" horiz-adv-x="1331" 
d="M491 1598v116h504v-116h-504zM216 1200c-96 161 -131 189 -222 205v39h567v-39c-122 -18 -142 -61 -58 -208l271 -471l238 438c96 178 86 222 -51 241v39h376v-39c-96 -18 -135 -54 -250 -246l-289 -481v-495c0 -97 20 -126 151 -144v-39h-566v39c130 18 151 47 151 144
v479z" />
    <glyph glyph-name="ymacron" unicode="&#x233;" horiz-adv-x="1019" 
d="M280 1198v136h559v-136h-559zM153 777c-49 120 -76 144 -157 160v40h510v-40c-117 -16 -133 -45 -85 -177l182 -498l178 492c49 137 31 166 -86 183v40h328v-40c-83 -16 -111 -42 -172 -193l-208 -512l-102 -249l-155 -443h-191v3c90 101 212 292 286 440z" />
    <glyph glyph-name="dotlessj" unicode="&#x237;" horiz-adv-x="547" 
d="M401 988v-811c0 -319 -87 -434 -354 -610l-62 -42l-24 33c157 137 197 274 197 577v670c0 57 -8 70 -63 88l-56 17v36z" />
    <glyph glyph-name="schwa" unicode="&#x259;" horiz-adv-x="1045" 
d="M964 489c0 -295 -187 -508 -477 -508c-259 0 -412 167 -412 406c0 22 2 44 4 59h638c-15 268 -163 440 -378 440c-107 0 -192 -39 -246 -95l-1 40c67 98 205 164 376 164c283 0 496 -200 496 -506zM299 343c0 -180 60 -307 189 -307c145 0 230 132 230 363l-417 -4
c-1 -15 -2 -32 -2 -52z" />
    <glyph glyph-name="g.1" unicode="&#x261;" horiz-adv-x="1201" 
d="M82 491c0 311 210 505 467 505c135 0 240 -55 284 -140l104 121h118v-981c0 -319 -231 -482 -529 -482c-257 0 -382 136 -382 262c0 67 51 118 113 118c64 0 115 -50 115 -115c0 -64 -51 -113 -111 -113c-7 0 -14 0 -21 2c47 -52 127 -88 234 -88c198 0 336 125 338 389
l1 220c-51 -113 -176 -186 -322 -186c-214 0 -409 177 -409 488zM334 520c0 -253 117 -409 270 -409c98 0 167 41 207 112v597c-29 61 -106 104 -193 104c-168 0 -284 -157 -284 -404z" />
    <glyph glyph-name="quoteright" unicode="&#x2019;" horiz-adv-x="480" 
d="M93 938l-9 36c85 18 158 84 158 174c0 75 -61 132 -148 137c0 96 54 178 144 178c91 0 152 -84 152 -196c0 -173 -146 -307 -297 -329z" />
    <glyph glyph-name="quoteright" unicode="&#x2bc;" horiz-adv-x="480" 
d="M93 938l-9 36c85 18 158 84 158 174c0 75 -61 132 -148 137c0 96 54 178 144 178c91 0 152 -84 152 -196c0 -173 -146 -307 -297 -329z" />
    <glyph glyph-name="circumflex" unicode="&#x2c6;" horiz-adv-x="1024" 
d="M276 1093h-49l224 360h122l224 -360h-50l-234 191z" />
    <glyph glyph-name="caron" unicode="&#x2c7;" horiz-adv-x="1024" 
d="M748 1477h49l-224 -360h-122l-224 360h50l234 -191z" />
    <glyph glyph-name="breve" unicode="&#x2d8;" horiz-adv-x="1024" 
d="M512 1130c-185 0 -282 140 -282 280c0 19 1 37 4 55h45v-5c0 -105 97 -177 233 -177s233 72 233 177v5h45c3 -18 4 -36 4 -55c0 -140 -97 -280 -282 -280z" />
    <glyph glyph-name="dotaccent" unicode="&#x2d9;" horiz-adv-x="1024" 
d="M512 1155c-71 0 -129 54 -129 123c0 70 58 124 129 124s129 -54 129 -124c0 -69 -58 -123 -129 -123z" />
    <glyph glyph-name="ring" unicode="&#x2da;" horiz-adv-x="1024" 
d="M252 1283c0 113 117 184 260 184s260 -71 260 -183c0 -113 -118 -182 -260 -182s-260 69 -260 181zM417 1283c0 -83 37 -138 95 -138s95 55 95 139c0 81 -37 140 -95 140s-95 -59 -95 -141z" />
    <glyph glyph-name="ogonek" unicode="&#x2db;" horiz-adv-x="1024" 
d="M322 -473c-101 0 -179 61 -179 162c0 113 91 225 332 341l44 1c-142 -100 -195 -187 -195 -276c0 -83 52 -126 109 -126c39 0 74 12 94 35v-38c-35 -61 -114 -99 -205 -99z" />
    <glyph glyph-name="tilde" unicode="&#x2dc;" horiz-adv-x="1024" 
d="M628 1152c-54 0 -98 22 -152 60l-30 22c-37 27 -62 39 -92 39c-44 0 -70 -31 -75 -131h-45c-8 195 65 266 162 266c55 0 98 -23 152 -60l30 -22c37 -28 62 -40 92 -40c44 0 70 31 75 131h45c8 -194 -65 -265 -162 -265z" />
    <glyph glyph-name="hungarumlaut" unicode="&#x2dd;" horiz-adv-x="1024" 
d="M390 1453h214v-7l-240 -353h-50zM745 1453h228v-7l-321 -353h-53z" />
    <glyph glyph-name="gravecmb" unicode="&#x300;" 
d="M62 1093l-351 353v7h261l140 -360h-50z" />
    <glyph glyph-name="acutecmb" unicode="&#x301;" 
d="M-62 1093h-50l146 360h251v-7z" />
    <glyph glyph-name="circumflexcmb" unicode="&#x302;" 
d="M-236 1093h-49l224 360h122l224 -360h-50l-234 191z" />
    <glyph glyph-name="tildecmb" unicode="&#x303;" 
d="M116 1152c-54 0 -98 22 -152 60l-30 22c-37 27 -62 39 -92 39c-44 0 -70 -31 -75 -131h-45c-8 195 65 266 162 266c55 0 98 -23 152 -60l30 -22c37 -28 62 -40 92 -40c44 0 70 31 75 131h45c8 -194 -65 -265 -162 -265z" />
    <glyph glyph-name="macroncmb" unicode="&#x304;" 
d="M-279 1198v136h558v-136h-558z" />
    <glyph glyph-name="brevecmb" unicode="&#x306;" 
d="M0 1130c-185 0 -282 140 -282 280c0 19 1 37 4 55h45v-5c0 -105 97 -177 233 -177s233 72 233 177v5h45c3 -18 4 -36 4 -55c0 -140 -97 -280 -282 -280z" />
    <glyph glyph-name="dotaccentcmb" unicode="&#x307;" 
d="M0 1155c-71 0 -129 54 -129 123c0 70 58 124 129 124s129 -54 129 -124c0 -69 -58 -123 -129 -123z" />
    <glyph glyph-name="dieresiscmb" unicode="&#x308;" 
d="M-212 1162c-67 0 -121 51 -121 116c0 66 54 116 121 116s121 -50 121 -116c0 -65 -54 -116 -121 -116zM212 1162c-67 0 -121 51 -121 116c0 66 54 116 121 116s121 -50 121 -116c0 -65 -54 -116 -121 -116z" />
    <glyph glyph-name="hookabovecmb" unicode="&#x309;" 
d="M34 1462c107 0 182 -59 182 -143s-63 -152 -239 -220h-49c84 54 128 105 128 163c0 53 -44 87 -112 87c-53 0 -99 -19 -126 -47v36c35 68 111 124 216 124z" />
    <glyph glyph-name="ringcmb" unicode="&#x30a;" 
d="M-260 1283c0 113 117 184 260 184s260 -71 260 -183c0 -113 -118 -182 -260 -182s-260 69 -260 181zM-95 1283c0 -83 37 -138 95 -138s95 55 95 139c0 81 -37 140 -95 140s-95 -59 -95 -141z" />
    <glyph glyph-name="hungarumlautcmb" unicode="&#x30b;" 
d="M-122 1453h214v-7l-240 -353h-50zM233 1453h228v-7l-321 -353h-53z" />
    <glyph glyph-name="caroncmb" unicode="&#x30c;" 
d="M236 1477h49l-224 -360h-122l-224 360h50l234 -191z" />
    <glyph glyph-name="dblgravecmb" unicode="&#x30f;" 
d="M-231 1453l144 -360h-51l-322 353v7h229zM123 1453l77 -360h-51l-240 353v7h214z" />
    <glyph glyph-name="invertedbrevecmb" unicode="&#x311;" 
d="M0 1440c185 0 282 -140 282 -280c0 -18 -1 -37 -4 -54h-45v4c0 105 -97 177 -233 177s-233 -72 -233 -177v-4h-45c-3 17 -4 36 -4 54c0 140 97 280 282 280z" />
    <glyph glyph-name="horncmb" unicode="&#x31b;" 
d="M193 1310h48c89 -30 157 -94 157 -175c0 -106 -103 -188 -418 -190v32c188 0 257 93 257 194c0 61 -19 110 -44 139z" />
    <glyph glyph-name="dotbelowcmb" unicode="&#x323;" 
d="M0 -397c-66 0 -120 48 -120 110c0 63 54 112 120 112s120 -49 120 -112c0 -62 -54 -110 -120 -110z" />
    <glyph glyph-name="dieresisbelowcmb" unicode="&#x324;" 
d="M-197 -391c-63 0 -113 46 -113 104c0 60 50 105 113 105c62 0 112 -45 112 -105c0 -58 -50 -104 -112 -104zM197 -391c-62 0 -113 46 -113 104c0 60 51 105 113 105s113 -45 113 -105c0 -58 -51 -104 -113 -104z" />
    <glyph glyph-name="ringbelowcmb" unicode="&#x325;" 
d="M-260 -287c0 105 117 170 260 170s260 -66 260 -169c0 -107 -118 -170 -260 -170s-260 64 -260 169zM-95 -287c0 -76 37 -127 95 -127s95 50 95 128c0 74 -37 128 -95 128s-95 -54 -95 -129z" />
    <glyph glyph-name="commaaccentcmb" unicode="&#x326;" 
d="M-11 -453c-88 0 -165 38 -197 87v37c31 -25 80 -44 135 -44c63 0 107 29 107 77c0 49 -46 77 -106 77c-31 0 -62 -8 -79 -16v36c28 41 85 80 167 80c112 0 194 -63 194 -165s-91 -169 -221 -169z" />
    <glyph glyph-name="cedillacmb" unicode="&#x327;" 
d="M-23 -451c-87 0 -163 34 -198 88v39c27 -23 71 -40 119 -40c58 0 103 29 103 79c0 52 -45 81 -105 81c-21 0 -41 -4 -49 -9v34l149 192h35v-21l-88 -116c15 4 32 7 51 7c109 -1 196 -63 196 -166c0 -109 -103 -168 -213 -168z" />
    <glyph glyph-name="ogonekcmb" unicode="&#x328;" 
d="M-190 -473c-101 0 -179 61 -179 162c0 113 91 225 332 341l44 1c-142 -100 -195 -187 -195 -276c0 -83 52 -126 109 -126c39 0 74 12 94 35v-38c-35 -61 -114 -99 -205 -99z" />
    <glyph glyph-name="circumflexbelowcmb" unicode="&#x32d;" 
d="M-219 -448h-46l208 325h114l208 -325h-47l-217 172z" />
    <glyph glyph-name="brevebelowcmb" unicode="&#x32e;" 
d="M0 -437c-172 0 -262 126 -262 253c0 16 1 33 4 48h42v-4c0 -94 90 -159 216 -159c127 0 216 65 216 159v4h42c3 -15 4 -32 4 -48c0 -127 -90 -253 -262 -253z" />
    <glyph glyph-name="tildebelowcmb" unicode="&#x330;" 
d="M108 -401c-51 0 -91 20 -141 54l-29 21c-34 24 -57 35 -85 35c-41 0 -65 -28 -69 -118h-42c-8 175 60 239 150 239c51 0 91 -21 141 -54l28 -20c35 -25 58 -36 86 -36c41 0 65 28 69 118h42c8 -175 -60 -239 -150 -239z" />
    <glyph glyph-name="macronbelowcmb" unicode="&#x332;" 
d="M-260 -347v123h520v-123h-520z" />
    <glyph glyph-name="macronbelowcmb" unicode="&#x331;" 
d="M-260 -347v123h520v-123h-520z" />
    <glyph glyph-name="numeralsign.grek" unicode="&#x374;" horiz-adv-x="245" 
d="M43 1039h-38l43 405h192z" />
    <glyph glyph-name="lownumeralsign.grek" unicode="&#x375;" horiz-adv-x="245" 
d="M202 20h38l-43 -405h-192z" />
    <glyph glyph-name="tonosgreek" unicode="&#x384;" horiz-adv-x="1024" 
d="M465 1093l47 360h236v-7l-232 -353h-51z" />
    <glyph glyph-name="dieresistonosgreek" unicode="&#x385;" horiz-adv-x="1024" 
d="M479 1453h203v-7l-186 -353h-42zM772 1154c-57 0 -102 43 -102 100c0 58 45 101 102 101c58 0 104 -43 104 -101c0 -57 -46 -100 -104 -100zM287 1154c-58 0 -104 43 -104 100c0 58 46 101 104 101c57 0 102 -43 102 -101c0 -57 -45 -100 -102 -100z" />
    <glyph glyph-name="Alphatonos.grek" unicode="&#x386;" horiz-adv-x="1377" 
d="M1194 248c56 -155 91 -192 192 -209v-39h-575v39c129 17 153 62 102 213l-89 257h-472l-74 -222c-61 -183 -45 -227 97 -248v-39h-387v39c105 17 139 54 210 253l419 1152h151zM170 1084l48 360h236v-7l-233 -353h-51zM371 566h434l-220 641z" />
    <glyph glyph-name="anoteleia.grek" unicode="&#x387;" horiz-adv-x="491" 
d="M240 704c-78 0 -142 64 -142 142c0 79 64 142 142 142c79 0 142 -63 142 -142c0 -78 -63 -142 -142 -142z" />
    <glyph glyph-name="Epsilontonos.grek" unicode="&#x388;" horiz-adv-x="1530" 
d="M1404 1444l16 -359h-38c-55 231 -143 293 -422 305l-201 8v-635l254 5c124 5 150 52 181 204h34v-465h-34c-29 151 -56 199 -181 204l-254 6v-671l237 9c295 14 379 73 436 342h37l-17 -397h-1097v39c119 19 139 42 139 130v1106c0 88 -20 111 -139 130v39h1049zM0 1084
l47 360h236v-7l-232 -353h-51z" />
    <glyph glyph-name="Etatonos.grek" unicode="&#x389;" horiz-adv-x="1888" 
d="M759 163c0 -85 21 -105 133 -124v-39h-537v39c119 19 139 42 139 130v1106c0 88 -20 111 -139 130v39h537v-40c-112 -18 -133 -38 -133 -123v-516h670v516c0 86 -19 106 -132 124v39h536v-39c-118 -19 -139 -40 -139 -130v-1106c0 -89 21 -111 139 -130v-39h-536v39
c113 18 132 38 132 124v550h-670v-550zM0 1084l47 360h236v-7l-232 -353h-51z" />
    <glyph glyph-name="Iotatonos.grek" unicode="&#x38a;" horiz-adv-x="952" 
d="M756 169c0 -88 21 -111 140 -130v-39h-544v39c120 19 140 42 140 130v1106c0 88 -20 111 -140 130v39h544v-39c-119 -19 -140 -42 -140 -130v-1106zM-3 1084l48 360h236v-7l-233 -353h-51z" />
    <glyph glyph-name="Omicrontonos.grek" unicode="&#x38c;" horiz-adv-x="1724" 
d="M163 721c0 414 290 745 733 745c387 0 736 -285 736 -742c0 -414 -290 -746 -732 -746c-388 0 -737 286 -737 743zM-3 1084l48 360h236v-7l-233 -353h-51zM458 736c0 -404 172 -701 449 -701c306 0 431 285 431 674c0 404 -173 700 -449 700c-307 0 -431 -284 -431 -673z
" />
    <glyph glyph-name="Upsilontonos.grek" unicode="&#x38e;" horiz-adv-x="1662" 
d="M548 1200c-97 161 -132 189 -223 205v39h568v-39c-123 -18 -142 -61 -58 -208l270 -471l238 438c96 178 86 222 -51 241v39h377v-39c-97 -18 -136 -54 -251 -246l-288 -481v-495c0 -97 20 -126 151 -144v-39h-567v39c131 18 151 47 151 144v479zM-3 1084l48 360h236v-7
l-233 -353h-51z" />
    <glyph glyph-name="Omegatonos.grek" unicode="&#x38f;" horiz-adv-x="1706" 
d="M208 0l-49 369h32c75 -171 216 -211 566 -211v109c-343 48 -567 270 -567 579c0 347 282 619 712 619c428 0 721 -265 721 -605c0 -314 -213 -543 -568 -593v-109c364 0 495 42 567 211h31l-47 -369h-600v298c230 70 342 278 342 548c0 331 -158 563 -449 563
c-289 0 -433 -229 -433 -546c0 -273 112 -493 341 -565v-298h-599zM-3 1084l48 360h236v-7l-233 -353h-51z" />
    <glyph glyph-name="iotadieresistonos.grek" unicode="&#x390;" horiz-adv-x="641" 
d="M230 1453h204v-7l-186 -353h-43zM524 1154c-57 0 -103 43 -103 100c0 58 46 101 103 101c58 0 104 -43 104 -101c0 -57 -46 -100 -104 -100zM39 1154c-58 0 -105 43 -105 100c0 58 47 101 105 101c56 0 102 -43 102 -101c0 -57 -46 -100 -102 -100zM384 -19
c-149 0 -245 86 -246 273l-4 723h252c-13 -279 -24 -560 -24 -690c0 -122 55 -180 151 -180c57 0 100 17 128 40v-40c-49 -73 -145 -126 -257 -126z" />
    <glyph glyph-name="Alpha.grek" unicode="&#x391;" horiz-adv-x="1374" 
d="M1194 248c56 -155 91 -192 192 -209v-39h-575v39c129 17 153 62 102 213l-89 257h-472l-74 -222c-61 -183 -45 -227 97 -248v-39h-387v39c105 17 139 54 210 253l419 1152h151zM371 566h434l-220 641z" />
    <glyph glyph-name="Beta.grek" unicode="&#x392;" horiz-adv-x="1347" 
d="M1265 414c0 -286 -314 -414 -650 -414h-560v39c120 19 139 42 139 130v1106c0 88 -19 111 -139 130v39h560c360 0 584 -116 584 -343c0 -201 -200 -306 -426 -321c292 -13 492 -137 492 -366zM928 1082c0 177 -102 305 -364 313l-105 3v-611l164 1c195 1 305 102 305 294
zM983 399c0 200 -127 337 -360 340l-164 2v-695l105 3c268 8 419 131 419 350z" />
    <glyph glyph-name="Gamma.grek" unicode="&#x393;" horiz-adv-x="1116" 
d="M55 0v39c120 19 139 42 139 130v1106c0 88 -19 111 -139 130v39h1006l14 -350h-37c-52 225 -133 285 -404 297l-175 7v-1215c0 -97 20 -126 151 -144v-39h-555z" />
    <glyph glyph-name="Delta.grek" unicode="&#x394;" horiz-adv-x="1285" 
d="M46 0v131l525 1313h152l516 -1314v-130h-1193zM126 171h816l-392 1042z" />
    <glyph glyph-name="Epsilon.grek" unicode="&#x395;" horiz-adv-x="1229" 
d="M1105 1444l15 -359h-37c-55 231 -144 293 -423 305l-201 8v-635l254 5c124 5 150 52 181 204h34v-465h-34c-29 151 -56 199 -181 204l-254 6v-671l237 9c295 14 380 73 436 342h38l-18 -397h-1097v39c120 19 139 42 139 130v1106c0 88 -19 111 -139 130v39h1050z" />
    <glyph glyph-name="Zeta.grek" unicode="&#x396;" horiz-adv-x="1261" 
d="M1170 0h-1094v37l798 1361l-265 -9c-347 -12 -423 -74 -478 -304h-36l18 359h1055v-37l-798 -1361l291 10c334 14 428 67 489 341h37z" />
    <glyph glyph-name="Eta.grek" unicode="&#x397;" horiz-adv-x="1589" 
d="M459 163c0 -85 21 -105 133 -124v-39h-537v39c120 19 139 42 139 130v1106c0 88 -19 111 -139 130v39h537v-40c-112 -18 -133 -38 -133 -123v-516h670v516c0 86 -19 106 -132 124v39h537v-39c-118 -19 -140 -40 -140 -130v-1106c0 -89 22 -111 140 -130v-39h-537v39
c113 18 132 38 132 124v550h-670v-550z" />
    <glyph glyph-name="Theta.grek" unicode="&#x398;" horiz-adv-x="1656" 
d="M830 -22c-388 0 -739 286 -739 743c0 414 290 745 735 745c388 0 739 -285 739 -743c0 -413 -292 -745 -735 -745zM836 32c317 0 446 282 446 677c0 411 -176 703 -463 703c-317 0 -445 -281 -445 -676c0 -410 175 -704 462 -704zM540 490v466h33
c25 -145 58 -206 206 -206h97c148 0 180 61 205 206h34v-466h-34c-24 143 -57 207 -205 207h-97c-148 0 -181 -64 -206 -207h-33z" />
    <glyph glyph-name="Iota.grek" unicode="&#x399;" horiz-adv-x="654" 
d="M459 169c0 -88 21 -111 140 -130v-39h-544v39c120 19 139 42 139 130v1106c0 88 -19 111 -139 130v39h544v-39c-119 -19 -140 -42 -140 -130v-1106z" />
    <glyph glyph-name="Kappa.grek" unicode="&#x39a;" horiz-adv-x="1370" 
d="M459 163c0 -85 21 -105 133 -124v-39h-537v39c120 19 139 42 139 130v1106c0 88 -19 111 -139 130v39h537v-40c-112 -18 -133 -38 -133 -123v-510l129 1l341 406c138 163 136 211 1 227v39h413v-39c-109 -26 -191 -86 -342 -243c-83 -85 -162 -172 -232 -249l359 -595
c125 -206 176 -258 246 -281v-37h-349l-436 722l-130 1v-560z" />
    <glyph glyph-name="Lambda.grek" unicode="&#x39b;" horiz-adv-x="1371" 
d="M-7 0v39c99 16 137 53 204 239l418 1166h152l421 -1198c55 -155 94 -191 191 -207v-39h-576v39c117 16 154 56 106 201l-325 964l-304 -923c-56 -173 -46 -222 99 -242v-39h-386z" />
    <glyph glyph-name="Mu.grek" unicode="&#x39c;" horiz-adv-x="1797" 
d="M479 1444l433 -1171l391 1171h414v-39c-114 -18 -136 -42 -134 -130l36 -1106c3 -91 21 -113 140 -130v-39h-538v39c114 16 137 38 134 128l-34 1112l-353 -973l-107 -306h-114l-485 1292l-10 -1038c-3 -159 15 -196 142 -215v-39h-375v39c124 18 145 56 152 213l38 992
c4 105 -25 142 -131 161v39h401z" />
    <glyph glyph-name="Nu.grek" unicode="&#x39d;" horiz-adv-x="1456" 
d="M451 1444l775 -1164l-20 902c-3 168 -21 206 -151 223v39h379v-39c-125 -19 -143 -57 -146 -223l-11 -1182h-193l-855 1283l18 -1021c2 -168 22 -206 151 -223v-39h-379v39c125 19 144 57 146 223l11 981c0 106 -29 139 -134 162v39h409z" />
    <glyph glyph-name="Xi.grek" unicode="&#x39e;" horiz-adv-x="1340" 
d="M78 1062l17 382h1150l17 -382h-38c-51 172 -131 206 -395 206h-319c-263 0 -344 -34 -396 -206h-36zM297 512v433h35c26 -141 72 -188 277 -188h121c205 0 251 47 278 188h34v-433h-34c-26 143 -73 193 -278 193h-121c-205 0 -251 -50 -277 -193h-35zM77 0l-17 425h36
c54 -209 132 -242 424 -242h300c292 0 369 33 423 242h37l-17 -425h-1186z" />
    <glyph glyph-name="Omicron.grek" unicode="&#x39f;" horiz-adv-x="1651" 
d="M91 721c0 414 290 745 732 745c388 0 737 -285 737 -742c0 -414 -291 -746 -733 -746c-387 0 -736 286 -736 743zM386 736c0 -404 171 -701 449 -701c306 0 430 285 430 674c0 404 -172 700 -448 700c-307 0 -431 -284 -431 -673z" />
    <glyph glyph-name="Pi.grek" unicode="&#x3a0;" horiz-adv-x="1549" 
d="M55 0v39c120 19 139 42 139 130v1106c0 88 -19 111 -139 130v39h1438v-39c-118 -19 -139 -42 -139 -130v-1106c0 -88 21 -111 139 -130v-39h-536v39c112 19 132 39 132 124v1231h-630v-1231c0 -85 21 -105 133 -124v-39h-537z" />
    <glyph glyph-name="Rho.grek" unicode="&#x3a1;" horiz-adv-x="1296" 
d="M1218 1029c0 -296 -276 -442 -621 -442h-138v-404c0 -97 20 -126 151 -144v-39h-555v39c120 19 139 42 139 130v1106c0 88 -19 111 -139 130v39h542c395 0 621 -146 621 -415zM936 1016c0 216 -121 368 -391 379l-86 3v-765l86 3c266 11 391 161 391 380z" />
    <glyph glyph-name="Sigma.grek" unicode="&#x3a3;" horiz-adv-x="1287" 
d="M82 0v130l505 548l-514 729v37h1066l15 -358h-38c-56 224 -133 291 -451 304l-282 9l414 -590v-16l-593 -603h527c297 0 373 37 429 250h40l-16 -440h-1102z" />
    <glyph glyph-name="Tau.grek" unicode="&#x3a4;" horiz-adv-x="1307" 
d="M1251 1444l15 -359h-37c-49 232 -132 292 -390 310l-53 3v-1215c0 -97 20 -126 151 -144v-39h-566v39c130 18 150 47 150 144v1215l-54 -3c-256 -18 -340 -76 -389 -310h-37l14 359h1196z" />
    <glyph glyph-name="Upsilon.grek" unicode="&#x3a5;" horiz-adv-x="1331" 
d="M216 1200c-96 161 -131 189 -222 205v39h567v-39c-122 -18 -142 -61 -58 -208l271 -471l238 438c96 178 86 222 -51 241v39h376v-39c-96 -18 -135 -54 -250 -246l-289 -481v-495c0 -97 20 -126 151 -144v-39h-566v39c130 18 151 47 151 144v479z" />
    <glyph glyph-name="Phi.grek" unicode="&#x3a6;" horiz-adv-x="1836" 
d="M643 0v39c130 18 150 47 150 144v15c-423 12 -714 196 -714 523c0 345 319 513 714 526v14c0 97 -20 126 -150 144v39h550v-39c-130 -18 -151 -47 -151 -144v-14c420 -13 714 -197 714 -523c0 -344 -315 -514 -714 -526v-15c0 -97 21 -126 151 -144v-39h-550zM1485 718
c0 280 -155 461 -443 479v-949c268 19 443 195 443 470zM351 727c0 -281 156 -461 442 -479v949c-269 -19 -442 -195 -442 -470z" />
    <glyph glyph-name="Chi.grek" unicode="&#x3a7;" horiz-adv-x="1364" 
d="M283 294l273 399l-330 524c-79 127 -117 163 -207 188v39h563v-39c-134 -21 -138 -56 -62 -179l258 -410l218 352c107 175 105 216 -37 237v39h388v-39c-101 -17 -147 -55 -277 -246l-265 -387l343 -546c80 -128 124 -162 215 -187v-39h-571v39c130 22 133 66 62 179
l-270 430l-229 -367c-109 -180 -107 -221 35 -242v-39h-389v39c102 17 147 55 282 255z" />
    <glyph glyph-name="Psi.grek" unicode="&#x3a8;" horiz-adv-x="1788" 
d="M618 0v39c130 18 151 47 151 144v348c-319 8 -505 124 -550 453l-33 247c-18 126 -53 159 -142 163v39c30 5 86 11 136 11c148 0 226 -58 253 -242l37 -257c36 -247 117 -352 299 -364v700c0 85 -22 106 -133 123v40h515v-40c-111 -17 -132 -38 -132 -123v-700
c182 12 263 117 299 364l36 257c27 184 105 242 252 242c52 0 107 -6 137 -11v-39c-88 -4 -124 -37 -141 -163l-34 -247c-46 -329 -231 -444 -549 -453v-348c0 -97 20 -126 151 -144v-39h-552z" />
    <glyph glyph-name="Omega.grek" unicode="&#x2126;" horiz-adv-x="1584" 
d="M86 0l-49 369h32c75 -171 216 -211 567 -211v109c-344 48 -568 270 -568 579c0 347 282 619 712 619c428 0 721 -265 721 -605c0 -314 -213 -543 -568 -593v-109c364 0 496 42 567 211h32l-48 -369h-600v298c231 70 342 278 342 548c0 331 -158 563 -449 563
c-289 0 -433 -229 -433 -546c0 -273 112 -493 341 -565v-298h-599z" />
    <glyph glyph-name="Omega.grek" unicode="&#x3a9;" horiz-adv-x="1584" 
d="M86 0l-49 369h32c75 -171 216 -211 567 -211v109c-344 48 -568 270 -568 579c0 347 282 619 712 619c428 0 721 -265 721 -605c0 -314 -213 -543 -568 -593v-109c364 0 496 42 567 211h32l-48 -369h-600v298c231 70 342 278 342 548c0 331 -158 563 -449 563
c-289 0 -433 -229 -433 -546c0 -273 112 -493 341 -565v-298h-599z" />
    <glyph glyph-name="Iotadieresis.grek" unicode="&#x3aa;" horiz-adv-x="654" 
d="M169 1569c-58 0 -105 46 -105 103c0 58 47 103 105 103c59 0 105 -45 105 -103c0 -57 -46 -103 -105 -103zM485 1569c-58 0 -105 46 -105 103c0 58 47 103 105 103c59 0 105 -45 105 -103c0 -57 -46 -103 -105 -103zM459 169c0 -88 21 -111 140 -130v-39h-544v39
c120 19 139 42 139 130v1106c0 88 -19 111 -139 130v39h544v-39c-119 -19 -140 -42 -140 -130v-1106z" />
    <glyph glyph-name="Upsilondieresis.grek" unicode="&#x3ab;" horiz-adv-x="1331" 
d="M585 1569c-58 0 -105 46 -105 103c0 58 47 103 105 103c59 0 105 -45 105 -103c0 -57 -46 -103 -105 -103zM901 1569c-59 0 -105 46 -105 103c0 58 46 103 105 103c58 0 105 -45 105 -103c0 -57 -47 -103 -105 -103zM216 1200c-96 161 -131 189 -222 205v39h567v-39
c-122 -18 -142 -61 -58 -208l271 -471l238 438c96 178 86 222 -51 241v39h376v-39c-96 -18 -135 -54 -250 -246l-289 -481v-495c0 -97 20 -126 151 -144v-39h-566v39c130 18 151 47 151 144v479z" />
    <glyph glyph-name="alphatonos.grek" unicode="&#x3ac;" horiz-adv-x="1280" 
d="M526 1093l47 361h236v-8l-233 -353h-50zM460 -18c-194 0 -378 166 -378 493c0 300 172 520 434 520c196 0 311 -113 382 -343c31 110 58 222 81 325h235l-234 -498l21 -72c69 -253 117 -304 186 -304c23 0 47 7 63 20v-36c-41 -58 -113 -100 -194 -100
c-122 0 -189 77 -234 278c-103 -191 -208 -283 -362 -283zM340 500c0 -266 84 -417 216 -417c101 0 182 92 249 268l-45 237c-46 241 -113 349 -220 349c-125 0 -200 -164 -200 -437z" />
    <glyph glyph-name="epsilontonos.grek" unicode="&#x3ad;" horiz-adv-x="1021" 
d="M505 1093l48 360h236v-7l-233 -353h-51zM496 -19c-240 0 -391 98 -391 254c0 137 115 232 348 238c-205 8 -322 108 -322 247c0 154 134 275 425 275c267 0 396 -91 396 -215c0 -67 -53 -115 -113 -115c-72 0 -116 54 -116 111c0 63 47 105 99 110
c-57 37 -140 53 -235 53c-163 0 -240 -67 -240 -161c0 -106 93 -163 306 -163h61l31 -162h-102c-191 0 -283 -61 -283 -166c0 -102 102 -154 259 -154c149 0 279 50 347 117v-40c-79 -133 -236 -229 -470 -229z" />
    <glyph glyph-name="etatonos.grek" unicode="&#x3ae;" horiz-adv-x="1163" 
d="M455 1093l47 360h236v-7l-233 -353h-50zM166 0c9 273 17 522 18 709c1 132 -37 176 -109 176c-24 0 -44 -6 -56 -15v39c40 44 109 80 192 80c111 0 182 -58 192 -192c35 116 145 198 309 198c199 0 331 -92 332 -386l5 -1069h-253c11 438 15 764 15 1023
c0 233 -56 319 -210 319c-96 0 -163 -50 -191 -127l8 -755h-252z" />
    <glyph glyph-name="iotatonos.grek" unicode="&#x3af;" horiz-adv-x="641" 
d="M222 1093l47 360h236v-7l-232 -353h-51zM384 -19c-149 0 -245 86 -246 273l-4 723h252c-13 -279 -24 -560 -24 -690c0 -122 55 -180 151 -180c57 0 100 17 128 40v-40c-49 -73 -145 -126 -257 -126z" />
    <glyph glyph-name="upsilondieresistonos.grek" unicode="&#x3b0;" horiz-adv-x="1075" 
d="M502 1454h203v-8l-185 -353h-43zM795 1154c-56 0 -102 44 -102 101s46 100 102 100c58 0 105 -43 105 -100s-47 -101 -105 -101zM310 1154c-58 0 -104 44 -104 101s46 100 104 100c57 0 103 -43 103 -100s-46 -101 -103 -101zM532 -19c-235 0 -366 148 -366 377
c0 67 6 318 6 380c0 109 -34 148 -101 148c-26 0 -46 -7 -58 -15v38c37 42 113 80 202 80c133 0 203 -80 203 -249c0 -45 -8 -285 -8 -357c0 -186 77 -285 224 -285c150 0 253 111 253 323c0 193 -94 347 -241 382c-28 109 28 192 119 192c130 0 218 -164 218 -437
c0 -362 -206 -577 -451 -577z" />
    <glyph glyph-name="alpha.grek" unicode="&#x3b1;" horiz-adv-x="1280" 
d="M460 -18c-194 0 -378 166 -378 493c0 300 172 520 434 520c196 0 311 -113 382 -343c31 110 58 222 81 325h235l-234 -498l21 -72c69 -253 117 -304 186 -304c23 0 47 7 63 20v-36c-41 -58 -113 -100 -194 -100c-122 0 -189 77 -234 278c-103 -191 -208 -283 -362 -283z
M340 500c0 -266 84 -417 216 -417c101 0 182 92 249 268l-45 237c-46 241 -113 349 -220 349c-125 0 -200 -164 -200 -437z" />
    <glyph glyph-name="beta.grek" unicode="&#x3b2;" horiz-adv-x="1196" 
d="M133 -460l5 1458c1 358 200 497 462 497c261 0 424 -121 424 -323c0 -184 -167 -299 -344 -321c251 -14 428 -175 428 -442c0 -273 -212 -428 -442 -428c-127 0 -237 52 -291 123c2 -163 5 -350 9 -564h-251zM368 1099c0 -164 -1 -435 6 -940c42 -62 131 -106 237 -106
c151 0 267 98 267 308c0 206 -135 337 -378 332v173c205 7 303 113 303 307c0 165 -78 267 -209 267c-150 0 -226 -109 -226 -341z" />
    <glyph glyph-name="gamma.grek" unicode="&#x3b3;" horiz-adv-x="1082" 
d="M419 -460l50 380l-234 698c-72 217 -100 267 -166 267c-26 0 -45 -10 -57 -21v39c36 45 104 86 190 86c132 0 193 -79 263 -314l163 -548l197 850h252c-129 -249 -290 -610 -436 -923l46 -514h-268z" />
    <glyph glyph-name="delta.grek" unicode="&#x3b4;" horiz-adv-x="1153" 
d="M561 -19c-295 0 -491 181 -491 441c0 245 162 416 414 470l-25 17c-180 120 -244 197 -244 317c0 158 141 269 373 269c174 0 330 -52 404 -116l-99 -187c-146 151 -266 225 -377 225c-87 0 -128 -40 -128 -98c0 -63 35 -107 173 -201l114 -79
c266 -184 394 -325 394 -572c0 -300 -227 -486 -508 -486zM324 419c0 -218 84 -383 240 -383c146 0 251 139 251 369c0 182 -65 306 -241 425l-36 25c-126 -65 -214 -212 -214 -436z" />
    <glyph glyph-name="epsilon.grek" unicode="&#x3b5;" horiz-adv-x="1021" 
d="M496 -19c-240 0 -391 98 -391 254c0 137 115 232 348 238c-205 8 -322 108 -322 247c0 154 134 275 425 275c267 0 396 -91 396 -215c0 -67 -53 -115 -113 -115c-72 0 -116 54 -116 111c0 63 47 105 99 110c-57 37 -140 53 -235 53c-163 0 -240 -67 -240 -161
c0 -106 93 -163 306 -163h61l31 -162h-102c-191 0 -283 -61 -283 -166c0 -102 102 -154 259 -154c149 0 279 50 347 117v-40c-79 -133 -236 -229 -470 -229z" />
    <glyph glyph-name="zeta.grek" unicode="&#x3b6;" horiz-adv-x="814" 
d="M632 -411c30 56 51 124 51 183c0 90 -40 148 -164 175l-66 14c-279 60 -390 180 -390 366c0 166 81 322 379 640l254 293h-611v194l519 -10h162v-170l-258 -321c-212 -255 -262 -365 -262 -494s71 -208 250 -248l66 -14c191 -42 258 -138 258 -270
c0 -109 -64 -231 -148 -338h-40z" />
    <glyph glyph-name="eta.grek" unicode="&#x3b7;" horiz-adv-x="1163" 
d="M166 0c9 273 17 522 18 709c1 132 -37 176 -109 176c-24 0 -44 -6 -56 -15v39c40 44 109 80 192 80c111 0 182 -58 192 -192c35 116 145 198 309 198c199 0 331 -92 332 -386l5 -1069h-253c11 438 15 764 15 1023c0 233 -56 319 -210 319c-96 0 -163 -50 -191 -127
l8 -755h-252z" />
    <glyph glyph-name="theta.grek" unicode="&#x3b8;" horiz-adv-x="1201" 
d="M597 -19c-280 0 -502 234 -502 761c0 491 202 753 509 753c276 0 502 -225 502 -751c0 -495 -201 -762 -509 -763zM597 1440c-175 0 -250 -186 -252 -664l511 24c-7 427 -84 640 -259 640zM604 36c173 0 249 191 252 659l-511 26c3 -453 80 -685 259 -685z" />
    <glyph glyph-name="iota.grek" unicode="&#x3b9;" horiz-adv-x="641" 
d="M384 -19c-149 0 -245 86 -246 273l-4 723h252c-13 -279 -24 -560 -24 -690c0 -122 55 -180 151 -180c57 0 100 17 128 40v-40c-49 -73 -145 -126 -257 -126z" />
    <glyph glyph-name="kappa.grek" unicode="&#x3ba;" horiz-adv-x="1123" 
d="M138 0l-4 977h253l-12 -642c74 120 163 249 271 401c135 192 197 258 289 258c76 0 116 -50 116 -114c0 -41 -21 -78 -50 -94c-110 26 -236 -21 -325 -118l174 -340c89 -174 137 -220 188 -220c23 0 45 7 60 19v-36c-43 -62 -114 -104 -196 -104c-109 0 -173 63 -277 274
l-107 218l-144 -192l-6 -287h-230z" />
    <glyph glyph-name="lambda.grek" unicode="&#x3bb;" horiz-adv-x="1068" 
d="M18 0l495 1045c-97 208 -227 271 -382 248c-21 16 -38 49 -38 88c0 64 45 114 122 114c106 0 170 -71 296 -358l378 -869c64 -143 98 -160 139 -160c19 0 43 7 57 19v-36c-35 -59 -103 -104 -186 -104c-123 0 -184 68 -204 251l-81 569l-339 -807h-257z" />
    <glyph glyph-name="nu.grek" unicode="&#x3bd;" horiz-adv-x="1092" 
d="M438 0l-208 633c-67 205 -99 252 -159 252c-26 0 -46 -9 -59 -21v40c36 44 106 85 191 85c134 -1 192 -82 264 -321l178 -592c133 244 190 403 190 535c0 114 -50 201 -123 232c-4 88 50 152 134 152c95 0 154 -74 154 -196c0 -136 -57 -279 -233 -587l-121 -212h-208z
" />
    <glyph glyph-name="xi.grek" unicode="&#x3be;" horiz-adv-x="892" 
d="M695 -411c31 56 51 124 51 183c0 89 -36 152 -161 171l-85 13c-263 41 -419 151 -419 362c0 224 179 343 441 355c-250 8 -385 126 -385 287c0 165 145 282 418 304h-452v190l582 -10h163v-173c-427 -1 -544 -92 -544 -222c0 -133 121 -205 356 -205h99v-180h-114
c-259 0 -372 -88 -372 -231c0 -139 98 -211 281 -240l84 -14c186 -28 245 -130 245 -250c0 -114 -64 -238 -148 -340h-40z" />
    <glyph glyph-name="omicron.grek" unicode="&#x3bf;" horiz-adv-x="1184" 
d="M591 -19c-287 0 -508 193 -508 505c0 311 227 509 511 509c283 0 506 -192 506 -505c0 -310 -229 -509 -509 -509zM595 36c155 0 242 163 242 442c0 281 -98 463 -247 463c-158 0 -243 -163 -243 -442c0 -281 97 -463 248 -463z" />
    <glyph glyph-name="pi.grek" unicode="&#x3c0;" horiz-adv-x="1185" 
d="M75 0c96 265 181 537 259 807h-260l46 170h420c198 0 395 3 555 10v-180h-223l28 -471c11 -175 62 -223 144 -223c27 0 55 7 73 18v-36c-49 -66 -127 -108 -224 -108c-141 0 -232 92 -214 327l22 493h-317l-44 -807h-265z" />
    <glyph glyph-name="rho.grek" unicode="&#x3c1;" horiz-adv-x="1178" 
d="M120 -460l3 947c2 324 182 508 472 508c316 0 502 -202 502 -505c0 -329 -225 -507 -464 -508c-119 -1 -221 44 -272 115c2 -144 5 -316 11 -557h-252zM360 524c0 -126 0 -238 1 -375c38 -56 114 -92 207 -92c162 0 267 154 267 437c0 279 -91 446 -246 446
c-165 0 -229 -178 -229 -416z" />
    <glyph glyph-name="sigmafinal.grek" unicode="&#x3c2;" horiz-adv-x="977" 
d="M704 -411c31 55 52 129 52 190c0 87 -40 140 -168 166l-52 10c-286 58 -452 229 -452 507c0 326 231 533 486 533c216 0 324 -113 324 -248c0 -70 -53 -122 -118 -122c-70 0 -120 55 -120 119c0 67 50 117 113 117c11 0 22 -2 32 -5c-41 47 -109 76 -192 76
c-187 0 -306 -145 -306 -373c0 -201 100 -324 292 -365l50 -11c176 -37 247 -118 247 -249c0 -110 -63 -239 -148 -345h-40z" />
    <glyph glyph-name="sigma.grek" unicode="&#x3c3;" horiz-adv-x="1218" 
d="M590 -19c-299 0 -508 195 -508 471c0 301 210 516 577 523l509 11v-181c-153 8 -295 11 -434 13c190 -19 354 -180 354 -386c0 -269 -239 -451 -498 -451zM592 36c144 0 243 149 243 395c0 221 -112 358 -222 383c-169 -15 -267 -156 -267 -387c0 -239 98 -391 246 -391z
" />
    <glyph glyph-name="tau.grek" unicode="&#x3c4;" horiz-adv-x="970" 
d="M589 -19c-179 0 -287 124 -263 407l30 419h-334l48 170h359c113 0 351 4 493 10v-180h-389l15 -423c7 -199 75 -274 196 -274c62 0 113 16 146 39v-39c-60 -72 -175 -129 -301 -129z" />
    <glyph glyph-name="upsilon.grek" unicode="&#x3c5;" horiz-adv-x="1075" 
d="M532 -19c-235 0 -366 148 -366 377c0 67 6 318 6 380c0 109 -34 148 -101 148c-26 0 -46 -7 -58 -15v38c37 42 113 80 202 80c133 0 203 -80 203 -249c0 -45 -8 -285 -8 -357c0 -186 77 -285 224 -285c150 0 253 111 253 323c0 193 -94 347 -241 382
c-28 109 28 192 119 192c130 0 218 -164 218 -437c0 -362 -206 -577 -451 -577z" />
    <glyph glyph-name="phi.grek" unicode="&#x3c6;" horiz-adv-x="1523" 
d="M635 -460c9 148 18 296 26 443c-355 18 -583 212 -583 499c0 305 268 501 632 511c7 155 13 310 19 467h63c6 -156 13 -312 20 -467c380 -10 634 -198 634 -499c0 -291 -243 -493 -585 -511c8 -147 16 -295 24 -443h-250zM335 487c0 -242 123 -425 329 -447
c16 299 31 597 44 898c-230 -14 -373 -195 -373 -451zM1188 481c0 249 -132 440 -374 456c13 -301 28 -599 44 -898c198 20 330 194 330 442z" />
    <glyph glyph-name="chi.grek" unicode="&#x3c7;" horiz-adv-x="1040" 
d="M33 -459c136 213 268 455 392 708l-175 422c-74 179 -119 213 -180 213c-28 0 -51 -9 -63 -20v40c37 45 105 85 188 85c134 0 202 -77 297 -310l137 -331l170 628h248c-139 -214 -275 -450 -394 -685l185 -447c76 -178 121 -213 180 -213c28 0 51 9 64 19v-38
c-38 -47 -106 -85 -188 -85c-134 0 -203 77 -298 310l-147 355l-168 -651h-248z" />
    <glyph glyph-name="psi.grek" unicode="&#x3c8;" horiz-adv-x="1374" 
d="M622 -460c9 147 17 295 26 442c-297 14 -488 168 -488 472c0 79 12 199 12 284c0 109 -34 148 -101 148c-26 0 -46 -7 -58 -15v38c37 42 113 80 201 80c132 0 202 -81 202 -243c0 -91 -18 -221 -18 -314c0 -208 92 -316 255 -352c24 458 46 919 63 1380h64
c16 -464 37 -928 63 -1392c205 19 335 157 335 378c0 183 -91 317 -220 353c-26 116 33 196 123 196c129 0 216 -153 216 -398c0 -315 -190 -558 -450 -607c9 -150 17 -300 27 -450h-252z" />
    <glyph glyph-name="omega.grek" unicode="&#x3c9;" horiz-adv-x="1520" 
d="M412 -19c-188 0 -328 158 -328 433c0 279 167 510 437 579l25 -26c-135 -91 -209 -282 -209 -517c0 -224 70 -342 186 -342s179 108 179 405v200h222v-200c0 -281 79 -407 216 -407c125 0 200 106 200 282c0 210 -118 372 -277 408c-36 112 19 198 115 198
c138 0 254 -192 254 -472c0 -321 -163 -541 -382 -541c-187 0 -292 132 -318 302c-38 -162 -149 -302 -320 -302z" />
    <glyph glyph-name="iotadieresis.grek" unicode="&#x3ca;" horiz-adv-x="641" 
d="M51 1162c-67 0 -121 51 -121 116c0 66 54 116 121 116s121 -50 121 -116c0 -65 -54 -116 -121 -116zM475 1162c-67 0 -121 51 -121 116c0 66 54 116 121 116s121 -50 121 -116c0 -65 -54 -116 -121 -116zM384 -19c-149 0 -245 86 -246 273l-4 723h252
c-13 -279 -24 -560 -24 -690c0 -122 55 -180 151 -180c57 0 100 17 128 40v-40c-49 -73 -145 -126 -257 -126z" />
    <glyph glyph-name="upsilondieresis.grek" unicode="&#x3cb;" horiz-adv-x="1075" 
d="M311 1163c-67 0 -121 50 -121 115c0 66 54 116 121 116s121 -50 121 -116c0 -65 -54 -115 -121 -115zM735 1163c-67 0 -121 50 -121 115c0 66 54 116 121 116s121 -50 121 -116c0 -65 -54 -115 -121 -115zM532 -19c-235 0 -366 148 -366 377c0 67 6 318 6 380
c0 109 -34 148 -101 148c-26 0 -46 -7 -58 -15v38c37 42 113 80 202 80c133 0 203 -80 203 -249c0 -45 -8 -285 -8 -357c0 -186 77 -285 224 -285c150 0 253 111 253 323c0 193 -94 347 -241 382c-28 109 28 192 119 192c130 0 218 -164 218 -437
c0 -362 -206 -577 -451 -577z" />
    <glyph glyph-name="omicrontonos.grek" unicode="&#x3cc;" horiz-adv-x="1184" 
d="M563 1093l47 360h236v-7l-233 -353h-50zM591 -19c-287 0 -508 193 -508 505c0 311 227 509 511 509c283 0 506 -192 506 -505c0 -310 -229 -509 -509 -509zM595 36c155 0 242 163 242 442c0 281 -98 463 -247 463c-158 0 -243 -163 -243 -442c0 -281 97 -463 248 -463z
" />
    <glyph glyph-name="upsilontonos.grek" unicode="&#x3cd;" horiz-adv-x="1075" 
d="M494 1093l47 361h236v-8l-233 -353h-50zM532 -19c-235 0 -366 148 -366 377c0 67 6 318 6 380c0 109 -34 148 -101 148c-26 0 -46 -7 -58 -15v38c37 42 113 80 202 80c133 0 203 -80 203 -249c0 -45 -8 -285 -8 -357c0 -186 77 -285 224 -285c150 0 253 111 253 323
c0 193 -94 347 -241 382c-28 109 28 192 119 192c130 0 218 -164 218 -437c0 -362 -206 -577 -451 -577z" />
    </font>
</defs>
</svg>
